M48
; DRILL file {KiCad 8.0.1} date 2024-05-29T10:00:29-0400
; FORMAT={-:-/ absolute / inch / decimal}
; #@! TF.CreationDate,2024-05-29T10:00:29-04:00
; #@! TF.GenerationSoftware,Kicad,Pcbnew,8.0.1
; #@! TF.FileFunction,Plated,1,4,PTH
FMAT,2
INCH
; #@! TA.AperFunction,Plated,PTH,ViaDrill
T1C0.0100
; #@! TA.AperFunction,Plated,PTH,ComponentDrill
T2C0.0236
; #@! TA.AperFunction,Plated,PTH,ComponentDrill
T3C0.0315
; #@! TA.AperFunction,Plated,PTH,ComponentDrill
T4C0.0335
; #@! TA.AperFunction,Plated,PTH,ComponentDrill
T5C0.0394
; #@! TA.AperFunction,Plated,PTH,ComponentDrill
T6C0.0980
; #@! TA.AperFunction,Plated,PTH,ComponentDrill
T7C0.1260
%
G90
G05
T1
X-0.1637Y2.7809
X-0.1175Y1.222
X0.02Y3.165
X0.02Y2.2498
X0.04Y2.2698
X0.06Y1.8598
X0.09Y2.335
X0.09Y2.29
X0.1175Y1.142
X0.1175Y1.067
X0.1525Y2.842
X0.24Y1.795
X0.24Y1.445
X0.354Y2.509
X0.46Y0.915
X0.46Y0.705
X0.46Y0.515
X0.46Y0.395
X0.4775Y1.507
X0.48Y2.392
X0.5225Y2.647
X0.53Y2.572
X0.54Y1.715
X0.54Y1.375
X0.545Y0.96
X0.55Y2.2398
X0.5675Y2.062
X0.57Y2.1198
X0.57Y1.7598
X0.57Y1.3998
X0.5775Y2.422
X0.58Y1.655
X0.59Y2.8198
X0.59Y2.2598
X0.59Y1.8998
X0.59Y1.5398
X0.61Y0.5498
X0.61Y0.4198
X0.61Y0.2898
X0.61Y0.1598
X0.61Y0.0298
X0.61Y-0.1002
X0.63Y1.095
X0.6525Y2.657
X0.6529Y1.8727
X0.6588Y1.5086
X0.685Y2.05
X0.7249Y2.455
X0.735Y1.635
X0.74Y2.555
X0.74Y2.265
X0.74Y1.905
X0.7428Y1.541
X0.75Y0.705
X0.77Y2.365
X0.77Y2.125
X0.7747Y2.6603
X0.79Y2.035
X0.79Y1.905
X0.79Y1.405
X0.8Y3.06
X0.8Y2.525
X0.815Y2.81
X0.825Y2.23
X0.8599Y2.4571
X0.86Y2.715
X0.87Y2.3198
X0.87Y1.9598
X0.87Y1.5998
X0.87Y0.855
X0.88Y2.555
X0.88Y1.905
X0.88Y0.0298
X0.9Y3.105
X0.91Y2.2398
X0.91Y0.895
X0.92Y2.1198
X0.92Y1.7598
X0.92Y1.3998
X0.9249Y2.48
X0.93Y0.935
X0.93Y0.2898
X0.94Y2.2598
X0.94Y1.8998
X0.94Y1.5398
X0.94Y0.82
X0.95Y2.555
X0.96Y0.975
X0.96Y0.4198
X0.9625Y3.322
X0.99Y2.6037
X0.99Y1.015
X1.0Y2.865
X1.0088Y1.8686
X1.0088Y1.5186
X1.01Y2.6298
X1.03Y1.235
X1.03Y1.065
X1.0892Y1.9042
X1.0899Y2.485
X1.09Y2.265
X1.09Y1.545
X1.1032Y2.65
X1.11Y2.125
X1.11Y1.765
X1.11Y1.405
X1.1195Y2.0055
X1.12Y2.995
X1.12Y2.365
X1.12Y1.64
X1.1395Y1.6595
X1.16Y2.915
X1.1825Y2.462
X1.1925Y2.417
X1.22Y2.3198
X1.22Y1.9598
X1.2225Y0.665
X1.24Y2.5998
X1.24Y2.495
X1.24Y2.465
X1.28Y1.355
X1.28Y0.82
X1.3Y1.0098
X1.3Y0.9698
X1.3Y0.9298
X1.3Y0.8898
X1.3Y0.8498
X1.3122Y2.381
X1.32Y2.035
X1.32Y1.065
X1.3475Y0.8275
X1.35Y3.005
X1.35Y2.005
X1.36Y2.965
X1.37Y2.805
X1.38Y0.7498
X1.39Y2.425
X1.4Y2.875
X1.41Y2.525
X1.42Y0.825
X1.43Y2.845
X1.43Y2.11
X1.44Y2.525
X1.44Y1.145
X1.44Y0.7498
X1.4511Y2.1256
X1.48Y2.605
X1.4984Y3.0316
X1.5Y3.325
X1.5Y0.7498
X1.51Y2.625
X1.54Y2.265
X1.56Y0.7498
X1.6Y2.825
X1.66Y1.235
X1.67Y1.055
X1.7Y2.425
X1.75Y3.005
X1.75Y2.13
X1.775Y2.955
X1.82Y2.155
X1.82Y1.055
X1.8235Y2.3826
X1.83Y0.8298
X1.84Y0.935
X1.85Y1.225
X1.85Y0.8798
X1.8548Y2.8998
X1.87Y1.365
X1.89Y1.465
X1.8975Y3.322
X1.8975Y2.805
X1.8975Y2.582
X1.92Y1.42
X1.93Y2.075
X1.93Y1.895
X1.93Y1.315
X1.93Y1.115
X1.9352Y2.1398
X1.9375Y1.817
X1.94Y2.545
X1.94Y1.065
X1.94Y0.905
X1.94Y0.875
X1.97Y2.465
X1.97Y2.275
X1.98Y1.145
X1.98Y1.005
X1.99Y1.665
X1.99Y1.195
X2.0Y1.545
X2.01Y2.485
X2.01Y2.305
X2.0275Y1.1325
X2.03Y2.595
X2.05Y2.3937
X2.05Y1.9837
X2.055Y1.9
X2.055Y1.645
X2.0561Y1.9398
X2.06Y2.825
X2.06Y2.3437
X2.11Y0.485
X2.12Y1.025
X2.13Y2.795
X2.135Y1.1
X2.14Y2.275
X2.14Y1.325
X2.14Y1.265
X2.14Y1.155
X2.16Y2.305
X2.16Y1.025
X2.16Y0.965
X2.17Y2.795
X2.17Y1.615
X2.17Y1.395
X2.175Y1.685
X2.18Y2.475
X2.19Y1.265
X2.19Y1.165
X2.2Y1.465
X2.2Y1.295
X2.2Y0.765
X2.204Y1.229
X2.22Y2.365
X2.22Y0.995
X2.2252Y1.9898
X2.2275Y2.4175
X2.23Y1.475
X2.23Y1.365
X2.24Y0.645
X2.2488Y2.035
X2.25Y1.785
X2.25Y1.415
X2.25Y1.025
X2.26Y0.885
X2.27Y2.215
X2.27Y0.945
X2.28Y1.345
X2.3Y1.845
X2.3Y0.815
X2.305Y1.43
X2.31Y1.155
X2.3143Y1.2093
X2.32Y0.795
X2.3217Y0.9567
X2.33Y0.465
X2.33Y0.375
X2.34Y1.619
X2.34Y1.065
X2.3414Y1.4364
X2.35Y0.945
X2.36Y1.295
X2.37Y1.445
X2.37Y1.075
X2.37Y0.815
X2.3706Y-0.0448
X2.3725Y1.817
X2.3725Y1.752
X2.38Y0.955
X2.39Y1.785
X2.39Y1.615
X2.4Y2.595
X2.4Y2.195
X2.4Y0.815
X2.42Y1.945
X2.42Y1.615
X2.42Y1.065
X2.43Y2.795
X2.43Y1.465
X2.43Y1.295
X2.43Y0.715
X2.44Y0.825
X2.45Y1.985
X2.45Y1.695
X2.45Y1.615
X2.45Y1.405
X2.4502Y0.3148
X2.455Y1.46
X2.46Y0.685
X2.46Y-0.045
X2.47Y2.795
X2.48Y2.355
X2.48Y0.955
X2.49Y0.845
X2.49Y0.655
X2.4989Y1.0639
X2.5Y1.435
X2.505Y2.64
X2.51Y2.25
X2.51Y1.845
X2.51Y1.615
X2.51Y1.165
X2.51Y0.345
X2.515Y0.41
X2.52Y1.125
X2.52Y0.965
X2.52Y0.875
X2.54Y1.195
X2.5466Y1.2684
X2.55Y1.685
X2.55Y1.235
X2.55Y0.855
X2.56Y1.395
X2.57Y1.615
X2.58Y1.335
X2.58Y0.755
X2.6Y2.285
X2.61Y1.035
X2.62Y1.74
X2.62Y1.645
X2.63Y1.815
X2.63Y1.345
X2.63Y0.2737
X2.6434Y1.6141
X2.6521Y1.4436
X2.66Y1.205
X2.66Y0.605
X2.66Y0.515
X2.67Y0.415
X2.67Y-0.055
X2.68Y2.025
X2.68Y1.105
X2.68Y0.825
X2.7Y1.065
X2.7Y0.935
X2.7Y0.735
X2.71Y1.515
X2.72Y1.845
X2.72Y0.135
X2.7274Y1.5676
X2.7296Y1.2445
X2.7296Y1.2067
X2.73Y1.785
X2.73Y1.355
X2.73Y1.085
X2.74Y1.915
X2.7435Y1.1425
X2.75Y0.885
X2.77Y1.165
X2.77Y0.865
X2.77Y0.775
X2.77Y-0.085
X2.78Y1.925
X2.78Y1.565
X2.795Y1.51
X2.81Y2.33
X2.8116Y1.1134
X2.8116Y1.0076
X2.83Y0.495
X2.84Y2.185
X2.84Y1.375
X2.86Y2.745
X2.88Y1.255
X2.89Y1.225
X2.9Y1.925
X2.92Y2.145
X2.92Y2.095
X2.92Y1.975
X2.92Y1.015
X2.9252Y2.1998
X2.93Y2.065
X2.93Y1.655
X2.93Y1.365
X2.94Y1.235
X2.94Y0.835
X2.95Y2.235
X2.96Y0.405
X2.98Y0.865
X3.01Y1.685
X3.01Y1.185
X3.01Y1.045
X3.0129Y0.9571
X3.02Y1.155
X3.03Y1.495
X3.05Y1.815
X3.05Y0.8
X3.08Y1.365
X3.1Y0.685
X3.2348Y0.3998
T3
X2.3704Y0.1902
X2.3704Y-0.1098
X2.4704Y0.1902
X2.4704Y-0.1098
X2.5704Y0.1902
X2.5704Y-0.1098
X2.6704Y0.1902
X2.6704Y-0.1098
T4
X-0.0327Y2.3982
X-0.0327Y2.2014
T5
X0.35Y3.375
X0.35Y3.275
X0.35Y3.175
X0.35Y3.075
X0.45Y3.3754
X0.45Y3.275
X0.45Y3.1754
X0.45Y3.075
X0.55Y3.3754
X0.55Y3.275
X0.55Y3.1754
X0.55Y3.075
X0.65Y3.3754
X0.65Y3.275
X0.65Y3.1754
X0.65Y3.075
X0.75Y3.3754
X0.75Y3.275
X0.75Y3.1754
X0.75Y3.075
X0.85Y3.3754
X0.85Y3.275
X0.85Y3.1754
X0.85Y3.075
X0.95Y3.3754
X0.95Y3.275
X0.95Y3.1754
X0.95Y3.075
X1.05Y3.3754
X1.05Y3.275
X1.05Y3.1754
X1.05Y3.075
X1.15Y3.3754
X1.15Y3.275
X1.15Y3.1754
X1.15Y3.075
X1.25Y3.3754
X1.25Y3.275
X1.25Y3.1754
X1.25Y3.075
X1.3437Y0.5761
X1.3437Y0.0761
X1.35Y3.3754
X1.35Y3.275
X1.35Y3.1754
X1.35Y3.075
X1.4437Y0.5761
X1.4437Y0.0761
X1.45Y3.3754
X1.45Y3.275
X1.45Y3.1754
X1.45Y3.075
X1.5437Y0.5761
X1.5437Y0.0761
X1.55Y3.3754
X1.55Y3.275
X1.55Y3.1754
X1.55Y3.075
X1.6437Y0.5761
X1.6437Y0.0761
X1.65Y3.3754
X1.65Y3.275
X1.65Y3.1754
X1.65Y3.075
X1.7437Y0.5761
X1.7437Y0.0761
X1.75Y3.3754
X1.75Y3.275
X1.75Y3.1754
X1.75Y3.075
X1.8437Y0.5761
X1.8437Y0.0761
X1.85Y3.3754
X1.85Y3.275
X1.85Y3.1754
X1.85Y3.075
X1.95Y3.3754
X1.95Y3.275
X1.95Y3.1754
X1.95Y3.075
X2.05Y3.3754
X2.05Y3.275
X2.05Y3.1754
X2.05Y3.075
X2.15Y3.3754
X2.15Y3.275
X2.15Y3.1754
X2.15Y3.075
X2.25Y3.3754
X2.25Y3.275
X2.25Y3.1754
X2.25Y3.075
X2.35Y3.3754
X2.35Y3.275
X2.35Y3.1754
X2.35Y3.075
X2.45Y3.3754
X2.45Y3.275
X2.45Y3.1754
X2.45Y3.075
X2.55Y3.3754
X2.55Y3.275
X2.55Y3.1754
X2.55Y3.075
X2.65Y3.3754
X2.65Y3.275
X2.65Y3.1754
X2.65Y3.075
X2.75Y3.3754
X2.75Y3.275
X2.75Y3.1754
X2.75Y3.075
X2.85Y3.3754
X2.85Y3.275
X2.85Y3.1754
X2.85Y3.075
X3.05Y0.5998
X3.05Y0.4998
X3.05Y0.3998
X3.15Y1.7998
X3.15Y1.6998
X3.15Y1.5998
X3.15Y1.4998
X3.15Y1.3998
X3.15Y1.2998
X3.15Y1.1998
X3.15Y1.0998
X3.15Y0.8998
X3.15Y0.7998
X3.15Y0.5998
X3.15Y0.4998
X3.15Y0.3998
T6
X1.1937Y0.5761
X1.1937Y0.0761
X1.9937Y0.5761
X1.9937Y0.0761
T7
X0.0Y0.0
X0.15Y3.375
X3.05Y3.375
X3.15Y-0.0002
T2
G00X-0.1528Y2.4376
M15
G01X-0.1252Y2.4376
M16
G05
G00X-0.1252Y2.162
M15
G01X-0.1528Y2.162
M16
G05
M30
