%TF.GenerationSoftware,KiCad,Pcbnew,8.0.1*%
%TF.CreationDate,2024-05-29T09:56:21-04:00*%
%TF.ProjectId,Avionics_Board,4176696f-6e69-4637-935f-426f6172642e,rev?*%
%TF.SameCoordinates,PX40311b0PY93281e8*%
%TF.FileFunction,Soldermask,Bot*%
%TF.FilePolarity,Negative*%
%FSLAX46Y46*%
G04 Gerber Fmt 4.6, Leading zero omitted, Abs format (unit mm)*
G04 Created by KiCad (PCBNEW 8.0.1) date 2024-05-29 09:56:21*
%MOMM*%
%LPD*%
G01*
G04 APERTURE LIST*
G04 Aperture macros list*
%AMRoundRect*
0 Rectangle with rounded corners*
0 $1 Rounding radius*
0 $2 $3 $4 $5 $6 $7 $8 $9 X,Y pos of 4 corners*
0 Add a 4 corners polygon primitive as box body*
4,1,4,$2,$3,$4,$5,$6,$7,$8,$9,$2,$3,0*
0 Add four circle primitives for the rounded corners*
1,1,$1+$1,$2,$3*
1,1,$1+$1,$4,$5*
1,1,$1+$1,$6,$7*
1,1,$1+$1,$8,$9*
0 Add four rect primitives between the rounded corners*
20,1,$1+$1,$2,$3,$4,$5,0*
20,1,$1+$1,$4,$5,$6,$7,0*
20,1,$1+$1,$6,$7,$8,$9,0*
20,1,$1+$1,$8,$9,$2,$3,0*%
G04 Aperture macros list end*
%ADD10C,6.501600*%
%ADD11RoundRect,0.050800X0.850000X-0.850000X0.850000X0.850000X-0.850000X0.850000X-0.850000X-0.850000X0*%
%ADD12O,1.801600X1.801600*%
%ADD13RoundRect,0.050800X-0.850000X-0.850000X0.850000X-0.850000X0.850000X0.850000X-0.850000X0.850000X0*%
%ADD14O,2.001600X1.301600*%
%ADD15C,1.551600*%
%ADD16RoundRect,0.050800X0.800000X-0.800000X0.800000X0.800000X-0.800000X0.800000X-0.800000X-0.800000X0*%
%ADD17O,1.701600X1.701600*%
%ADD18C,1.801600*%
%ADD19C,3.911600*%
G04 APERTURE END LIST*
D10*
%TO.C,H5*%
X80010000Y-5000D03*
%TD*%
D11*
%TO.C,H1*%
X8890000Y78105000D03*
D12*
X8890000Y80645000D03*
X11430000Y78105000D03*
X11430000Y80655000D03*
X13970000Y78105000D03*
X13970000Y80655000D03*
X16510000Y78105000D03*
X16510000Y80655000D03*
X19050000Y78105000D03*
X19050000Y80655000D03*
X21590000Y78105000D03*
X21590000Y80655000D03*
X24130000Y78105000D03*
X24130000Y80655000D03*
X26670000Y78105000D03*
X26670000Y80655000D03*
X29210000Y78105000D03*
X29210000Y80655000D03*
X31750000Y78105000D03*
X31750000Y80655000D03*
X34290000Y78105000D03*
X34290000Y80655000D03*
X36830000Y78105000D03*
X36830000Y80655000D03*
X39370000Y78105000D03*
X39370000Y80655000D03*
X41910000Y78105000D03*
X41910000Y80655000D03*
X44450000Y78105000D03*
X44450000Y80655000D03*
X46990000Y78105000D03*
X46990000Y80655000D03*
X49530000Y78105000D03*
X49530000Y80655000D03*
X52070000Y78105000D03*
X52070000Y80655000D03*
X54610000Y78105000D03*
X54610000Y80655000D03*
X57150000Y78105000D03*
X57150000Y80655000D03*
X59690000Y78105000D03*
X59690000Y80655000D03*
X62230000Y78105000D03*
X62230000Y80655000D03*
X64770000Y78105000D03*
X64770000Y80655000D03*
X67310000Y78105000D03*
X67310000Y80655000D03*
X69850000Y78105000D03*
X69850000Y80655000D03*
X72390000Y78105000D03*
X72390000Y80655000D03*
%TD*%
D10*
%TO.C,H3*%
X3810000Y85725000D03*
%TD*%
D13*
%TO.C,J1*%
X80010000Y45715000D03*
D12*
X80010000Y43175000D03*
X80010000Y40635000D03*
X80010000Y38095000D03*
X80010000Y35555000D03*
X80010000Y33015000D03*
X80010000Y30475000D03*
X80010000Y27935000D03*
%TD*%
D10*
%TO.C,H6*%
X0Y0D03*
%TD*%
D14*
%TO.C,J2*%
X-3530600Y61915000D03*
D15*
X-830600Y60915000D03*
X-830600Y55915000D03*
D14*
X-3530600Y54915000D03*
%TD*%
D13*
%TO.C,J3*%
X80010000Y22855000D03*
D12*
X80010000Y20315000D03*
%TD*%
D10*
%TO.C,H4*%
X77470000Y85725000D03*
%TD*%
D16*
%TO.C,U4*%
X60208000Y-2789000D03*
D17*
X62748000Y-2789000D03*
X65288000Y-2789000D03*
X67828000Y-2789000D03*
X67828000Y4831000D03*
X65288000Y4831000D03*
X62748000Y4831000D03*
X60208000Y4831000D03*
%TD*%
D18*
%TO.C,U2*%
X46831000Y14632000D03*
X44291000Y14632000D03*
X41751000Y14632000D03*
X39211000Y14632000D03*
X36671000Y14632000D03*
X34131000Y14632000D03*
X34131000Y1932000D03*
X36671000Y1932000D03*
X39211000Y1932000D03*
X41751000Y1932000D03*
X44291000Y1932000D03*
X46831000Y1932000D03*
D19*
X30321000Y14632000D03*
X30321000Y1932000D03*
X50641000Y14632000D03*
X50641000Y1932000D03*
%TD*%
D13*
%TO.C,J4*%
X77470000Y15235000D03*
D12*
X80010000Y15235000D03*
X77470000Y12695000D03*
X80010000Y12695000D03*
X77470000Y10155000D03*
X80010000Y10155000D03*
%TD*%
D11*
%TO.C,H2*%
X8890000Y83185000D03*
D12*
X8890000Y85725000D03*
X11430000Y83185000D03*
X11430000Y85735000D03*
X13970000Y83185000D03*
X13970000Y85735000D03*
X16510000Y83185000D03*
X16510000Y85735000D03*
X19050000Y83185000D03*
X19050000Y85735000D03*
X21590000Y83185000D03*
X21590000Y85735000D03*
X24130000Y83185000D03*
X24130000Y85735000D03*
X26670000Y83185000D03*
X26670000Y85735000D03*
X29210000Y83185000D03*
X29210000Y85735000D03*
X31750000Y83185000D03*
X31750000Y85735000D03*
X34290000Y83185000D03*
X34290000Y85735000D03*
X36830000Y83185000D03*
X36830000Y85735000D03*
X39370000Y83185000D03*
X39370000Y85735000D03*
X41910000Y83185000D03*
X41910000Y85735000D03*
X44450000Y83185000D03*
X44450000Y85735000D03*
X46990000Y83185000D03*
X46990000Y85735000D03*
X49530000Y83185000D03*
X49530000Y85735000D03*
X52070000Y83185000D03*
X52070000Y85735000D03*
X54610000Y83185000D03*
X54610000Y85735000D03*
X57150000Y83185000D03*
X57150000Y85735000D03*
X59690000Y83185000D03*
X59690000Y85735000D03*
X62230000Y83185000D03*
X62230000Y85735000D03*
X64770000Y83185000D03*
X64770000Y85735000D03*
X67310000Y83185000D03*
X67310000Y85735000D03*
X69850000Y83185000D03*
X69850000Y85735000D03*
X72390000Y83185000D03*
X72390000Y85735000D03*
%TD*%
M02*
