%TF.GenerationSoftware,KiCad,Pcbnew,8.0.1*%
%TF.CreationDate,2024-05-29T09:56:21-04:00*%
%TF.ProjectId,Avionics_Board,4176696f-6e69-4637-935f-426f6172642e,rev?*%
%TF.SameCoordinates,PX40311b0PY93281e8*%
%TF.FileFunction,Copper,L1,Top*%
%TF.FilePolarity,Positive*%
%FSLAX46Y46*%
G04 Gerber Fmt 4.6, Leading zero omitted, Abs format (unit mm)*
G04 Created by KiCad (PCBNEW 8.0.1) date 2024-05-29 09:56:21*
%MOMM*%
%LPD*%
G01*
G04 APERTURE LIST*
G04 Aperture macros list*
%AMRoundRect*
0 Rectangle with rounded corners*
0 $1 Rounding radius*
0 $2 $3 $4 $5 $6 $7 $8 $9 X,Y pos of 4 corners*
0 Add a 4 corners polygon primitive as box body*
4,1,4,$2,$3,$4,$5,$6,$7,$8,$9,$2,$3,0*
0 Add four circle primitives for the rounded corners*
1,1,$1+$1,$2,$3*
1,1,$1+$1,$4,$5*
1,1,$1+$1,$6,$7*
1,1,$1+$1,$8,$9*
0 Add four rect primitives between the rounded corners*
20,1,$1+$1,$2,$3,$4,$5,0*
20,1,$1+$1,$4,$5,$6,$7,0*
20,1,$1+$1,$6,$7,$8,$9,0*
20,1,$1+$1,$8,$9,$2,$3,0*%
%AMFreePoly0*
4,1,19,0.500000,-0.750000,0.000000,-0.750000,0.000000,-0.744911,-0.071157,-0.744911,-0.207708,-0.704816,-0.327430,-0.627875,-0.420627,-0.520320,-0.479746,-0.390866,-0.500000,-0.250000,-0.500000,0.250000,-0.479746,0.390866,-0.420627,0.520320,-0.327430,0.627875,-0.207708,0.704816,-0.071157,0.744911,0.000000,0.744911,0.000000,0.750000,0.500000,0.750000,0.500000,-0.750000,0.500000,-0.750000,
$1*%
%AMFreePoly1*
4,1,19,0.000000,0.744911,0.071157,0.744911,0.207708,0.704816,0.327430,0.627875,0.420627,0.520320,0.479746,0.390866,0.500000,0.250000,0.500000,-0.250000,0.479746,-0.390866,0.420627,-0.520320,0.327430,-0.627875,0.207708,-0.704816,0.071157,-0.744911,0.000000,-0.744911,0.000000,-0.750000,-0.500000,-0.750000,-0.500000,0.750000,0.000000,0.750000,0.000000,0.744911,0.000000,0.744911,
$1*%
%AMFreePoly2*
4,1,6,1.000000,0.000000,0.500000,-0.750000,-0.500000,-0.750000,-0.500000,0.750000,0.500000,0.750000,1.000000,0.000000,1.000000,0.000000,$1*%
%AMFreePoly3*
4,1,6,0.500000,-0.750000,-0.650000,-0.750000,-0.150000,0.000000,-0.650000,0.750000,0.500000,0.750000,0.500000,-0.750000,0.500000,-0.750000,$1*%
G04 Aperture macros list end*
%ADD10C,0.127000*%
%TA.AperFunction,NonConductor*%
%ADD11C,0.127000*%
%TD*%
%TA.AperFunction,EtchedComponent*%
%ADD12C,0.000000*%
%TD*%
%TA.AperFunction,SMDPad,CuDef*%
%ADD13FreePoly0,90.000000*%
%TD*%
%TA.AperFunction,SMDPad,CuDef*%
%ADD14FreePoly1,90.000000*%
%TD*%
%TA.AperFunction,ComponentPad*%
%ADD15C,6.400000*%
%TD*%
%TA.AperFunction,SMDPad,CuDef*%
%ADD16RoundRect,0.200000X0.200000X0.275000X-0.200000X0.275000X-0.200000X-0.275000X0.200000X-0.275000X0*%
%TD*%
%TA.AperFunction,SMDPad,CuDef*%
%ADD17RoundRect,0.225000X-0.250000X0.225000X-0.250000X-0.225000X0.250000X-0.225000X0.250000X0.225000X0*%
%TD*%
%TA.AperFunction,SMDPad,CuDef*%
%ADD18RoundRect,0.150000X-0.512500X-0.150000X0.512500X-0.150000X0.512500X0.150000X-0.512500X0.150000X0*%
%TD*%
%TA.AperFunction,ComponentPad*%
%ADD19R,1.700000X1.700000*%
%TD*%
%TA.AperFunction,ComponentPad*%
%ADD20O,1.700000X1.700000*%
%TD*%
%TA.AperFunction,SMDPad,CuDef*%
%ADD21R,3.800000X2.000000*%
%TD*%
%TA.AperFunction,SMDPad,CuDef*%
%ADD22R,0.650000X0.400000*%
%TD*%
%TA.AperFunction,SMDPad,CuDef*%
%ADD23RoundRect,0.218750X-0.256250X0.218750X-0.256250X-0.218750X0.256250X-0.218750X0.256250X0.218750X0*%
%TD*%
%TA.AperFunction,SMDPad,CuDef*%
%ADD24R,1.800000X1.000000*%
%TD*%
%TA.AperFunction,SMDPad,CuDef*%
%ADD25RoundRect,0.200000X0.275000X-0.200000X0.275000X0.200000X-0.275000X0.200000X-0.275000X-0.200000X0*%
%TD*%
%TA.AperFunction,SMDPad,CuDef*%
%ADD26R,2.000000X2.000000*%
%TD*%
%TA.AperFunction,SMDPad,CuDef*%
%ADD27RoundRect,0.200000X-0.275000X0.200000X-0.275000X-0.200000X0.275000X-0.200000X0.275000X0.200000X0*%
%TD*%
%TA.AperFunction,SMDPad,CuDef*%
%ADD28RoundRect,0.075000X-0.662500X-0.075000X0.662500X-0.075000X0.662500X0.075000X-0.662500X0.075000X0*%
%TD*%
%TA.AperFunction,SMDPad,CuDef*%
%ADD29RoundRect,0.075000X-0.075000X-0.662500X0.075000X-0.662500X0.075000X0.662500X-0.075000X0.662500X0*%
%TD*%
%TA.AperFunction,SMDPad,CuDef*%
%ADD30RoundRect,0.150000X-0.825000X-0.150000X0.825000X-0.150000X0.825000X0.150000X-0.825000X0.150000X0*%
%TD*%
%TA.AperFunction,SMDPad,CuDef*%
%ADD31RoundRect,0.225000X0.250000X-0.225000X0.250000X0.225000X-0.250000X0.225000X-0.250000X-0.225000X0*%
%TD*%
%TA.AperFunction,SMDPad,CuDef*%
%ADD32RoundRect,0.225000X0.225000X0.250000X-0.225000X0.250000X-0.225000X-0.250000X0.225000X-0.250000X0*%
%TD*%
%TA.AperFunction,SMDPad,CuDef*%
%ADD33RoundRect,0.218750X0.218750X0.256250X-0.218750X0.256250X-0.218750X-0.256250X0.218750X-0.256250X0*%
%TD*%
%TA.AperFunction,SMDPad,CuDef*%
%ADD34C,1.500000*%
%TD*%
%TA.AperFunction,SMDPad,CuDef*%
%ADD35RoundRect,0.150000X-0.650000X-0.150000X0.650000X-0.150000X0.650000X0.150000X-0.650000X0.150000X0*%
%TD*%
%TA.AperFunction,SMDPad,CuDef*%
%ADD36RoundRect,0.225000X-0.225000X-0.250000X0.225000X-0.250000X0.225000X0.250000X-0.225000X0.250000X0*%
%TD*%
%TA.AperFunction,SMDPad,CuDef*%
%ADD37RoundRect,0.250000X0.325000X0.650000X-0.325000X0.650000X-0.325000X-0.650000X0.325000X-0.650000X0*%
%TD*%
%TA.AperFunction,SMDPad,CuDef*%
%ADD38RoundRect,0.200000X-0.200000X-0.275000X0.200000X-0.275000X0.200000X0.275000X-0.200000X0.275000X0*%
%TD*%
%TA.AperFunction,SMDPad,CuDef*%
%ADD39R,2.000000X1.500000*%
%TD*%
%TA.AperFunction,SMDPad,CuDef*%
%ADD40R,2.000000X3.800000*%
%TD*%
%TA.AperFunction,SMDPad,CuDef*%
%ADD41RoundRect,0.200000X-0.600000X0.200000X-0.600000X-0.200000X0.600000X-0.200000X0.600000X0.200000X0*%
%TD*%
%TA.AperFunction,SMDPad,CuDef*%
%ADD42RoundRect,0.250001X-1.249999X0.799999X-1.249999X-0.799999X1.249999X-0.799999X1.249999X0.799999X0*%
%TD*%
%TA.AperFunction,SMDPad,CuDef*%
%ADD43R,1.350000X0.400000*%
%TD*%
%TA.AperFunction,ComponentPad*%
%ADD44O,1.900000X1.200000*%
%TD*%
%TA.AperFunction,SMDPad,CuDef*%
%ADD45R,1.900000X1.200000*%
%TD*%
%TA.AperFunction,ComponentPad*%
%ADD46C,1.450000*%
%TD*%
%TA.AperFunction,SMDPad,CuDef*%
%ADD47R,1.900000X1.500000*%
%TD*%
%TA.AperFunction,SMDPad,CuDef*%
%ADD48RoundRect,0.243750X-0.243750X-0.456250X0.243750X-0.456250X0.243750X0.456250X-0.243750X0.456250X0*%
%TD*%
%TA.AperFunction,SMDPad,CuDef*%
%ADD49RoundRect,0.100000X0.100000X-0.637500X0.100000X0.637500X-0.100000X0.637500X-0.100000X-0.637500X0*%
%TD*%
%TA.AperFunction,SMDPad,CuDef*%
%ADD50RoundRect,0.250000X-0.325000X-0.650000X0.325000X-0.650000X0.325000X0.650000X-0.325000X0.650000X0*%
%TD*%
%TA.AperFunction,SMDPad,CuDef*%
%ADD51FreePoly0,270.000000*%
%TD*%
%TA.AperFunction,SMDPad,CuDef*%
%ADD52FreePoly1,270.000000*%
%TD*%
%TA.AperFunction,SMDPad,CuDef*%
%ADD53R,2.400000X0.740000*%
%TD*%
%TA.AperFunction,SMDPad,CuDef*%
%ADD54RoundRect,0.249999X2.450001X-0.737501X2.450001X0.737501X-2.450001X0.737501X-2.450001X-0.737501X0*%
%TD*%
%TA.AperFunction,SMDPad,CuDef*%
%ADD55RoundRect,0.150000X0.150000X-0.512500X0.150000X0.512500X-0.150000X0.512500X-0.150000X-0.512500X0*%
%TD*%
%TA.AperFunction,ComponentPad*%
%ADD56R,1.600000X1.600000*%
%TD*%
%TA.AperFunction,ComponentPad*%
%ADD57O,1.600000X1.600000*%
%TD*%
%TA.AperFunction,ComponentPad*%
%ADD58C,1.700000*%
%TD*%
%TA.AperFunction,ComponentPad*%
%ADD59C,3.810000*%
%TD*%
%TA.AperFunction,SMDPad,CuDef*%
%ADD60RoundRect,0.218750X-0.218750X-0.256250X0.218750X-0.256250X0.218750X0.256250X-0.218750X0.256250X0*%
%TD*%
%TA.AperFunction,SMDPad,CuDef*%
%ADD61RoundRect,0.249999X0.737501X2.450001X-0.737501X2.450001X-0.737501X-2.450001X0.737501X-2.450001X0*%
%TD*%
%TA.AperFunction,SMDPad,CuDef*%
%ADD62FreePoly2,270.000000*%
%TD*%
%TA.AperFunction,SMDPad,CuDef*%
%ADD63FreePoly3,270.000000*%
%TD*%
%TA.AperFunction,ViaPad*%
%ADD64C,0.508000*%
%TD*%
%TA.AperFunction,Conductor*%
%ADD65C,0.254000*%
%TD*%
%TA.AperFunction,Conductor*%
%ADD66C,0.508000*%
%TD*%
%TA.AperFunction,Conductor*%
%ADD67C,0.800000*%
%TD*%
G04 APERTURE END LIST*
D10*
D11*
G36*
X77515429Y62235399D02*
G01*
X77515429Y61854239D01*
X77373983Y61854239D01*
X77373983Y61473079D01*
X76949273Y61473079D01*
X76949273Y62365305D01*
X76954704Y62453370D01*
X76970996Y62535547D01*
X76998149Y62611834D01*
X77036164Y62682233D01*
X77085041Y62746743D01*
X77103747Y62766937D01*
X77164488Y62821079D01*
X77230856Y62864019D01*
X77302851Y62895757D01*
X77380474Y62916293D01*
X77463723Y62925628D01*
X77492723Y62926250D01*
X77571387Y62921143D01*
X77645925Y62905821D01*
X77716337Y62880285D01*
X77782623Y62844535D01*
X77844784Y62798570D01*
X77902819Y62742391D01*
X77924878Y62717059D01*
X77576102Y62465062D01*
X77532147Y62527506D01*
X77472251Y62545091D01*
X77401717Y62515647D01*
X77375518Y62442496D01*
X77373983Y62411089D01*
X77373983Y62235399D01*
X77515429Y62235399D01*
G37*
G36*
X78367827Y62902428D02*
G01*
X78367827Y61473079D01*
X77976617Y61473079D01*
X77976617Y62902428D01*
X78367827Y62902428D01*
G37*
G36*
X78985722Y62521268D02*
G01*
X78985722Y61473079D01*
X78594512Y61473079D01*
X78594512Y62521268D01*
X78985722Y62521268D01*
G37*
G36*
X78791048Y62997718D02*
G01*
X78865307Y62983480D01*
X78928771Y62940767D01*
X78972322Y62878605D01*
X78986839Y62806021D01*
X78973066Y62730459D01*
X78931749Y62669786D01*
X78864788Y62628254D01*
X78791048Y62616558D01*
X78717226Y62628254D01*
X78649974Y62669786D01*
X78607280Y62734746D01*
X78595257Y62806021D01*
X78611645Y62882796D01*
X78653324Y62940767D01*
X78716789Y62983480D01*
X78791048Y62997718D01*
G37*
G36*
X79769258Y61905234D02*
G01*
X79769258Y61544547D01*
X79696424Y61528262D01*
X79621550Y61520934D01*
X79606967Y61520724D01*
X79526856Y61527564D01*
X79452301Y61548083D01*
X79383304Y61582281D01*
X79319865Y61630159D01*
X79286108Y61663659D01*
X79234910Y61729402D01*
X79196287Y61801236D01*
X79170239Y61879162D01*
X79156766Y61963179D01*
X79154713Y62013924D01*
X79160261Y62095354D01*
X79176907Y62171864D01*
X79204649Y62243454D01*
X79243488Y62310123D01*
X79293425Y62371872D01*
X79312536Y62391361D01*
X79374399Y62443605D01*
X79441338Y62485040D01*
X79513355Y62515666D01*
X79590450Y62535483D01*
X79672622Y62544490D01*
X79701140Y62545091D01*
X79776662Y62540256D01*
X79850147Y62525752D01*
X79921597Y62501579D01*
X79935643Y62495585D01*
X80006953Y62457547D01*
X80066826Y62411504D01*
X80111334Y62362700D01*
X80152959Y62296334D01*
X80184361Y62218070D01*
X80203140Y62141516D01*
X80214407Y62056221D01*
X80218058Y61978464D01*
X80218163Y61962185D01*
X80218163Y61617131D01*
X80214291Y61533366D01*
X80202677Y61454689D01*
X80183321Y61381102D01*
X80149873Y61299515D01*
X80105275Y61225255D01*
X80059594Y61168971D01*
X79996768Y61110402D01*
X79927215Y61063951D01*
X79850937Y61029617D01*
X79767932Y61007401D01*
X79693623Y60998145D01*
X79646795Y60996630D01*
X79571213Y61003470D01*
X79493953Y61020220D01*
X79451005Y61032364D01*
X79451005Y61384117D01*
X79523032Y61362476D01*
X79600944Y61353997D01*
X79605851Y61353967D01*
X79683997Y61364963D01*
X79750154Y61401401D01*
X79769258Y61420596D01*
X79808698Y61489613D01*
X79824925Y61566350D01*
X79826953Y61610803D01*
X79826953Y62004991D01*
X79816441Y62081822D01*
X79769724Y62145150D01*
X79694068Y62163931D01*
X79620044Y62143164D01*
X79595056Y62123731D01*
X79555979Y62059597D01*
X79552622Y62031046D01*
X79575235Y61958323D01*
X79592823Y61938734D01*
X79660802Y61904799D01*
X79692951Y61901884D01*
X79769258Y61905234D01*
G37*
G36*
X80833452Y62902428D02*
G01*
X80833452Y62469529D01*
X80901779Y62512549D01*
X80976317Y62539114D01*
X81032221Y62545091D01*
X81112252Y62536375D01*
X81182331Y62510229D01*
X81248525Y62460735D01*
X81271562Y62434912D01*
X81314387Y62367021D01*
X81340687Y62296391D01*
X81355913Y62216084D01*
X81360152Y62137875D01*
X81360152Y61473079D01*
X80968570Y61473079D01*
X80968570Y62026952D01*
X80964095Y62101399D01*
X80954426Y62136014D01*
X80899336Y62163931D01*
X80841237Y62111832D01*
X80833452Y62042958D01*
X80833452Y61473079D01*
X80442243Y61473079D01*
X80442243Y62902428D01*
X80833452Y62902428D01*
G37*
G36*
X81931147Y62902428D02*
G01*
X81931147Y62497446D01*
X82107210Y62497446D01*
X82107210Y62092464D01*
X81931147Y62092464D01*
X81935765Y62015416D01*
X81956948Y61939980D01*
X81970231Y61919379D01*
X82035229Y61881154D01*
X82114282Y61872106D01*
X82114282Y61458935D01*
X82069243Y61473079D01*
X81987644Y61478968D01*
X81908953Y61496634D01*
X81833170Y61526078D01*
X81818363Y61533380D01*
X81749392Y61575481D01*
X81689508Y61625942D01*
X81638713Y61684764D01*
X81629644Y61697532D01*
X81590234Y61768999D01*
X81564988Y61840388D01*
X81548362Y61920042D01*
X81540973Y61994894D01*
X81539565Y62048169D01*
X81539565Y62902428D01*
X81931147Y62902428D01*
G37*
D12*
%TA.AperFunction,EtchedComponent*%
%TO.C,JP8*%
G36*
X16619426Y63413460D02*
G01*
X16019426Y63413460D01*
X16019426Y63913460D01*
X16619426Y63913460D01*
X16619426Y63413460D01*
G37*
%TD.AperFunction*%
%TA.AperFunction,EtchedComponent*%
%TO.C,JP10*%
G36*
X13952426Y63428460D02*
G01*
X13352426Y63428460D01*
X13352426Y63928460D01*
X13952426Y63928460D01*
X13952426Y63428460D01*
G37*
%TD.AperFunction*%
%TD*%
D13*
%TO.P,JP2,1,A*%
%TO.N,/SDA_EXT*%
X52070000Y73005000D03*
D14*
%TO.P,JP2,2,B*%
%TO.N,/Radio_SDA*%
X52070000Y74305000D03*
%TD*%
D15*
%TO.P,H5,1,1*%
%TO.N,GND*%
X80010000Y-5000D03*
%TD*%
D16*
%TO.P,R14,1*%
%TO.N,Net-(JP10-B)*%
X28511000Y69845000D03*
%TO.P,R14,2*%
%TO.N,Net-(U7-EN)*%
X26861000Y69845000D03*
%TD*%
D17*
%TO.P,C18,1*%
%TO.N,+3V3*%
X60960000Y23254000D03*
%TO.P,C18,2*%
%TO.N,GND*%
X60960000Y21704000D03*
%TD*%
D18*
%TO.P,U24,1,NC*%
%TO.N,unconnected-(U24-NC-Pad1)*%
X24770500Y37521000D03*
%TO.P,U24,2,A*%
%TO.N,/STATES_C_Int*%
X24770500Y36571000D03*
%TO.P,U24,3,GND*%
%TO.N,GND*%
X24770500Y35621000D03*
%TO.P,U24,4,y*%
%TO.N,/STATES_C*%
X27045500Y35621000D03*
%TO.P,U24,5,Vcc*%
%TO.N,+3V3*%
X27045500Y37521000D03*
%TD*%
D19*
%TO.P,H1,1,Pin_1*%
%TO.N,unconnected-(H1-Pin_1-Pad1)*%
X8890000Y78105000D03*
D20*
%TO.P,H1,2,Pin_2*%
%TO.N,unconnected-(H1-Pin_2-Pad2)*%
X8890000Y80645000D03*
%TO.P,H1,3,Pin_3*%
%TO.N,GND*%
X11430000Y78105000D03*
%TO.P,H1,4,Pin_4*%
%TO.N,unconnected-(H1-Pin_4-Pad4)*%
X11430000Y80655000D03*
%TO.P,H1,5,Pin_5*%
%TO.N,/PAYLOAD_RXD+*%
X13970000Y78105000D03*
%TO.P,H1,6,Pin_6*%
%TO.N,/PAYLOAD_TXD+*%
X13970000Y80655000D03*
%TO.P,H1,7,Pin_7*%
%TO.N,/PAYLOAD_RXD-*%
X16510000Y78105000D03*
%TO.P,H1,8,Pin_8*%
%TO.N,/PAYLOAD_TXD-*%
X16510000Y80655000D03*
%TO.P,H1,9,Pin_9*%
%TO.N,/RADIO_RXD+*%
X19050000Y78105000D03*
%TO.P,H1,10,Pin_10*%
%TO.N,/RADIO_TXD+*%
X19050000Y80655000D03*
%TO.P,H1,11,Pin_11*%
%TO.N,/RADIO_RXD-*%
X21590000Y78105000D03*
%TO.P,H1,12,Pin_12*%
%TO.N,/RADIO_TXD-*%
X21590000Y80655000D03*
%TO.P,H1,13,Pin_13*%
%TO.N,GND*%
X24130000Y78105000D03*
%TO.P,H1,14,Pin_14*%
%TO.N,unconnected-(H1-Pin_14-Pad14)*%
X24130000Y80655000D03*
%TO.P,H1,15,Pin_15*%
%TO.N,unconnected-(H1-Pin_15-Pad15)*%
X26670000Y78105000D03*
%TO.P,H1,16,Pin_16*%
%TO.N,unconnected-(H1-Pin_16-Pad16)*%
X26670000Y80655000D03*
%TO.P,H1,17,Pin_17*%
%TO.N,unconnected-(H1-Pin_17-Pad17)*%
X29210000Y78105000D03*
%TO.P,H1,18,Pin_18*%
%TO.N,unconnected-(H1-Pin_18-Pad18)*%
X29210000Y80655000D03*
%TO.P,H1,19,Pin_19*%
%TO.N,unconnected-(H1-Pin_19-Pad19)*%
X31750000Y78105000D03*
%TO.P,H1,20,Pin_20*%
%TO.N,unconnected-(H1-Pin_20-Pad20)*%
X31750000Y80655000D03*
%TO.P,H1,21,Pin_21*%
%TO.N,unconnected-(H1-Pin_21-Pad21)*%
X34290000Y78105000D03*
%TO.P,H1,22,Pin_22*%
%TO.N,unconnected-(H1-Pin_22-Pad22)*%
X34290000Y80655000D03*
%TO.P,H1,23,Pin_23*%
%TO.N,unconnected-(H1-Pin_23-Pad23)*%
X36830000Y78105000D03*
%TO.P,H1,24,Pin_24*%
%TO.N,unconnected-(H1-Pin_24-Pad24)*%
X36830000Y80655000D03*
%TO.P,H1,25,Pin_25*%
%TO.N,unconnected-(H1-Pin_25-Pad25)*%
X39370000Y78105000D03*
%TO.P,H1,26,Pin_26*%
%TO.N,unconnected-(H1-Pin_26-Pad26)*%
X39370000Y80655000D03*
%TO.P,H1,27,Pin_27*%
%TO.N,unconnected-(H1-Pin_27-Pad27)*%
X41910000Y78105000D03*
%TO.P,H1,28,Pin_28*%
%TO.N,/EPS_RESET*%
X41910000Y80655000D03*
%TO.P,H1,29,Pin_29*%
%TO.N,unconnected-(H1-Pin_29-Pad29)*%
X44450000Y78105000D03*
%TO.P,H1,30,Pin_30*%
%TO.N,/V_RTC*%
X44450000Y80655000D03*
%TO.P,H1,31,Pin_31*%
%TO.N,unconnected-(H1-Pin_31-Pad31)*%
X46990000Y78105000D03*
%TO.P,H1,32,Pin_32*%
%TO.N,/EPS_5V_USB*%
X46990000Y80655000D03*
%TO.P,H1,33,Pin_33*%
%TO.N,unconnected-(H1-Pin_33-Pad33)*%
X49530000Y78105000D03*
%TO.P,H1,34,Pin_34*%
%TO.N,unconnected-(H1-Pin_34-Pad34)*%
X49530000Y80655000D03*
%TO.P,H1,35,Pin_35*%
%TO.N,unconnected-(H1-Pin_35-Pad35)*%
X52070000Y78105000D03*
%TO.P,H1,36,Pin_36*%
%TO.N,unconnected-(H1-Pin_36-Pad36)*%
X52070000Y80655000D03*
%TO.P,H1,37,Pin_37*%
%TO.N,/Radio_SDA*%
X54610000Y78105000D03*
%TO.P,H1,38,Pin_38*%
%TO.N,GND*%
X54610000Y80655000D03*
%TO.P,H1,39,Pin_39*%
%TO.N,/Radio_SCLK*%
X57150000Y78105000D03*
%TO.P,H1,40,Pin_40*%
%TO.N,unconnected-(H1-Pin_40-Pad40)*%
X57150000Y80655000D03*
%TO.P,H1,41,Pin_41*%
%TO.N,/Power_SDA*%
X59690000Y78105000D03*
%TO.P,H1,42,Pin_42*%
%TO.N,GND*%
X59690000Y80655000D03*
%TO.P,H1,43,Pin_43*%
%TO.N,/Power_SCLK*%
X62230000Y78105000D03*
%TO.P,H1,44,Pin_44*%
%TO.N,unconnected-(H1-Pin_44-Pad44)*%
X62230000Y80655000D03*
%TO.P,H1,45,Pin_45*%
%TO.N,/PLD_SDA*%
X64770000Y78105000D03*
%TO.P,H1,46,Pin_46*%
%TO.N,GND*%
X64770000Y80655000D03*
%TO.P,H1,47,Pin_47*%
%TO.N,/PLD_SCLK*%
X67310000Y78105000D03*
%TO.P,H1,48,Pin_48*%
%TO.N,unconnected-(H1-Pin_48-Pad48)*%
X67310000Y80655000D03*
%TO.P,H1,49,Pin_49*%
%TO.N,unconnected-(H1-Pin_49-Pad49)*%
X69850000Y78105000D03*
%TO.P,H1,50,Pin_50*%
%TO.N,GND*%
X69850000Y80655000D03*
%TO.P,H1,51,Pin_51*%
%TO.N,unconnected-(H1-Pin_51-Pad51)*%
X72390000Y78105000D03*
%TO.P,H1,52,Pin_52*%
%TO.N,unconnected-(H1-Pin_52-Pad52)*%
X72390000Y80655000D03*
%TD*%
D21*
%TO.P,TP17,1,1*%
%TO.N,GND*%
X73533000Y-2032001D03*
%TD*%
D22*
%TO.P,U13,1,NC*%
%TO.N,unconnected-(U13-NC-Pad1)*%
X16068000Y40523000D03*
%TO.P,U13,2,A*%
%TO.N,/STATES_B_Int*%
X16068000Y39873000D03*
%TO.P,U13,3,GND*%
%TO.N,GND*%
X16068000Y39223000D03*
%TO.P,U13,4,y*%
%TO.N,/STATES_B*%
X17968000Y39223000D03*
%TO.P,U13,5,Vcc*%
%TO.N,+3V3*%
X17968000Y40523000D03*
%TD*%
D16*
%TO.P,R7,1*%
%TO.N,Net-(U1-A2)*%
X35877000Y22093000D03*
%TO.P,R7,2*%
%TO.N,GND*%
X34227000Y22093000D03*
%TD*%
D23*
%TO.P,D1,1,K*%
%TO.N,/PAYLOAD_RXD*%
X-2984574Y9220960D03*
%TO.P,D1,2,A*%
%TO.N,Net-(D1-A)*%
X-2984574Y7645960D03*
%TD*%
D16*
%TO.P,R11,1*%
%TO.N,+3V3*%
X70421000Y9017000D03*
%TO.P,R11,2*%
%TO.N,/SCL_CRIT*%
X68771000Y9017000D03*
%TD*%
D24*
%TO.P,Y1,1,1*%
%TO.N,Net-(U3-X1)*%
X56642000Y12675000D03*
%TO.P,Y1,2,2*%
%TO.N,Net-(U3-X2)*%
X56642000Y10175000D03*
%TD*%
D25*
%TO.P,R23,1*%
%TO.N,Net-(U9-~{RESET})*%
X62230000Y38164000D03*
%TO.P,R23,2*%
%TO.N,/~{RESET}*%
X62230000Y39814000D03*
%TD*%
D26*
%TO.P,TP6,1,1*%
%TO.N,/GPIO13*%
X13716000Y-2545000D03*
%TD*%
D27*
%TO.P,R35,1*%
%TO.N,/STATES_A_Int*%
X29337000Y45909999D03*
%TO.P,R35,2*%
%TO.N,+3V3*%
X29337000Y44259999D03*
%TD*%
D18*
%TO.P,U7,1,EN*%
%TO.N,Net-(U7-EN)*%
X16388500Y72573000D03*
%TO.P,U7,2,GND*%
%TO.N,GND*%
X16388500Y71623000D03*
%TO.P,U7,3,IN2*%
%TO.N,/3V3_USB*%
X16388500Y70673000D03*
%TO.P,U7,4,OUT*%
%TO.N,+3V3*%
X18663500Y70673000D03*
%TO.P,U7,5,IN1*%
%TO.N,Net-(U6-VOUT)*%
X18663500Y72573000D03*
%TD*%
D17*
%TO.P,C32,1*%
%TO.N,/BATT_RAW*%
X21840326Y63259015D03*
%TO.P,C32,2*%
%TO.N,GND*%
X21840326Y61709015D03*
%TD*%
D22*
%TO.P,U21,1,NC*%
%TO.N,unconnected-(U21-NC-Pad1)*%
X24958000Y49667000D03*
%TO.P,U21,2,A*%
%TO.N,/STATES_A_Int*%
X24958000Y49017000D03*
%TO.P,U21,3,GND*%
%TO.N,GND*%
X24958000Y48367000D03*
%TO.P,U21,4,y*%
%TO.N,/STATES_A*%
X26858000Y48367000D03*
%TO.P,U21,5,Vcc*%
%TO.N,+3V3*%
X26858000Y49667000D03*
%TD*%
D28*
%TO.P,U9,1,PA00*%
%TO.N,/Microcontroller/X1*%
X57559500Y32717000D03*
%TO.P,U9,2,PA01*%
%TO.N,/Microcontroller/X2*%
X57559500Y32217000D03*
%TO.P,U9,3,PA02*%
%TO.N,/GPIO_A*%
X57559500Y31717000D03*
%TO.P,U9,4,PA03*%
%TO.N,/Microcontroller/AREF*%
X57559500Y31217000D03*
%TO.P,U9,5,GNDANA*%
%TO.N,GND*%
X57559500Y30717000D03*
%TO.P,U9,6,VDDANA*%
%TO.N,Net-(U9-VDDANA)*%
X57559500Y30217000D03*
%TO.P,U9,7,PB08*%
%TO.N,/GPIO13*%
X57559500Y29717000D03*
%TO.P,U9,8,PB09*%
%TO.N,/GPIO12*%
X57559500Y29217000D03*
%TO.P,U9,9,PA04*%
%TO.N,/PLD_ON_A_Int*%
X57559500Y28717000D03*
%TO.P,U9,10,PA05*%
%TO.N,/PLD_ON_B_Int*%
X57559500Y28217000D03*
%TO.P,U9,11,PA06*%
%TO.N,/PLD_ON_C_Int*%
X57559500Y27717000D03*
%TO.P,U9,12,PA07*%
%TO.N,/STATES_A_Int*%
X57559500Y27217000D03*
D29*
%TO.P,U9,13,PA08*%
%TO.N,/SDA_NON_CRIT*%
X58972000Y25804500D03*
%TO.P,U9,14,PA09*%
%TO.N,/SCL_NON_CRIT*%
X59472000Y25804500D03*
%TO.P,U9,15,PA10*%
%TO.N,/PAYLOAD_TXD*%
X59972000Y25804500D03*
%TO.P,U9,16,PA11*%
%TO.N,/PAYLOAD_RXD*%
X60472000Y25804500D03*
%TO.P,U9,17,VDDIO*%
%TO.N,+3V3*%
X60972000Y25804500D03*
%TO.P,U9,18,GND*%
%TO.N,GND*%
X61472000Y25804500D03*
%TO.P,U9,19,PB10*%
%TO.N,/MOSI*%
X61972000Y25804500D03*
%TO.P,U9,20,PB11*%
%TO.N,/SCK*%
X62472000Y25804500D03*
%TO.P,U9,21,PA12*%
%TO.N,/MISO*%
X62972000Y25804500D03*
%TO.P,U9,22,PA13*%
%TO.N,/EN_PAYLOAD_SERIAL*%
X63472000Y25804500D03*
%TO.P,U9,23,PA14*%
%TO.N,/STATES_B_Int*%
X63972000Y25804500D03*
%TO.P,U9,24,PA15*%
%TO.N,/STATES_C_Int*%
X64472000Y25804500D03*
D28*
%TO.P,U9,25,PA16*%
%TO.N,/RADIO_TXD*%
X65884500Y27217000D03*
%TO.P,U9,26,PA17*%
%TO.N,/RADIO_RXD*%
X65884500Y27717000D03*
%TO.P,U9,27,PA18*%
%TO.N,/EN_RADIO_SERIAL*%
X65884500Y28217000D03*
%TO.P,U9,28,PA19*%
%TO.N,/EN_EXT_I2C*%
X65884500Y28717000D03*
%TO.P,U9,29,PA20*%
%TO.N,/TXD2*%
X65884500Y29217000D03*
%TO.P,U9,30,PA21*%
%TO.N,/RXD2*%
X65884500Y29717000D03*
%TO.P,U9,31,PA22*%
%TO.N,/SDA_CRIT*%
X65884500Y30217000D03*
%TO.P,U9,32,PA23*%
%TO.N,/SCL_CRIT*%
X65884500Y30717000D03*
%TO.P,U9,33,PA24*%
%TO.N,/Microcontroller/USB_D-*%
X65884500Y31217000D03*
%TO.P,U9,34,PA25*%
%TO.N,/Microcontroller/USB_D+*%
X65884500Y31717000D03*
%TO.P,U9,35,GND*%
%TO.N,GND*%
X65884500Y32217000D03*
%TO.P,U9,36,VDDIO*%
%TO.N,+3V3*%
X65884500Y32717000D03*
D29*
%TO.P,U9,37,PB22*%
%TO.N,/SHUTDOWN_C*%
X64472000Y34129500D03*
%TO.P,U9,38,PB23*%
%TO.N,/WDTICK*%
X63972000Y34129500D03*
%TO.P,U9,39,PA27*%
%TO.N,/Microcontroller/TXLED*%
X63472000Y34129500D03*
%TO.P,U9,40,~{RESET}*%
%TO.N,Net-(U9-~{RESET})*%
X62972000Y34129500D03*
%TO.P,U9,41,PA28*%
%TO.N,/Microcontroller/USB_HOST_EN*%
X62472000Y34129500D03*
%TO.P,U9,42,GND*%
%TO.N,GND*%
X61972000Y34129500D03*
%TO.P,U9,43,VDDCORE*%
%TO.N,Net-(U9-VDDCORE)*%
X61472000Y34129500D03*
%TO.P,U9,44,VDDIN*%
%TO.N,+3V3*%
X60972000Y34129500D03*
%TO.P,U9,45,PA30*%
%TO.N,/Microcontroller/SWCLK*%
X60472000Y34129500D03*
%TO.P,U9,46,PA31*%
%TO.N,/Microcontroller/RX_LED_SWDIO*%
X59972000Y34129500D03*
%TO.P,U9,47,PB02*%
%TO.N,/SHUTDOWN_A*%
X59472000Y34129500D03*
%TO.P,U9,48,PB03*%
%TO.N,/SHUTDOWN_B*%
X58972000Y34129500D03*
%TD*%
D26*
%TO.P,TP12,1,1*%
%TO.N,+3V3*%
X16510000Y17907000D03*
%TD*%
D16*
%TO.P,R18,1*%
%TO.N,+3V3*%
X8890000Y12695000D03*
%TO.P,R18,2*%
%TO.N,Net-(D2-A)*%
X7240000Y12695000D03*
%TD*%
D30*
%TO.P,U3,1,X1*%
%TO.N,Net-(U3-X1)*%
X60706000Y11806000D03*
%TO.P,U3,2,X2*%
%TO.N,Net-(U3-X2)*%
X60706000Y10536000D03*
%TO.P,U3,3,VBAT*%
%TO.N,Net-(U3-VBAT)*%
X60706000Y9266000D03*
%TO.P,U3,4,GND*%
%TO.N,GND*%
X60706000Y7996000D03*
%TO.P,U3,5,SDA*%
%TO.N,/SDA_CRIT*%
X65656000Y7996000D03*
%TO.P,U3,6,SCL*%
%TO.N,/SCL_CRIT*%
X65656000Y9266000D03*
%TO.P,U3,7,SQW/OUT*%
%TO.N,Net-(U3-SQW{slash}OUT)*%
X65656000Y10536000D03*
%TO.P,U3,8,VCC*%
%TO.N,+3V3*%
X65656000Y11806000D03*
%TD*%
D21*
%TO.P,TP16,1,1*%
%TO.N,GND*%
X16764000Y24510999D03*
%TD*%
D23*
%TO.P,L3,1,1*%
%TO.N,/BATT_RAW*%
X20129426Y63271515D03*
%TO.P,L3,2,2*%
%TO.N,Net-(JP8-A)*%
X20129426Y61696515D03*
%TD*%
D22*
%TO.P,U19,1,NC*%
%TO.N,unconnected-(U19-NC-Pad1)*%
X24958000Y58811000D03*
%TO.P,U19,2,A*%
%TO.N,/PLD_ON_B_Int*%
X24958000Y58161000D03*
%TO.P,U19,3,GND*%
%TO.N,GND*%
X24958000Y57511000D03*
%TO.P,U19,4,y*%
%TO.N,/PAYLOAD_ON_B*%
X26858000Y57511000D03*
%TO.P,U19,5,Vcc*%
%TO.N,+3V3*%
X26858000Y58811000D03*
%TD*%
D16*
%TO.P,R15,1*%
%TO.N,Net-(JP10-B)*%
X28511000Y73655000D03*
%TO.P,R15,2*%
%TO.N,Net-(U6-FLAGB)*%
X26861000Y73655000D03*
%TD*%
D26*
%TO.P,TP14,1,1*%
%TO.N,/Microcontroller/X2*%
X35306000Y32639000D03*
%TD*%
D15*
%TO.P,H3,1,1*%
%TO.N,GND*%
X3810000Y85725000D03*
%TD*%
D31*
%TO.P,C21,1*%
%TO.N,+3V3*%
X70612000Y32240000D03*
%TO.P,C21,2*%
%TO.N,GND*%
X70612000Y33790000D03*
%TD*%
D26*
%TO.P,TP5,1,1*%
%TO.N,/RXD2*%
X13716000Y757000D03*
%TD*%
D32*
%TO.P,C31,1*%
%TO.N,GND*%
X29985000Y40635000D03*
%TO.P,C31,2*%
%TO.N,+3V3*%
X28435000Y40635000D03*
%TD*%
D19*
%TO.P,J1,1,Pin_1*%
%TO.N,+3V3*%
X80010000Y45715000D03*
D20*
%TO.P,J1,2,Pin_2*%
%TO.N,/SDA_NON_CRIT*%
X80010000Y43175000D03*
%TO.P,J1,3,Pin_3*%
%TO.N,/SCL_NON_CRIT*%
X80010000Y40635000D03*
%TO.P,J1,4,Pin_4*%
%TO.N,/PLD_ON_A_Int*%
X80010000Y38095000D03*
%TO.P,J1,5,Pin_5*%
%TO.N,/STATES_A_Int*%
X80010000Y35555000D03*
%TO.P,J1,6,Pin_6*%
%TO.N,/SHUTDOWN_A*%
X80010000Y33015000D03*
%TO.P,J1,7,Pin_7*%
%TO.N,/GPIO_A*%
X80010000Y30475000D03*
%TO.P,J1,8,Pin_8*%
%TO.N,GND*%
X80010000Y27935000D03*
%TD*%
D16*
%TO.P,R4,1*%
%TO.N,/GPIO12*%
X53149000Y27813000D03*
%TO.P,R4,2*%
%TO.N,+3V3*%
X51499000Y27813000D03*
%TD*%
D26*
%TO.P,TP15,1,1*%
%TO.N,/Microcontroller/AREF*%
X44450000Y31623000D03*
%TD*%
D33*
%TO.P,L1,1,1*%
%TO.N,/3V3_IN*%
X42189500Y73655000D03*
%TO.P,L1,2,2*%
%TO.N,/eFuse/3V3_IN_FILT*%
X40614500Y73655000D03*
%TD*%
D26*
%TO.P,TP8,1,1*%
%TO.N,/V_RTC*%
X20574000Y10663000D03*
%TD*%
D34*
%TO.P,FID3,*%
%TO.N,*%
X73723426Y3607460D03*
%TD*%
D16*
%TO.P,R5,1*%
%TO.N,Net-(U1-A0)*%
X35877000Y25141000D03*
%TO.P,R5,2*%
%TO.N,GND*%
X34227000Y25141000D03*
%TD*%
D17*
%TO.P,C25,1*%
%TO.N,Net-(C25-Pad1)*%
X64770000Y54364000D03*
%TO.P,C25,2*%
%TO.N,/RADIO_RXD-*%
X64770000Y52814000D03*
%TD*%
D16*
%TO.P,R27,1*%
%TO.N,Net-(U11-RE)*%
X51879000Y64511000D03*
%TO.P,R27,2*%
%TO.N,GND*%
X50229000Y64511000D03*
%TD*%
D15*
%TO.P,H6,1,1*%
%TO.N,GND*%
X0Y0D03*
%TD*%
D35*
%TO.P,U1,1,A0*%
%TO.N,Net-(U1-A0)*%
X37802000Y25014000D03*
%TO.P,U1,2,A1*%
%TO.N,Net-(U1-A1)*%
X37802000Y23744000D03*
%TO.P,U1,3,A2*%
%TO.N,Net-(U1-A2)*%
X37802000Y22474000D03*
%TO.P,U1,4,Vss*%
%TO.N,GND*%
X37802000Y21204000D03*
%TO.P,U1,5,SDA*%
%TO.N,/SDA_NON_CRIT*%
X45002000Y21204000D03*
%TO.P,U1,6,SCL*%
%TO.N,/SCL_NON_CRIT*%
X45002000Y22474000D03*
%TO.P,U1,7,WP*%
%TO.N,GND*%
X45002000Y23744000D03*
%TO.P,U1,8,Vdd*%
%TO.N,+3V3*%
X45002000Y25014000D03*
%TD*%
D25*
%TO.P,R2,1*%
%TO.N,/SHUTDOWN_B*%
X57658000Y38164000D03*
%TO.P,R2,2*%
%TO.N,+3V3*%
X57658000Y39814000D03*
%TD*%
D21*
%TO.P,TP18,1,1*%
%TO.N,GND*%
X73787000Y38353999D03*
%TD*%
D30*
%TO.P,U12,1,NC*%
%TO.N,unconnected-(U12-NC-Pad1)*%
X53913000Y56891000D03*
%TO.P,U12,2,R*%
%TO.N,/RADIO_RXD*%
X53913000Y55621000D03*
%TO.P,U12,3,RE*%
%TO.N,Net-(U12-RE)*%
X53913000Y54351000D03*
%TO.P,U12,4,DE*%
%TO.N,/EN_RADIO_SERIAL*%
X53913000Y53081000D03*
%TO.P,U12,5,D*%
%TO.N,/RADIO_TXD*%
X53913000Y51811000D03*
%TO.P,U12,6,GND*%
%TO.N,GND*%
X53913000Y50541000D03*
%TO.P,U12,7,GND*%
X53913000Y49271000D03*
%TO.P,U12,8,NC*%
%TO.N,unconnected-(U12-NC-Pad8)*%
X58863000Y49271000D03*
%TO.P,U12,9,Y*%
%TO.N,/RADIO_TXD+*%
X58863000Y50541000D03*
%TO.P,U12,10,Z*%
%TO.N,/RADIO_TXD-*%
X58863000Y51811000D03*
%TO.P,U12,11,B*%
%TO.N,/RADIO_RXD-*%
X58863000Y53081000D03*
%TO.P,U12,12,A*%
%TO.N,/RADIO_RXD+*%
X58863000Y54351000D03*
%TO.P,U12,13,Vcc*%
%TO.N,+3V3*%
X58863000Y55621000D03*
%TO.P,U12,14,Vcc*%
X58863000Y56891000D03*
%TD*%
D26*
%TO.P,TP2,1,1*%
%TO.N,/MISO*%
X13716000Y10663000D03*
%TD*%
%TO.P,TP3,1,1*%
%TO.N,/SCK*%
X13716000Y7361000D03*
%TD*%
D17*
%TO.P,C7,1*%
%TO.N,Net-(U6-VOUT)*%
X24130000Y67585000D03*
%TO.P,C7,2*%
%TO.N,GND*%
X24130000Y66035000D03*
%TD*%
D23*
%TO.P,D4,1,K*%
%TO.N,/RADIO_TXD*%
X-2984574Y24333960D03*
%TO.P,D4,2,A*%
%TO.N,Net-(D4-A)*%
X-2984574Y22758960D03*
%TD*%
D36*
%TO.P,C1,1*%
%TO.N,GND*%
X43675000Y26797000D03*
%TO.P,C1,2*%
%TO.N,+3V3*%
X45225000Y26797000D03*
%TD*%
D17*
%TO.P,C33,1*%
%TO.N,Net-(JP8-A)*%
X18465426Y63259015D03*
%TO.P,C33,2*%
%TO.N,GND*%
X18465426Y61709015D03*
%TD*%
D37*
%TO.P,C14,1*%
%TO.N,Net-(U9-VDDCORE)*%
X35765000Y66035000D03*
%TO.P,C14,2*%
%TO.N,GND*%
X32815000Y66035000D03*
%TD*%
D38*
%TO.P,R34,1*%
%TO.N,/STATES_C_Int*%
X28956426Y36627460D03*
%TO.P,R34,2*%
%TO.N,+3V3*%
X30606426Y36627460D03*
%TD*%
D17*
%TO.P,C8,1*%
%TO.N,Net-(U6-VOUT)*%
X22352000Y67572000D03*
%TO.P,C8,2*%
%TO.N,GND*%
X22352000Y66022000D03*
%TD*%
D21*
%TO.P,TP19,1,1*%
%TO.N,GND*%
X72009000Y61086999D03*
%TD*%
D39*
%TO.P,U8,1,GND*%
%TO.N,GND*%
X3898426Y70423460D03*
%TO.P,U8,2,VO*%
%TO.N,/3V3_USB*%
X3898426Y68123460D03*
D40*
X10198426Y68123460D03*
D39*
%TO.P,U8,3,VI*%
%TO.N,+5V*%
X3898426Y65823460D03*
%TD*%
D16*
%TO.P,R17,1*%
%TO.N,+3V3*%
X8890000Y7615000D03*
%TO.P,R17,2*%
%TO.N,Net-(D1-A)*%
X7240000Y7615000D03*
%TD*%
D27*
%TO.P,R19,1*%
%TO.N,Net-(J2-Shield)*%
X-1270000Y51620000D03*
%TO.P,R19,2*%
%TO.N,GND*%
X-1270000Y49970000D03*
%TD*%
D41*
%TO.P,J6,1,Pin_1*%
%TO.N,/~{RESET}*%
X10037426Y43120460D03*
%TO.P,J6,2,Pin_2*%
%TO.N,/Microcontroller/USB_D+*%
X10037426Y41870460D03*
%TO.P,J6,3,Pin_3*%
%TO.N,/Microcontroller/USB_D-*%
X10037426Y40620460D03*
%TO.P,J6,4,Pin_4*%
%TO.N,GND*%
X10037426Y39370460D03*
D42*
%TO.P,J6,MP,MP*%
X7137426Y45670460D03*
X7137426Y36820460D03*
%TD*%
D38*
%TO.P,R22,1*%
%TO.N,Net-(D5-A)*%
X7240000Y27935000D03*
%TO.P,R22,2*%
%TO.N,/Microcontroller/TXLED*%
X8890000Y27935000D03*
%TD*%
D16*
%TO.P,R13,1*%
%TO.N,/eFuse/3V3_IN_FILT*%
X28511000Y71877000D03*
%TO.P,R13,2*%
%TO.N,/eFuse/~SHUTDOWN*%
X26861000Y71877000D03*
%TD*%
D18*
%TO.P,U18,1,NC*%
%TO.N,unconnected-(U18-NC-Pad1)*%
X15880500Y46665000D03*
%TO.P,U18,2,A*%
%TO.N,/PLD_ON_C_Int*%
X15880500Y45715000D03*
%TO.P,U18,3,GND*%
%TO.N,GND*%
X15880500Y44765000D03*
%TO.P,U18,4,y*%
%TO.N,/PAYLOAD_ON_C*%
X18155500Y44765000D03*
%TO.P,U18,5,Vcc*%
%TO.N,+3V3*%
X18155500Y46665000D03*
%TD*%
D30*
%TO.P,U11,1,NC*%
%TO.N,unconnected-(U11-NC-Pad1)*%
X53913000Y67051000D03*
%TO.P,U11,2,R*%
%TO.N,/PAYLOAD_RXD*%
X53913000Y65781000D03*
%TO.P,U11,3,RE*%
%TO.N,Net-(U11-RE)*%
X53913000Y64511000D03*
%TO.P,U11,4,DE*%
%TO.N,/EN_PAYLOAD_SERIAL*%
X53913000Y63241000D03*
%TO.P,U11,5,D*%
%TO.N,/PAYLOAD_TXD*%
X53913000Y61971000D03*
%TO.P,U11,6,GND*%
%TO.N,GND*%
X53913000Y60701000D03*
%TO.P,U11,7,GND*%
X53913000Y59431000D03*
%TO.P,U11,8,NC*%
%TO.N,unconnected-(U11-NC-Pad8)*%
X58863000Y59431000D03*
%TO.P,U11,9,Y*%
%TO.N,/PAYLOAD_TXD+*%
X58863000Y60701000D03*
%TO.P,U11,10,Z*%
%TO.N,/PAYLOAD_TXD-*%
X58863000Y61971000D03*
%TO.P,U11,11,B*%
%TO.N,/PAYLOAD_RXD-*%
X58863000Y63241000D03*
%TO.P,U11,12,A*%
%TO.N,/PAYLOAD_RXD+*%
X58863000Y64511000D03*
%TO.P,U11,13,Vcc*%
%TO.N,+3V3*%
X58863000Y65781000D03*
%TO.P,U11,14,Vcc*%
X58863000Y67051000D03*
%TD*%
D13*
%TO.P,JP8,1,A*%
%TO.N,Net-(JP8-A)*%
X16319426Y63013460D03*
D14*
%TO.P,JP8,2,B*%
%TO.N,Net-(JP8-B)*%
X16319426Y64313460D03*
%TD*%
D43*
%TO.P,J2,1,VBUS*%
%TO.N,Net-(J2-VBUS)*%
X-830600Y59715000D03*
%TO.P,J2,2,D-*%
%TO.N,/Microcontroller/USB_D-*%
X-830600Y59065000D03*
%TO.P,J2,3,D+*%
%TO.N,/Microcontroller/USB_D+*%
X-830600Y58415000D03*
%TO.P,J2,4,ID*%
%TO.N,/Microcontroller/USB_HOST_EN*%
X-830600Y57765000D03*
%TO.P,J2,5,GND*%
%TO.N,GND*%
X-830600Y57115000D03*
D44*
%TO.P,J2,6,Shield*%
%TO.N,Net-(J2-Shield)*%
X-3530600Y61915000D03*
D45*
X-3530600Y61315000D03*
D46*
X-830600Y60915000D03*
D47*
X-3530600Y59415000D03*
X-3530600Y57415000D03*
D46*
X-830600Y55915000D03*
D45*
X-3530600Y55515000D03*
D44*
X-3530600Y54915000D03*
%TD*%
D17*
%TO.P,C10,1*%
%TO.N,Net-(J2-Shield)*%
X254000Y51575000D03*
%TO.P,C10,2*%
%TO.N,GND*%
X254000Y50025000D03*
%TD*%
D27*
%TO.P,R37,1*%
%TO.N,Net-(JP8-B)*%
X12382426Y68059460D03*
%TO.P,R37,2*%
%TO.N,Net-(U25-EN)*%
X12382426Y66409460D03*
%TD*%
D17*
%TO.P,C9,1*%
%TO.N,+3V3*%
X18796000Y67572000D03*
%TO.P,C9,2*%
%TO.N,GND*%
X18796000Y66022000D03*
%TD*%
D36*
%TO.P,C23,1*%
%TO.N,+3V3*%
X60947000Y56891000D03*
%TO.P,C23,2*%
%TO.N,GND*%
X62497000Y56891000D03*
%TD*%
D26*
%TO.P,TP13,1,1*%
%TO.N,/Microcontroller/X1*%
X55372000Y44323000D03*
%TD*%
D23*
%TO.P,D2,1,K*%
%TO.N,/RADIO_RXD*%
X-2984574Y14300960D03*
%TO.P,D2,2,A*%
%TO.N,Net-(D2-A)*%
X-2984574Y12725960D03*
%TD*%
D32*
%TO.P,C30,1*%
%TO.N,GND*%
X29985000Y49779000D03*
%TO.P,C30,2*%
%TO.N,+3V3*%
X28435000Y49779000D03*
%TD*%
D48*
%TO.P,F1,1*%
%TO.N,Net-(J2-VBUS)*%
X2872500Y60955000D03*
%TO.P,F1,2*%
%TO.N,+5V*%
X4747500Y60955000D03*
%TD*%
D34*
%TO.P,FID1,*%
%TO.N,*%
X8445426Y1321460D03*
%TD*%
D36*
%TO.P,C22,1*%
%TO.N,+3V3*%
X60947000Y67051000D03*
%TO.P,C22,2*%
%TO.N,GND*%
X62497000Y67051000D03*
%TD*%
D26*
%TO.P,TP1,1,1*%
%TO.N,/MOSI*%
X13716000Y13965000D03*
%TD*%
D16*
%TO.P,R9,1*%
%TO.N,/SCL_NON_CRIT*%
X39687000Y18029000D03*
%TO.P,R9,2*%
%TO.N,+3V3*%
X38037000Y18029000D03*
%TD*%
D22*
%TO.P,U15,1,NC*%
%TO.N,unconnected-(U15-NC-Pad1)*%
X16068000Y58811000D03*
%TO.P,U15,2,A*%
%TO.N,/PLD_ON_A_Int*%
X16068000Y58161000D03*
%TO.P,U15,3,GND*%
%TO.N,GND*%
X16068000Y57511000D03*
%TO.P,U15,4,y*%
%TO.N,/PAYLOAD_ON_A*%
X17968000Y57511000D03*
%TO.P,U15,5,Vcc*%
%TO.N,+3V3*%
X17968000Y58811000D03*
%TD*%
D31*
%TO.P,C19,1*%
%TO.N,+3V3*%
X68072000Y32880000D03*
%TO.P,C19,2*%
%TO.N,GND*%
X68072000Y34430000D03*
%TD*%
D27*
%TO.P,R16,1*%
%TO.N,Net-(U6-VOUT)*%
X20828000Y67622000D03*
%TO.P,R16,2*%
%TO.N,GND*%
X20828000Y65972000D03*
%TD*%
D49*
%TO.P,U10,1,1OE*%
%TO.N,/EN_EXT_I2C*%
X71415000Y24310500D03*
%TO.P,U10,2,1A*%
%TO.N,/SDA_NON_CRIT*%
X72065000Y24310500D03*
%TO.P,U10,3,1B*%
%TO.N,/SDA_EXT*%
X72715000Y24310500D03*
%TO.P,U10,4,GND*%
%TO.N,GND*%
X73365000Y24310500D03*
%TO.P,U10,5,2A*%
%TO.N,/SCL_NON_CRIT*%
X73365000Y30035500D03*
%TO.P,U10,6,2B*%
%TO.N,/SCL_EXT*%
X72715000Y30035500D03*
%TO.P,U10,7,2OE*%
%TO.N,/EN_EXT_I2C*%
X72065000Y30035500D03*
%TO.P,U10,8,Vcc*%
%TO.N,+3V3*%
X71415000Y30035500D03*
%TD*%
D50*
%TO.P,C16,1*%
%TO.N,GND*%
X50087000Y33401000D03*
%TO.P,C16,2*%
%TO.N,Net-(U9-VDDANA)*%
X53037000Y33401000D03*
%TD*%
D25*
%TO.P,R1,1*%
%TO.N,/SHUTDOWN_A*%
X59182000Y38164000D03*
%TO.P,R1,2*%
%TO.N,+3V3*%
X59182000Y39814000D03*
%TD*%
D51*
%TO.P,JP10,1,A*%
%TO.N,Net-(JP10-A)*%
X13652426Y64328460D03*
D52*
%TO.P,JP10,2,B*%
%TO.N,Net-(JP10-B)*%
X13652426Y63028460D03*
%TD*%
D27*
%TO.P,R26,1*%
%TO.N,+3V3*%
X72136000Y33840000D03*
%TO.P,R26,2*%
%TO.N,/EN_EXT_I2C*%
X72136000Y32190000D03*
%TD*%
D32*
%TO.P,C26,1*%
%TO.N,GND*%
X21095000Y40635000D03*
%TO.P,C26,2*%
%TO.N,+3V3*%
X19545000Y40635000D03*
%TD*%
D38*
%TO.P,R36,1*%
%TO.N,/PLD_ON_B_Int*%
X28829426Y54915460D03*
%TO.P,R36,2*%
%TO.N,+3V3*%
X30479426Y54915460D03*
%TD*%
D36*
%TO.P,C5,1*%
%TO.N,/3V3_IN*%
X44183000Y73655000D03*
%TO.P,C5,2*%
%TO.N,GND*%
X45733000Y73655000D03*
%TD*%
D32*
%TO.P,C15,1*%
%TO.N,Net-(U9-VDDANA)*%
X53099000Y31369000D03*
%TO.P,C15,2*%
%TO.N,GND*%
X51549000Y31369000D03*
%TD*%
D53*
%TO.P,J5,1,Pin_1*%
%TO.N,+3V3*%
X76110000Y55875000D03*
%TO.P,J5,2,Pin_2*%
%TO.N,/Microcontroller/RX_LED_SWDIO*%
X80010000Y55875000D03*
%TO.P,J5,3,Pin_3*%
%TO.N,GND*%
X76110000Y54605000D03*
%TO.P,J5,4,Pin_4*%
%TO.N,/Microcontroller/SWCLK*%
X80010000Y54605000D03*
%TO.P,J5,5,Pin_5*%
%TO.N,GND*%
X76110000Y53335000D03*
%TO.P,J5,6,Pin_6*%
%TO.N,unconnected-(J5-Pin_6-Pad6)*%
X80010000Y53335000D03*
%TO.P,J5,7,Pin_7*%
%TO.N,unconnected-(J5-Pin_7-Pad7)*%
X76110000Y52065000D03*
%TO.P,J5,8,Pin_8*%
%TO.N,unconnected-(J5-Pin_8-Pad8)*%
X80010000Y52065000D03*
%TO.P,J5,9,Pin_9*%
%TO.N,unconnected-(J5-Pin_9-Pad9)*%
X76110000Y50795000D03*
%TO.P,J5,10,Pin_10*%
%TO.N,/~{RESET}*%
X80010000Y50795000D03*
%TD*%
D18*
%TO.P,U20,1,NC*%
%TO.N,unconnected-(U20-NC-Pad1)*%
X24770500Y55809000D03*
%TO.P,U20,2,A*%
%TO.N,/PLD_ON_B_Int*%
X24770500Y54859000D03*
%TO.P,U20,3,GND*%
%TO.N,GND*%
X24770500Y53909000D03*
%TO.P,U20,4,y*%
%TO.N,/PAYLOAD_ON_B*%
X27045500Y53909000D03*
%TO.P,U20,5,Vcc*%
%TO.N,+3V3*%
X27045500Y55809000D03*
%TD*%
D26*
%TO.P,TP7,1,1*%
%TO.N,/EPS_RESET*%
X20574000Y13965000D03*
%TD*%
%TO.P,TP9,1,1*%
%TO.N,/EPS_5V_USB*%
X20574000Y7361000D03*
%TD*%
D16*
%TO.P,R10,1*%
%TO.N,+3V3*%
X70421000Y7493000D03*
%TO.P,R10,2*%
%TO.N,/SDA_CRIT*%
X68771000Y7493000D03*
%TD*%
%TO.P,R6,1*%
%TO.N,Net-(U1-A1)*%
X35877000Y23617000D03*
%TO.P,R6,2*%
%TO.N,GND*%
X34227000Y23617000D03*
%TD*%
D22*
%TO.P,U17,1,NC*%
%TO.N,unconnected-(U17-NC-Pad1)*%
X16068000Y49667000D03*
%TO.P,U17,2,A*%
%TO.N,/PLD_ON_C_Int*%
X16068000Y49017000D03*
%TO.P,U17,3,GND*%
%TO.N,GND*%
X16068000Y48367000D03*
%TO.P,U17,4,y*%
%TO.N,/PAYLOAD_ON_C*%
X17968000Y48367000D03*
%TO.P,U17,5,Vcc*%
%TO.N,+3V3*%
X17968000Y49667000D03*
%TD*%
D50*
%TO.P,C20,1*%
%TO.N,GND*%
X52119000Y39243000D03*
%TO.P,C20,2*%
%TO.N,+3V3*%
X55069000Y39243000D03*
%TD*%
D13*
%TO.P,JP5,1,A*%
%TO.N,/SCL_EXT*%
X62230000Y73005000D03*
D14*
%TO.P,JP5,2,B*%
%TO.N,/Power_SCLK*%
X62230000Y74305000D03*
%TD*%
D54*
%TO.P,C12,1*%
%TO.N,/3V3_USB*%
X-698574Y73359960D03*
%TO.P,C12,2*%
%TO.N,GND*%
X-698574Y78634960D03*
%TD*%
D23*
%TO.P,D3,1,K*%
%TO.N,/PAYLOAD_TXD*%
X-2984574Y19380960D03*
%TO.P,D3,2,A*%
%TO.N,Net-(D3-A)*%
X-2984574Y17805960D03*
%TD*%
D17*
%TO.P,C4,1*%
%TO.N,GND*%
X70358000Y46876000D03*
%TO.P,C4,2*%
%TO.N,+3V3*%
X70358000Y45326000D03*
%TD*%
D55*
%TO.P,U5,1,WDI*%
%TO.N,/WDTICK*%
X68326000Y41021000D03*
%TO.P,U5,2,GND*%
%TO.N,GND*%
X69276000Y41021000D03*
%TO.P,U5,3,WDT*%
%TO.N,+3V3*%
X70226000Y41021000D03*
%TO.P,U5,4,Vdd*%
X70226000Y43296000D03*
%TO.P,U5,5,WDR*%
X69276000Y43296000D03*
%TO.P,U5,6,RESET*%
%TO.N,/Watchdog Timer/~{RESET}*%
X68326000Y43296000D03*
%TD*%
D16*
%TO.P,R21,1*%
%TO.N,+3V3*%
X8890000Y22855000D03*
%TO.P,R21,2*%
%TO.N,Net-(D4-A)*%
X7240000Y22855000D03*
%TD*%
D19*
%TO.P,J3,1,Pin_1*%
%TO.N,GND*%
X80010000Y22855000D03*
D20*
%TO.P,J3,2,Pin_2*%
%TO.N,/~{RESET}*%
X80010000Y20315000D03*
%TD*%
D13*
%TO.P,JP7,1,A*%
%TO.N,/SCL_EXT*%
X67310000Y73005000D03*
D14*
%TO.P,JP7,2,B*%
%TO.N,/PLD_SCLK*%
X67310000Y74305000D03*
%TD*%
D25*
%TO.P,R31,1*%
%TO.N,/PLD_ON_C_Int*%
X13779426Y49201460D03*
%TO.P,R31,2*%
%TO.N,+3V3*%
X13779426Y50851460D03*
%TD*%
D17*
%TO.P,C24,1*%
%TO.N,Net-(C24-Pad1)*%
X64770000Y64524000D03*
%TO.P,C24,2*%
%TO.N,/PAYLOAD_RXD-*%
X64770000Y62974000D03*
%TD*%
D32*
%TO.P,C28,1*%
%TO.N,GND*%
X21095000Y49779000D03*
%TO.P,C28,2*%
%TO.N,+3V3*%
X19545000Y49779000D03*
%TD*%
D54*
%TO.P,C11,1*%
%TO.N,+5V*%
X-698574Y65358960D03*
%TO.P,C11,2*%
%TO.N,GND*%
X-698574Y70633960D03*
%TD*%
D18*
%TO.P,U25,1,IN*%
%TO.N,Net-(JP8-B)*%
X14298426Y68250460D03*
%TO.P,U25,2,GND*%
%TO.N,GND*%
X14298426Y67300460D03*
%TO.P,U25,3,EN*%
%TO.N,Net-(U25-EN)*%
X14298426Y66350460D03*
%TO.P,U25,4,NC*%
%TO.N,unconnected-(U25-NC-Pad4)*%
X16573426Y66350460D03*
%TO.P,U25,5,OUT*%
%TO.N,Net-(JP10-A)*%
X16573426Y68250460D03*
%TD*%
D13*
%TO.P,JP3,1,A*%
%TO.N,/SCL_EXT*%
X54610000Y73005000D03*
D14*
%TO.P,JP3,2,B*%
%TO.N,/Radio_SCLK*%
X54610000Y74305000D03*
%TD*%
D16*
%TO.P,R8,1*%
%TO.N,/SDA_NON_CRIT*%
X36639000Y18029000D03*
%TO.P,R8,2*%
%TO.N,+3V3*%
X34989000Y18029000D03*
%TD*%
D18*
%TO.P,U22,1,NC*%
%TO.N,unconnected-(U22-NC-Pad1)*%
X24770500Y46665000D03*
%TO.P,U22,2,A*%
%TO.N,/STATES_A_Int*%
X24770500Y45715000D03*
%TO.P,U22,3,GND*%
%TO.N,GND*%
X24770500Y44765000D03*
%TO.P,U22,4,y*%
%TO.N,/STATES_A*%
X27045500Y44765000D03*
%TO.P,U22,5,Vcc*%
%TO.N,+3V3*%
X27045500Y46665000D03*
%TD*%
D32*
%TO.P,C2,1*%
%TO.N,GND*%
X70371000Y12065000D03*
%TO.P,C2,2*%
%TO.N,+3V3*%
X68821000Y12065000D03*
%TD*%
D38*
%TO.P,R33,1*%
%TO.N,/STATES_B_Int*%
X19812426Y36754460D03*
%TO.P,R33,2*%
%TO.N,+3V3*%
X21462426Y36754460D03*
%TD*%
D27*
%TO.P,R25,1*%
%TO.N,+3V3*%
X71374000Y54292000D03*
%TO.P,R25,2*%
%TO.N,/Microcontroller/SWCLK*%
X71374000Y52642000D03*
%TD*%
D26*
%TO.P,TP10,1,1*%
%TO.N,Net-(U3-SQW{slash}OUT)*%
X56642000Y2413000D03*
%TD*%
D15*
%TO.P,H4,1,1*%
%TO.N,GND*%
X77470000Y85725000D03*
%TD*%
D18*
%TO.P,U14,1,NC*%
%TO.N,unconnected-(U14-NC-Pad1)*%
X15880500Y37521000D03*
%TO.P,U14,2,A*%
%TO.N,/STATES_B_Int*%
X15880500Y36571000D03*
%TO.P,U14,3,GND*%
%TO.N,GND*%
X15880500Y35621000D03*
%TO.P,U14,4,y*%
%TO.N,/STATES_B*%
X18155500Y35621000D03*
%TO.P,U14,5,Vcc*%
%TO.N,+3V3*%
X18155500Y37521000D03*
%TD*%
%TO.P,U16,1,NC*%
%TO.N,unconnected-(U16-NC-Pad1)*%
X15880500Y55809000D03*
%TO.P,U16,2,A*%
%TO.N,/PLD_ON_A_Int*%
X15880500Y54859000D03*
%TO.P,U16,3,GND*%
%TO.N,GND*%
X15880500Y53909000D03*
%TO.P,U16,4,y*%
%TO.N,/PAYLOAD_ON_A*%
X18155500Y53909000D03*
%TO.P,U16,5,Vcc*%
%TO.N,+3V3*%
X18155500Y55809000D03*
%TD*%
D13*
%TO.P,JP6,1,A*%
%TO.N,/SDA_EXT*%
X64770000Y73005000D03*
D14*
%TO.P,JP6,2,B*%
%TO.N,/PLD_SDA*%
X64770000Y74305000D03*
%TD*%
D27*
%TO.P,R24,1*%
%TO.N,+3V3*%
X63754000Y39814000D03*
%TO.P,R24,2*%
%TO.N,Net-(U9-~{RESET})*%
X63754000Y38164000D03*
%TD*%
D32*
%TO.P,C27,1*%
%TO.N,GND*%
X21095000Y58923000D03*
%TO.P,C27,2*%
%TO.N,+3V3*%
X19545000Y58923000D03*
%TD*%
D16*
%TO.P,R29,1*%
%TO.N,Net-(C24-Pad1)*%
X62547000Y64511000D03*
%TO.P,R29,2*%
%TO.N,/PAYLOAD_RXD+*%
X60897000Y64511000D03*
%TD*%
D25*
%TO.P,R3,1*%
%TO.N,/SHUTDOWN_C*%
X66802000Y38164000D03*
%TO.P,R3,2*%
%TO.N,+3V3*%
X66802000Y39814000D03*
%TD*%
D34*
%TO.P,FID2,*%
%TO.N,*%
X75501426Y72949460D03*
%TD*%
D27*
%TO.P,R32,1*%
%TO.N,/PLD_ON_A_Int*%
X13398426Y54597460D03*
%TO.P,R32,2*%
%TO.N,+3V3*%
X13398426Y52947460D03*
%TD*%
D26*
%TO.P,TP11,1,1*%
%TO.N,Net-(U6-VOUT)*%
X20574000Y757000D03*
%TD*%
D16*
%TO.P,R20,1*%
%TO.N,+3V3*%
X8953000Y17775000D03*
%TO.P,R20,2*%
%TO.N,Net-(D3-A)*%
X7303000Y17775000D03*
%TD*%
D22*
%TO.P,U23,1,NC*%
%TO.N,unconnected-(U23-NC-Pad1)*%
X24958000Y40523000D03*
%TO.P,U23,2,A*%
%TO.N,/STATES_C_Int*%
X24958000Y39873000D03*
%TO.P,U23,3,GND*%
%TO.N,GND*%
X24958000Y39223000D03*
%TO.P,U23,4,y*%
%TO.N,/STATES_C*%
X26858000Y39223000D03*
%TO.P,U23,5,Vcc*%
%TO.N,+3V3*%
X26858000Y40523000D03*
%TD*%
D16*
%TO.P,R28,1*%
%TO.N,Net-(U12-RE)*%
X51879000Y54351000D03*
%TO.P,R28,2*%
%TO.N,GND*%
X50229000Y54351000D03*
%TD*%
D56*
%TO.P,U4,1,X1*%
%TO.N,Net-(U3-X1)*%
X60208000Y-2789000D03*
D57*
%TO.P,U4,2,X2*%
%TO.N,Net-(U3-X2)*%
X62748000Y-2789000D03*
%TO.P,U4,3,VBAT*%
%TO.N,Net-(U3-VBAT)*%
X65288000Y-2789000D03*
%TO.P,U4,4,GND*%
%TO.N,GND*%
X67828000Y-2789000D03*
%TO.P,U4,5,SDA*%
%TO.N,/SDA_CRIT*%
X67828000Y4831000D03*
%TO.P,U4,6,SCL*%
%TO.N,/SCL_CRIT*%
X65288000Y4831000D03*
%TO.P,U4,7,SQW/OUT*%
%TO.N,Net-(U3-SQW{slash}OUT)*%
X62748000Y4831000D03*
%TO.P,U4,8,VCC*%
%TO.N,+3V3*%
X60208000Y4831000D03*
%TD*%
D22*
%TO.P,U6,1,VOUT*%
%TO.N,Net-(U6-VOUT)*%
X26736000Y67447000D03*
%TO.P,U6,2,GND*%
%TO.N,GND*%
X26736000Y66797000D03*
%TO.P,U6,3,FLAGB*%
%TO.N,Net-(U6-FLAGB)*%
X26736000Y66147000D03*
%TO.P,U6,4,ON*%
%TO.N,/eFuse/~SHUTDOWN*%
X28636000Y66147000D03*
%TO.P,U6,5,VIN*%
%TO.N,Net-(JP10-B)*%
X28636000Y67447000D03*
%TD*%
D58*
%TO.P,U2,1,VIN*%
%TO.N,+3V3*%
X46831000Y14632000D03*
%TO.P,U2,2,3Vo*%
%TO.N,unconnected-(U2-3Vo-Pad2)*%
X44291000Y14632000D03*
%TO.P,U2,3,GND*%
%TO.N,GND*%
X41751000Y14632000D03*
%TO.P,U2,4,SCL*%
%TO.N,/SCL_NON_CRIT*%
X39211000Y14632000D03*
%TO.P,U2,5,SDA*%
%TO.N,/SDA_NON_CRIT*%
X36671000Y14632000D03*
%TO.P,U2,6,INT*%
%TO.N,unconnected-(U2-INT-Pad6)*%
X34131000Y14632000D03*
%TO.P,U2,7,NC*%
%TO.N,unconnected-(U2-NC-Pad7)*%
X34131000Y1932000D03*
%TO.P,U2,8,NC*%
%TO.N,unconnected-(U2-NC-Pad8)*%
X36671000Y1932000D03*
%TO.P,U2,9,NC*%
%TO.N,unconnected-(U2-NC-Pad9)*%
X39211000Y1932000D03*
%TO.P,U2,10,NC*%
%TO.N,unconnected-(U2-NC-Pad10)*%
X41751000Y1932000D03*
%TO.P,U2,11,NC*%
%TO.N,unconnected-(U2-NC-Pad11)*%
X44291000Y1932000D03*
%TO.P,U2,12,GND*%
%TO.N,GND*%
X46831000Y1932000D03*
D59*
%TO.P,U2,GND,GND*%
X30321000Y14632000D03*
X30321000Y1932000D03*
X50641000Y14632000D03*
X50641000Y1932000D03*
%TD*%
D32*
%TO.P,C29,1*%
%TO.N,GND*%
X29985000Y58923000D03*
%TO.P,C29,2*%
%TO.N,+3V3*%
X28435000Y58923000D03*
%TD*%
D31*
%TO.P,C13,1*%
%TO.N,Net-(U9-~{RESET})*%
X65278000Y38214000D03*
%TO.P,C13,2*%
%TO.N,GND*%
X65278000Y39764000D03*
%TD*%
D19*
%TO.P,J4,1,Pin_1*%
%TO.N,/MISO*%
X77470000Y15235000D03*
D20*
%TO.P,J4,2,Pin_2*%
%TO.N,+5V*%
X80010000Y15235000D03*
%TO.P,J4,3,Pin_3*%
%TO.N,/SCK*%
X77470000Y12695000D03*
%TO.P,J4,4,Pin_4*%
%TO.N,/MOSI*%
X80010000Y12695000D03*
%TO.P,J4,5,Pin_5*%
%TO.N,/~{RESET}*%
X77470000Y10155000D03*
%TO.P,J4,6,Pin_6*%
%TO.N,GND*%
X80010000Y10155000D03*
%TD*%
D16*
%TO.P,R30,1*%
%TO.N,Net-(C25-Pad1)*%
X62547000Y54351000D03*
%TO.P,R30,2*%
%TO.N,/RADIO_RXD+*%
X60897000Y54351000D03*
%TD*%
D51*
%TO.P,JP1,1,A*%
%TO.N,/Watchdog Timer/~{RESET}*%
X62230000Y45481000D03*
D52*
%TO.P,JP1,2,B*%
%TO.N,/~{RESET}*%
X62230000Y44181000D03*
%TD*%
D23*
%TO.P,D5,1,K*%
%TO.N,GND*%
X-2984574Y29540960D03*
%TO.P,D5,2,A*%
%TO.N,Net-(D5-A)*%
X-2984574Y27965960D03*
%TD*%
D31*
%TO.P,C17,1*%
%TO.N,+3V3*%
X60706000Y38214000D03*
%TO.P,C17,2*%
%TO.N,GND*%
X60706000Y39764000D03*
%TD*%
D60*
%TO.P,L2,1*%
%TO.N,+3V3*%
X51536500Y29591000D03*
%TO.P,L2,2*%
%TO.N,Net-(U9-VDDANA)*%
X53111500Y29591000D03*
%TD*%
D61*
%TO.P,C6,1*%
%TO.N,/eFuse/3V3_IN_FILT*%
X38197500Y71115000D03*
%TO.P,C6,2*%
%TO.N,GND*%
X32922500Y71115000D03*
%TD*%
D13*
%TO.P,JP4,1,A*%
%TO.N,/SDA_EXT*%
X59690000Y73005000D03*
D14*
%TO.P,JP4,2,B*%
%TO.N,/Power_SDA*%
X59690000Y74305000D03*
%TD*%
D62*
%TO.P,JP9,1,A*%
%TO.N,/eFuse/3V3_IN_FILT*%
X25687326Y64389015D03*
D63*
%TO.P,JP9,2,B*%
%TO.N,Net-(JP10-B)*%
X25687326Y62939015D03*
%TD*%
D19*
%TO.P,H2,1,Pin_1*%
%TO.N,unconnected-(H2-Pin_1-Pad1)*%
X8890000Y83185000D03*
D20*
%TO.P,H2,2,Pin_2*%
%TO.N,unconnected-(H2-Pin_2-Pad2)*%
X8890000Y85725000D03*
%TO.P,H2,3,Pin_3*%
%TO.N,unconnected-(H2-Pin_3-Pad3)*%
X11430000Y83185000D03*
%TO.P,H2,4,Pin_4*%
%TO.N,unconnected-(H2-Pin_4-Pad4)*%
X11430000Y85735000D03*
%TO.P,H2,5,Pin_5*%
%TO.N,unconnected-(H2-Pin_5-Pad5)*%
X13970000Y83185000D03*
%TO.P,H2,6,Pin_6*%
%TO.N,unconnected-(H2-Pin_6-Pad6)*%
X13970000Y85735000D03*
%TO.P,H2,7,Pin_7*%
%TO.N,unconnected-(H2-Pin_7-Pad7)*%
X16510000Y83185000D03*
%TO.P,H2,8,Pin_8*%
%TO.N,unconnected-(H2-Pin_8-Pad8)*%
X16510000Y85735000D03*
%TO.P,H2,9,Pin_9*%
%TO.N,/SHUTDOWN_A*%
X19050000Y83185000D03*
%TO.P,H2,10,Pin_10*%
%TO.N,/STATES_A*%
X19050000Y85735000D03*
%TO.P,H2,11,Pin_11*%
%TO.N,/SHUTDOWN_B*%
X21590000Y83185000D03*
%TO.P,H2,12,Pin_12*%
%TO.N,unconnected-(H2-Pin_12-Pad12)*%
X21590000Y85735000D03*
%TO.P,H2,13,Pin_13*%
%TO.N,/SHUTDOWN_C*%
X24130000Y83185000D03*
%TO.P,H2,14,Pin_14*%
%TO.N,unconnected-(H2-Pin_14-Pad14)*%
X24130000Y85735000D03*
%TO.P,H2,15,Pin_15*%
%TO.N,GND*%
X26670000Y83185000D03*
%TO.P,H2,16,Pin_16*%
%TO.N,/PAYLOAD_ON_A*%
X26670000Y85735000D03*
%TO.P,H2,17,Pin_17*%
%TO.N,/GPIO12*%
X29210000Y83185000D03*
%TO.P,H2,18,Pin_18*%
%TO.N,/PAYLOAD_ON_B*%
X29210000Y85735000D03*
%TO.P,H2,19,Pin_19*%
%TO.N,unconnected-(H2-Pin_19-Pad19)*%
X31750000Y83185000D03*
%TO.P,H2,20,Pin_20*%
%TO.N,/PAYLOAD_ON_C*%
X31750000Y85735000D03*
%TO.P,H2,21,Pin_21*%
%TO.N,unconnected-(H2-Pin_21-Pad21)*%
X34290000Y83185000D03*
%TO.P,H2,22,Pin_22*%
%TO.N,/STATES_B*%
X34290000Y85735000D03*
%TO.P,H2,23,Pin_23*%
%TO.N,unconnected-(H2-Pin_23-Pad23)*%
X36830000Y83185000D03*
%TO.P,H2,24,Pin_24*%
%TO.N,/STATES_C*%
X36830000Y85735000D03*
%TO.P,H2,25,Pin_25*%
%TO.N,unconnected-(H2-Pin_25-Pad25)*%
X39370000Y83185000D03*
%TO.P,H2,26,Pin_26*%
%TO.N,unconnected-(H2-Pin_26-Pad26)*%
X39370000Y85735000D03*
%TO.P,H2,27,Pin_27*%
%TO.N,/3V3_IN*%
X41910000Y83185000D03*
%TO.P,H2,28,Pin_28*%
X41910000Y85735000D03*
%TO.P,H2,29,Pin_29*%
%TO.N,GND*%
X44450000Y83185000D03*
%TO.P,H2,30,Pin_30*%
X44450000Y85735000D03*
%TO.P,H2,31,Pin_31*%
X46990000Y83185000D03*
%TO.P,H2,32,Pin_32*%
X46990000Y85735000D03*
%TO.P,H2,33,Pin_33*%
%TO.N,unconnected-(H2-Pin_33-Pad33)*%
X49530000Y83185000D03*
%TO.P,H2,34,Pin_34*%
%TO.N,unconnected-(H2-Pin_34-Pad34)*%
X49530000Y85735000D03*
%TO.P,H2,35,Pin_35*%
%TO.N,unconnected-(H2-Pin_35-Pad35)*%
X52070000Y83185000D03*
%TO.P,H2,36,Pin_36*%
%TO.N,unconnected-(H2-Pin_36-Pad36)*%
X52070000Y85735000D03*
%TO.P,H2,37,Pin_37*%
%TO.N,unconnected-(H2-Pin_37-Pad37)*%
X54610000Y83185000D03*
%TO.P,H2,38,Pin_38*%
%TO.N,unconnected-(H2-Pin_38-Pad38)*%
X54610000Y85735000D03*
%TO.P,H2,39,Pin_39*%
%TO.N,unconnected-(H2-Pin_39-Pad39)*%
X57150000Y83185000D03*
%TO.P,H2,40,Pin_40*%
%TO.N,unconnected-(H2-Pin_40-Pad40)*%
X57150000Y85735000D03*
%TO.P,H2,41,Pin_41*%
%TO.N,unconnected-(H2-Pin_41-Pad41)*%
X59690000Y83185000D03*
%TO.P,H2,42,Pin_42*%
%TO.N,unconnected-(H2-Pin_42-Pad42)*%
X59690000Y85735000D03*
%TO.P,H2,43,Pin_43*%
%TO.N,unconnected-(H2-Pin_43-Pad43)*%
X62230000Y83185000D03*
%TO.P,H2,44,Pin_44*%
%TO.N,unconnected-(H2-Pin_44-Pad44)*%
X62230000Y85735000D03*
%TO.P,H2,45,Pin_45*%
%TO.N,/BATT_RAW*%
X64770000Y83185000D03*
%TO.P,H2,46,Pin_46*%
X64770000Y85735000D03*
%TO.P,H2,47,Pin_47*%
%TO.N,unconnected-(H2-Pin_47-Pad47)*%
X67310000Y83185000D03*
%TO.P,H2,48,Pin_48*%
%TO.N,unconnected-(H2-Pin_48-Pad48)*%
X67310000Y85735000D03*
%TO.P,H2,49,Pin_49*%
%TO.N,unconnected-(H2-Pin_49-Pad49)*%
X69850000Y83185000D03*
%TO.P,H2,50,Pin_50*%
%TO.N,unconnected-(H2-Pin_50-Pad50)*%
X69850000Y85735000D03*
%TO.P,H2,51,Pin_51*%
%TO.N,unconnected-(H2-Pin_51-Pad51)*%
X72390000Y83185000D03*
%TO.P,H2,52,Pin_52*%
%TO.N,unconnected-(H2-Pin_52-Pad52)*%
X72390000Y85735000D03*
%TD*%
D37*
%TO.P,C3,1*%
%TO.N,GND*%
X71833000Y14097000D03*
%TO.P,C3,2*%
%TO.N,+3V3*%
X68883000Y14097000D03*
%TD*%
D26*
%TO.P,TP4,1,1*%
%TO.N,/TXD2*%
X13716000Y4059000D03*
%TD*%
D16*
%TO.P,R12,1*%
%TO.N,+3V3*%
X70421000Y10541000D03*
%TO.P,R12,2*%
%TO.N,Net-(U3-SQW{slash}OUT)*%
X68771000Y10541000D03*
%TD*%
D64*
%TO.N,GND*%
X508000Y57145000D03*
X23876000Y57399000D03*
X63754000Y57150000D03*
X52324000Y59531000D03*
X65278000Y41021000D03*
X52224000Y49271000D03*
X14986000Y39111000D03*
X69276000Y39817000D03*
X52070000Y60801000D03*
X20320000Y64135000D03*
X22352000Y64897000D03*
X30988000Y49779000D03*
X22098000Y58923000D03*
X71374000Y59181999D03*
X3873426Y72187460D03*
X49276000Y64643000D03*
X69088000Y46863000D03*
X76527500Y24310500D03*
X6096000Y36702999D03*
X508000Y80391000D03*
X23876000Y39111000D03*
X60960000Y20701000D03*
X-2984574Y31039460D03*
X23368000Y44699000D03*
X74168000Y54483000D03*
X28943501Y42151500D03*
X13271426Y67234460D03*
X14478000Y44699000D03*
X71882000Y12573000D03*
X52070000Y50387000D03*
X34227000Y21018000D03*
X42418000Y26797000D03*
X14986000Y48255000D03*
X61722000Y32893000D03*
X70358000Y-2159001D03*
X67818000Y-1397000D03*
X23876000Y48255000D03*
X6096000Y45592999D03*
X23368000Y35555000D03*
X70993000Y38353999D03*
X14986000Y57399000D03*
X50800000Y39243000D03*
X60706000Y41021000D03*
X46736000Y23749000D03*
X69342000Y34417000D03*
X63627000Y67056000D03*
X62235000Y7996000D03*
X36068000Y20955000D03*
X50546000Y30353000D03*
X22098000Y40635000D03*
X47112000Y73655000D03*
X21841676Y62410295D03*
X14986000Y71623000D03*
X30988000Y58923000D03*
X24130000Y64897000D03*
X14478000Y53843000D03*
X49022000Y33401000D03*
X23368000Y53843000D03*
X14478000Y35555000D03*
X-4157074Y70633960D03*
X25654000Y66797000D03*
X13843000Y24383999D03*
X64684000Y32217000D03*
X22098000Y49779000D03*
X74168000Y53213000D03*
X61468000Y27051000D03*
X82164000Y10155000D03*
X18411326Y62357015D03*
X49154000Y54351000D03*
X1524000Y47239000D03*
X18796000Y64897000D03*
X58784000Y30717000D03*
X31496000Y66035000D03*
%TO.N,+3V3*%
X68834000Y38481000D03*
X70612000Y39751000D03*
X72136000Y34925000D03*
X60960000Y55753000D03*
X38100000Y19045000D03*
X35052000Y19045000D03*
X46228000Y26797000D03*
X60960000Y65913000D03*
X67564000Y13081000D03*
X28435000Y50940000D03*
X11684000Y10033000D03*
X14414426Y52375460D03*
X19050000Y17907000D03*
X66802000Y34163000D03*
X74300000Y55875000D03*
X60198000Y20701000D03*
X72136000Y55499000D03*
X20066000Y51689000D03*
X63754000Y41021000D03*
X66802000Y6953000D03*
X19558000Y60071000D03*
X11684000Y13081000D03*
X18669000Y41529000D03*
X28448000Y60071000D03*
X28448000Y41656000D03*
X11684000Y17907000D03*
X69342000Y45339000D03*
X11684000Y23241000D03*
X19677000Y67572000D03*
X55118000Y41021000D03*
X51499000Y28766000D03*
%TO.N,Net-(U6-VOUT)*%
X20701000Y71374000D03*
X20955000Y56642000D03*
X17399000Y52070000D03*
X22352000Y757000D03*
%TO.N,/PAYLOAD_RXD*%
X60452000Y24257000D03*
X53594000Y12319000D03*
X51562000Y65913000D03*
%TO.N,Net-(U9-VDDCORE)*%
X61722000Y37211000D03*
X61468000Y41021000D03*
X36322000Y53594000D03*
X52197000Y41783000D03*
X49022000Y52705000D03*
X36576000Y64135000D03*
X49022000Y48133000D03*
X52197000Y48260000D03*
%TO.N,/RADIO_RXD*%
X64008000Y28575000D03*
X66040000Y58039000D03*
X69342000Y27559000D03*
X68580000Y18669000D03*
%TO.N,/PAYLOAD_TXD*%
X59436000Y41122600D03*
X60198000Y27305000D03*
X58928000Y20193000D03*
X57912000Y34163000D03*
X59690000Y24003000D03*
X56578500Y61404500D03*
%TO.N,/RADIO_TXD*%
X68580000Y27051000D03*
X26162000Y31369000D03*
X69596000Y48641000D03*
X2984426Y27102460D03*
X33528000Y51689000D03*
X2984426Y29007460D03*
%TO.N,+5V*%
X8992000Y63729000D03*
%TO.N,/SDA_NON_CRIT*%
X36576000Y19045000D03*
X58972000Y24301000D03*
X75692000Y21971000D03*
X76454000Y42799000D03*
X68580000Y23749000D03*
X58420000Y20701000D03*
X46482000Y21077000D03*
%TO.N,/SCL_NON_CRIT*%
X59436000Y27051000D03*
X76962000Y37973000D03*
X73406000Y31115000D03*
X70358000Y19685000D03*
X57404000Y22479000D03*
X46990000Y22347000D03*
X76454000Y30099000D03*
X39624000Y19045000D03*
%TO.N,/PLD_ON_A_Int*%
X23622000Y23749000D03*
X65532000Y33909000D03*
X33020000Y23617000D03*
X63754000Y29591000D03*
X13970000Y56891000D03*
X49276000Y27051000D03*
X54229480Y27940480D03*
X53848000Y26035000D03*
%TO.N,/STATES_A_Int*%
X74676000Y31369000D03*
X67564000Y15367000D03*
X74676000Y21209000D03*
X56896000Y16383000D03*
X33020000Y25649000D03*
X25623020Y47462020D03*
X68072000Y20955000D03*
X25146000Y25781000D03*
X50292000Y29083000D03*
X56388000Y25273000D03*
X36576000Y29083000D03*
X50292000Y25527000D03*
%TO.N,/SHUTDOWN_A*%
X64770000Y42799000D03*
X74422000Y42037000D03*
X63754000Y46863000D03*
X45085000Y75057000D03*
X59472000Y36485000D03*
X58420000Y46863000D03*
X78232000Y34671000D03*
X46228000Y54737000D03*
X74422000Y34671000D03*
%TO.N,/GPIO_A*%
X64770000Y31369000D03*
X66294000Y26289000D03*
X76708000Y29337000D03*
X76454000Y26543000D03*
%TO.N,/Microcontroller/USB_D-*%
X2286000Y59309000D03*
X69332232Y30650524D03*
%TO.N,/Microcontroller/USB_D+*%
X2286000Y58166000D03*
X69332232Y31610524D03*
%TO.N,/Microcontroller/USB_HOST_EN*%
X54356000Y33655000D03*
X16002000Y27813000D03*
X1016000Y57653000D03*
X54356000Y32131000D03*
%TO.N,/MISO*%
X62992000Y24257000D03*
X15494000Y10663000D03*
X62484000Y17399000D03*
%TO.N,/SCK*%
X63246000Y21463000D03*
X63246000Y16637000D03*
X15494000Y7361000D03*
%TO.N,/MOSI*%
X78740000Y17399000D03*
X15494000Y13965000D03*
X61976000Y20955000D03*
X61722000Y18161000D03*
%TO.N,/~{RESET}*%
X36857772Y53990806D03*
X66802000Y46101000D03*
X62230000Y43053000D03*
X66548000Y44196000D03*
X75184000Y10287000D03*
X49212426Y46152460D03*
X60261426Y46152460D03*
X12128426Y38278460D03*
X77470000Y20320000D03*
X60261426Y44501460D03*
X62230000Y41021000D03*
X77470000Y46101000D03*
X12192000Y60757460D03*
%TO.N,/Microcontroller/RX_LED_SWDIO*%
X61468000Y49403000D03*
X59944000Y32893000D03*
X60706000Y45339000D03*
X57150000Y35941000D03*
X56642000Y37465000D03*
X57150000Y45339000D03*
%TO.N,/Microcontroller/SWCLK*%
X74422000Y52451000D03*
X74930000Y56769000D03*
X74168000Y50165000D03*
X60198000Y36703000D03*
X62230000Y50419000D03*
%TO.N,/Microcontroller/TXLED*%
X48006000Y37211000D03*
X42164000Y31369000D03*
X63500000Y36449000D03*
X55880000Y37211000D03*
%TO.N,/SDA_CRIT*%
X67564000Y30607000D03*
%TO.N,/SCL_CRIT*%
X64516000Y30353000D03*
X63881000Y10414000D03*
%TO.N,/Microcontroller/X1*%
X55245000Y42799000D03*
X55880000Y32893000D03*
%TO.N,/Microcontroller/X2*%
X55118000Y35433000D03*
X55626000Y32131000D03*
%TO.N,/Microcontroller/AREF*%
X47498000Y34671000D03*
X46990000Y31115000D03*
X56642000Y34671000D03*
X55982000Y31217000D03*
%TO.N,/GPIO13*%
X55880000Y19431000D03*
X65532000Y19177000D03*
X55626000Y29591000D03*
X15494000Y-2545000D03*
%TO.N,/GPIO12*%
X58674000Y29337000D03*
X52324000Y71755000D03*
X40640000Y71755000D03*
X38100000Y84455000D03*
X54356000Y29337000D03*
%TO.N,/PLD_ON_B_Int*%
X24384000Y24765000D03*
X33020000Y24633000D03*
X49022000Y28321000D03*
X23114000Y56891000D03*
%TO.N,/PLD_ON_C_Int*%
X16583011Y47566011D03*
X23114000Y22733000D03*
X33020000Y22601000D03*
X54864000Y24511000D03*
X54864000Y26035000D03*
X49276000Y22987000D03*
%TO.N,/EN_PAYLOAD_SERIAL*%
X62230000Y35687000D03*
X55372000Y62865000D03*
X62992000Y59817000D03*
X62357000Y37084000D03*
X56388000Y60071000D03*
X63472000Y27023000D03*
%TO.N,/STATES_B_Int*%
X57658000Y24003000D03*
X64008000Y24511000D03*
X16733020Y38318020D03*
X49276000Y22225000D03*
X33020000Y21585000D03*
X22098000Y21717000D03*
%TO.N,/STATES_C_Int*%
X25623020Y38572020D03*
X57150000Y26035000D03*
X26162000Y27051000D03*
X33528000Y27051000D03*
%TO.N,/EN_RADIO_SERIAL*%
X68072000Y51435000D03*
X68072000Y28067000D03*
%TO.N,/EN_EXT_I2C*%
X71415000Y28280000D03*
X71415000Y25593400D03*
%TO.N,/TXD2*%
X64008000Y22225000D03*
X69850000Y22479000D03*
X69683779Y29019552D03*
X15494000Y4059000D03*
%TO.N,/RXD2*%
X64770000Y21717000D03*
X70358000Y21971000D03*
X15494000Y757000D03*
X70358000Y29591000D03*
%TO.N,/SHUTDOWN_C*%
X46316091Y60517337D03*
X67364226Y36666319D03*
X66548000Y41783000D03*
X50546000Y42291000D03*
X33329096Y60476231D03*
%TO.N,/WDTICK*%
X67142803Y40998851D03*
X65024000Y35433000D03*
%TO.N,Net-(U3-SQW{slash}OUT)*%
X67818000Y10541000D03*
X69088000Y3429000D03*
%TO.N,/SHUTDOWN_B*%
X58547000Y36322000D03*
X38060511Y77001489D03*
X39116000Y57531000D03*
X57658000Y56261000D03*
%TO.N,/STATES_B*%
X18866406Y39141639D03*
X20066000Y35687000D03*
X13716000Y34925000D03*
%TO.N,Net-(U6-FLAGB)*%
X25400000Y72771000D03*
X25146000Y66135000D03*
%TO.N,/PAYLOAD_ON_A*%
X19558000Y53975000D03*
X22860000Y78867000D03*
X18796000Y57531000D03*
%TO.N,/PAYLOAD_ON_C*%
X20066000Y48387000D03*
X18796000Y48387000D03*
X22352000Y48387000D03*
X28448000Y76073000D03*
X34290000Y76327000D03*
%TO.N,/PAYLOAD_ON_B*%
X27686000Y57531000D03*
X29464000Y74041000D03*
X28194000Y53975000D03*
%TO.N,/STATES_A*%
X28194000Y44831000D03*
X13716000Y43561000D03*
X27666000Y48367000D03*
%TO.N,/STATES_C*%
X28194000Y35687000D03*
X27686000Y39243000D03*
X24447426Y84379460D03*
X14732000Y42037000D03*
%TO.N,/PAYLOAD_RXD-*%
X35560000Y73025000D03*
%TO.N,/RADIO_RXD-*%
X30289426Y61392460D03*
%TO.N,/PAYLOAD_RXD+*%
X36322000Y72263000D03*
%TO.N,/PAYLOAD_TXD+*%
X37592000Y66167000D03*
X34798000Y71247000D03*
X34544000Y75311000D03*
X35814000Y64135000D03*
%TO.N,/PAYLOAD_TXD-*%
X21844000Y68961000D03*
X38354000Y66675000D03*
X20320000Y77724000D03*
%TO.N,/RADIO_RXD+*%
X30035426Y62535460D03*
%TO.N,/RADIO_TXD+*%
X50038000Y62611000D03*
X54356000Y57785000D03*
X56520000Y50541000D03*
X31496000Y62611000D03*
X50038000Y57785000D03*
%TO.N,/EPS_RESET*%
X35306000Y61595000D03*
X31051426Y16891000D03*
X43180000Y61595000D03*
%TO.N,/V_RTC*%
X34290000Y50927000D03*
X24384000Y10663000D03*
X44450000Y54102000D03*
X44450000Y76327000D03*
%TO.N,/EPS_5V_USB*%
X23876000Y20828000D03*
X48768000Y36068000D03*
X32512000Y34417000D03*
X23622000Y7361000D03*
X32512000Y20828000D03*
%TO.N,/SDA_EXT*%
X55118000Y70993000D03*
X54102000Y70993000D03*
X74168000Y25781000D03*
X73660000Y48895000D03*
X70612000Y48895000D03*
X61722000Y70993000D03*
X62738000Y70993000D03*
%TO.N,/SCL_EXT*%
X72644000Y69723000D03*
X73152000Y31877000D03*
%TO.N,Net-(U3-VBAT)*%
X63754000Y8763000D03*
%TO.N,Net-(U3-X2)*%
X59182000Y9525000D03*
X62484000Y-1143000D03*
%TO.N,Net-(U3-X1)*%
X60214320Y-1136970D03*
X59182000Y11811000D03*
%TO.N,/RADIO_TXD-*%
X57120636Y51689000D03*
X31496000Y63373000D03*
X51054000Y63119000D03*
X51054000Y58547000D03*
X54864000Y58547000D03*
%TO.N,Net-(JP10-B)*%
X28022520Y67309999D03*
X14668426Y61519460D03*
X27682326Y63119015D03*
%TO.N,Net-(JP10-A)*%
X16573426Y67488460D03*
X13462000Y65329460D03*
%TO.N,/BATT_RAW*%
X48196426Y65583460D03*
X23491326Y62992015D03*
X48196426Y71247000D03*
X48196426Y84379460D03*
%TD*%
D65*
%TO.N,GND*%
X32815000Y66035000D02*
X32815000Y71007500D01*
X28943501Y42151500D02*
X29985000Y41110000D01*
X71882000Y14048000D02*
X71833000Y14097000D01*
X73660000Y38353999D02*
X70993000Y38353999D01*
X76110000Y53335000D02*
X74290000Y53335000D01*
X51549000Y31356000D02*
X50546000Y30353000D01*
X50097000Y64643000D02*
X49276000Y64643000D01*
X15098000Y57511000D02*
X14986000Y57399000D01*
X63622000Y67051000D02*
X63627000Y67056000D01*
X57559500Y30717000D02*
X58784000Y30717000D01*
D66*
X-488074Y70423460D02*
X-698574Y70633960D01*
D65*
X20574000Y64389000D02*
X20320000Y64135000D01*
X14298426Y67300460D02*
X13337426Y67300460D01*
X53913000Y60701000D02*
X52170000Y60701000D01*
X53913000Y49271000D02*
X52224000Y49271000D01*
X25654000Y66797000D02*
X26736000Y66797000D01*
X14986000Y48255000D02*
X15956000Y48255000D01*
X73533000Y-2032001D02*
X70485000Y-2032001D01*
X52424000Y59431000D02*
X52324000Y59531000D01*
X72009000Y61086999D02*
X72009000Y59816999D01*
X24770500Y44765000D02*
X23434000Y44765000D01*
X53913000Y59431000D02*
X52424000Y59431000D01*
X16068000Y39223000D02*
X15098000Y39223000D01*
X29985000Y58923000D02*
X30988000Y58923000D01*
X53913000Y50541000D02*
X52224000Y50541000D01*
X50229000Y64511000D02*
X50097000Y64643000D01*
D66*
X3898426Y72162460D02*
X3873426Y72187460D01*
D65*
X24130000Y65151000D02*
X24130000Y64897000D01*
X15880500Y44765000D02*
X14544000Y44765000D01*
X31496000Y66035000D02*
X32815000Y66035000D01*
X21780426Y62349045D02*
X21841676Y62410295D01*
X23434000Y53909000D02*
X23368000Y53843000D01*
X34227000Y23617000D02*
X34227000Y22093000D01*
X1524000Y48558000D02*
X1524000Y47239000D01*
X52170000Y60701000D02*
X52070000Y60801000D01*
X50087000Y33401000D02*
X49022000Y33401000D01*
X71882000Y12573000D02*
X71882000Y14048000D01*
X23368000Y35555000D02*
X24704500Y35555000D01*
X21780426Y61709015D02*
X21780426Y62349045D01*
X67828000Y-2789000D02*
X67828000Y-1407000D01*
X60706000Y7996000D02*
X62235000Y7996000D01*
X61972000Y34129500D02*
X61972000Y33143000D01*
X68072000Y34430000D02*
X69342000Y34417000D01*
X6173461Y45670460D02*
X6096000Y45592999D01*
X20828000Y65972000D02*
X20828000Y64643000D01*
X32815000Y71007500D02*
X32922500Y71115000D01*
X69101000Y46876000D02*
X69088000Y46863000D01*
X24846000Y57399000D02*
X24958000Y57511000D01*
X60960000Y21704000D02*
X60960000Y20701000D01*
X14544000Y53909000D02*
X14478000Y53843000D01*
X478000Y57115000D02*
X508000Y57145000D01*
X45002000Y23744000D02*
X46736000Y23749000D01*
X63495000Y56891000D02*
X63754000Y57150000D01*
X62497000Y56891000D02*
X63495000Y56891000D01*
X18796000Y66022000D02*
X18796000Y64897000D01*
D66*
X3898426Y70423460D02*
X-488074Y70423460D01*
D65*
X24130000Y66035000D02*
X24130000Y65151000D01*
X23876000Y57399000D02*
X24846000Y57399000D01*
X34227000Y25141000D02*
X34227000Y23617000D01*
X65884500Y32217000D02*
X64684000Y32217000D01*
X74290000Y54605000D02*
X74168000Y54483000D01*
X16764000Y24510999D02*
X13970000Y24510999D01*
X-830600Y57115000D02*
X478000Y57115000D01*
X76110000Y54605000D02*
X74290000Y54605000D01*
X24704500Y35555000D02*
X24770500Y35621000D01*
X15956000Y48255000D02*
X16068000Y48367000D01*
X61972000Y33143000D02*
X61722000Y32893000D01*
X72009000Y59816999D02*
X71374000Y59181999D01*
X-1270000Y49970000D02*
X112000Y49970000D01*
D66*
X-698574Y70633960D02*
X-4157074Y70633960D01*
D65*
X21095000Y58923000D02*
X22098000Y58923000D01*
X69972000Y34430000D02*
X70612000Y33790000D01*
D66*
X508000Y78710500D02*
X508000Y80391000D01*
D65*
X20828000Y64643000D02*
X20574000Y64389000D01*
X62497000Y67051000D02*
X63622000Y67051000D01*
X61472000Y27047000D02*
X61468000Y27051000D01*
X22098000Y49779000D02*
X21095000Y49779000D01*
X71374000Y12065000D02*
X71882000Y12573000D01*
X14544000Y44765000D02*
X14478000Y44699000D01*
X7137426Y36820460D02*
X6213461Y36820460D01*
X23434000Y44765000D02*
X23368000Y44699000D01*
X7137426Y45670460D02*
X6173461Y45670460D01*
X73365000Y24310500D02*
X76527500Y24310500D01*
X15880500Y35621000D02*
X14544000Y35621000D01*
X14544000Y35621000D02*
X14478000Y35555000D01*
X52119000Y39243000D02*
X50800000Y39243000D01*
X24846000Y48255000D02*
X24958000Y48367000D01*
X29985000Y41110000D02*
X29985000Y40635000D01*
X24846000Y39111000D02*
X24958000Y39223000D01*
X15880500Y53909000D02*
X14544000Y53909000D01*
X36317000Y21204000D02*
X36068000Y20955000D01*
X69276000Y41021000D02*
X69276000Y39817000D01*
X70371000Y12065000D02*
X71374000Y12065000D01*
X73787000Y38353999D02*
X73660000Y38353999D01*
X14726540Y39370460D02*
X14986000Y39111000D01*
X21095000Y40635000D02*
X22098000Y40635000D01*
X52224000Y50541000D02*
X52070000Y50387000D01*
X34227000Y22093000D02*
X34227000Y21018000D01*
X18465426Y61709015D02*
X18465426Y62302915D01*
X61472000Y25804500D02*
X61472000Y27047000D01*
X50229000Y54351000D02*
X49154000Y54351000D01*
X16068000Y57511000D02*
X15098000Y57511000D01*
X74290000Y53335000D02*
X74168000Y53213000D01*
X24770500Y53909000D02*
X23434000Y53909000D01*
X15098000Y39223000D02*
X14986000Y39111000D01*
X10037426Y39370460D02*
X14726540Y39370460D01*
X29985000Y49779000D02*
X30988000Y49779000D01*
X45733000Y73655000D02*
X47112000Y73655000D01*
X13337426Y67300460D02*
X13271426Y67234460D01*
X43675000Y26797000D02*
X42418000Y26797000D01*
X80010000Y10155000D02*
X82164000Y10155000D01*
X51549000Y31369000D02*
X51549000Y31356000D01*
X22352000Y66022000D02*
X22352000Y64897000D01*
X70485000Y-2032001D02*
X70358000Y-2159001D01*
X14986000Y71623000D02*
X16388500Y71623000D01*
X13970000Y24510999D02*
X13843000Y24383999D01*
X23876000Y48255000D02*
X24846000Y48255000D01*
D66*
X3898426Y70423460D02*
X3898426Y72162460D01*
D65*
X67828000Y-1407000D02*
X67818000Y-1397000D01*
X18465426Y62302915D02*
X18411326Y62357015D01*
X23876000Y39111000D02*
X24846000Y39111000D01*
X65278000Y39764000D02*
X65278000Y41021000D01*
X-2984574Y29540960D02*
X-2984574Y31039460D01*
X70358000Y46876000D02*
X69101000Y46876000D01*
X69342000Y34417000D02*
X69972000Y34430000D01*
X37802000Y21204000D02*
X36317000Y21204000D01*
X112000Y49970000D02*
X1524000Y48558000D01*
X6213461Y36820460D02*
X6096000Y36702999D01*
X60706000Y39764000D02*
X60706000Y41021000D01*
%TO.N,+3V3*%
X28435000Y47104000D02*
X28435000Y49779000D01*
X19545000Y40653000D02*
X18669000Y41529000D01*
X60257500Y66361500D02*
X60706000Y65913000D01*
X60706000Y38214000D02*
X60706000Y38290000D01*
X19433000Y40523000D02*
X19545000Y40635000D01*
X19545000Y38910500D02*
X18155500Y37521000D01*
X13842426Y52947460D02*
X14414426Y52375460D01*
X28435000Y38910500D02*
X28435000Y40635000D01*
X9276000Y13081000D02*
X8890000Y12695000D01*
X19545000Y39040460D02*
X19545000Y38910500D01*
X70358000Y45326000D02*
X70345000Y45339000D01*
X38037000Y18029000D02*
X38037000Y18982000D01*
X38037000Y18982000D02*
X38100000Y19045000D01*
X68072000Y32880000D02*
X66802000Y34163000D01*
X30568944Y46062943D02*
X29527886Y47104000D01*
X71374000Y54292000D02*
X71374000Y54737000D01*
X70326000Y6699000D02*
X67056000Y6699000D01*
X58863000Y56891000D02*
X60947000Y56891000D01*
X60972000Y25804500D02*
X60972000Y23266000D01*
X60972000Y37948000D02*
X60706000Y38214000D01*
X59677000Y55621000D02*
X58863000Y55621000D01*
X60706000Y55753000D02*
X60960000Y55753000D01*
X19106000Y55809000D02*
X19545000Y56248000D01*
X70421000Y10541000D02*
X70345000Y10541000D01*
X28435000Y56248000D02*
X28435000Y56439460D01*
X58863000Y67051000D02*
X60947000Y67051000D01*
X28435000Y58923000D02*
X28435000Y60058000D01*
X60706000Y65913000D02*
X60960000Y65913000D01*
X18796000Y67572000D02*
X19677000Y67572000D01*
X34989000Y18029000D02*
X34989000Y18982000D01*
X60257500Y56201500D02*
X59677000Y55621000D01*
X70226000Y41021000D02*
X70226000Y40137000D01*
X19545000Y40635000D02*
X19545000Y39040460D01*
X67909000Y32717000D02*
X68072000Y32880000D01*
X67056000Y6699000D02*
X66802000Y6953000D01*
X29527886Y47104000D02*
X28435000Y47104000D01*
X70612000Y32316000D02*
X72136000Y33840000D01*
X68821000Y12840000D02*
X67805000Y12840000D01*
X30606426Y46025460D02*
X30568944Y46062943D01*
X70358000Y6731000D02*
X70326000Y6699000D01*
X28435000Y49779000D02*
X28435000Y50940000D01*
X8890000Y7615000D02*
X9266000Y7615000D01*
X13017426Y52947460D02*
X13842426Y52947460D01*
X28323000Y49667000D02*
X28435000Y49779000D01*
X59944000Y21971000D02*
X59944000Y20955000D01*
X28435000Y56439460D02*
X28435000Y58923000D01*
X68821000Y14035000D02*
X68883000Y14097000D01*
X67805000Y12840000D02*
X67564000Y13081000D01*
X59677000Y65781000D02*
X60257500Y66361500D01*
X51499000Y27813000D02*
X51499000Y28766000D01*
X55069000Y39243000D02*
X55880000Y39243000D01*
X11684000Y13081000D02*
X9276000Y13081000D01*
X70345000Y45339000D02*
X69342000Y45339000D01*
X13779426Y51740460D02*
X14414426Y52375460D01*
X76110000Y55875000D02*
X74300000Y55875000D01*
X63754000Y39814000D02*
X63754000Y41021000D01*
X9266000Y7615000D02*
X11684000Y10033000D01*
X11684000Y23241000D02*
X9276000Y23241000D01*
X18155500Y46665000D02*
X19106000Y46665000D01*
X55069000Y39243000D02*
X55069000Y40972000D01*
X19545000Y58923000D02*
X19558000Y58936000D01*
X69276000Y43296000D02*
X70226000Y43296000D01*
X70612000Y32240000D02*
X70612000Y32316000D01*
X27996000Y46665000D02*
X28435000Y47104000D01*
X30479426Y54915460D02*
X29959000Y54915460D01*
X13779426Y50851460D02*
X13779426Y51740460D01*
X18155500Y55809000D02*
X19106000Y55809000D01*
X28435000Y40635000D02*
X28435000Y41643000D01*
X19433000Y49667000D02*
X19545000Y49779000D01*
X17968000Y49667000D02*
X19433000Y49667000D01*
X9085000Y17907000D02*
X8953000Y17775000D01*
X17968000Y40523000D02*
X19433000Y40523000D01*
X27045500Y55809000D02*
X27996000Y55809000D01*
X21462426Y36754460D02*
X19545000Y38671886D01*
X70226000Y43296000D02*
X70226000Y45194000D01*
X19545000Y40635000D02*
X19545000Y40653000D01*
X59944000Y22238000D02*
X59944000Y21971000D01*
X67805000Y12065000D02*
X68821000Y12065000D01*
X19545000Y56248000D02*
X19545000Y58923000D01*
X68821000Y12065000D02*
X68821000Y12840000D01*
X9276000Y23241000D02*
X8890000Y22855000D01*
X51499000Y28766000D02*
X51499000Y29553500D01*
X28435000Y60058000D02*
X28448000Y60071000D01*
X19545000Y49779000D02*
X19545000Y51168000D01*
X30568944Y45491943D02*
X30568944Y46062943D01*
X18663500Y67704500D02*
X18796000Y67572000D01*
X29959000Y54915460D02*
X28435000Y56439460D01*
X45225000Y26797000D02*
X45225000Y25237000D01*
X60972000Y23266000D02*
X60960000Y23254000D01*
X26858000Y49667000D02*
X28323000Y49667000D01*
X58863000Y65781000D02*
X59677000Y65781000D01*
X28435000Y41643000D02*
X28448000Y41656000D01*
X26858000Y40523000D02*
X28323000Y40523000D01*
X45225000Y26797000D02*
X46228000Y26797000D01*
X60972000Y34129500D02*
X60972000Y37948000D01*
X67546000Y11806000D02*
X67805000Y12065000D01*
X57658000Y39814000D02*
X59182000Y39814000D01*
X27045500Y46665000D02*
X27996000Y46665000D01*
X60257500Y56201500D02*
X60706000Y55753000D01*
X70226000Y40137000D02*
X70612000Y39751000D01*
X19433000Y58811000D02*
X19545000Y58923000D01*
X30606426Y36739074D02*
X28435000Y38910500D01*
X60947000Y56891000D02*
X60257500Y56201500D01*
X70612000Y30838500D02*
X71415000Y30035500D01*
X19545000Y47104000D02*
X19545000Y49779000D01*
X34989000Y18982000D02*
X35052000Y19045000D01*
X51499000Y29553500D02*
X51536500Y29591000D01*
X66802000Y39814000D02*
X67501000Y39814000D01*
X70421000Y7493000D02*
X70421000Y9017000D01*
X60960000Y23254000D02*
X59944000Y22238000D01*
X45225000Y25237000D02*
X45002000Y25014000D01*
X65656000Y11806000D02*
X67546000Y11806000D01*
X19558000Y58936000D02*
X19558000Y59817000D01*
X70358000Y7430000D02*
X70358000Y6731000D01*
X65884500Y32717000D02*
X67909000Y32717000D01*
X19545000Y51168000D02*
X20066000Y51689000D01*
X19106000Y46665000D02*
X19545000Y47104000D01*
X57658000Y39814000D02*
X56451000Y39814000D01*
X59944000Y20955000D02*
X60198000Y20701000D01*
X19545000Y38671886D02*
X19545000Y39040460D01*
X18663500Y70673000D02*
X18663500Y69215500D01*
X19558000Y59817000D02*
X19558000Y60071000D01*
X27996000Y55809000D02*
X28435000Y56248000D01*
X28323000Y40523000D02*
X28435000Y40635000D01*
X55069000Y40972000D02*
X55118000Y41021000D01*
X70345000Y10541000D02*
X68821000Y12065000D01*
X70612000Y32240000D02*
X70612000Y31237000D01*
X60257500Y66361500D02*
X60947000Y67051000D01*
X67501000Y39814000D02*
X68834000Y38481000D01*
X60706000Y38290000D02*
X59182000Y39814000D01*
X68821000Y12840000D02*
X68821000Y14035000D01*
X26858000Y58811000D02*
X28323000Y58811000D01*
X16510000Y17907000D02*
X19050000Y17907000D01*
X17968000Y58811000D02*
X19433000Y58811000D01*
X18663500Y69215500D02*
X18663500Y67704500D01*
X55880000Y39243000D02*
X56451000Y39814000D01*
X29337000Y44259999D02*
X30568944Y45491943D01*
X70421000Y7493000D02*
X70358000Y7430000D01*
X71374000Y54737000D02*
X72136000Y55499000D01*
X72136000Y33840000D02*
X72136000Y34925000D01*
X70612000Y31237000D02*
X70612000Y30838500D01*
X11684000Y17907000D02*
X9085000Y17907000D01*
X27045500Y37521000D02*
X28435000Y38910500D01*
X70226000Y45194000D02*
X70358000Y45326000D01*
X30606426Y36627460D02*
X30606426Y36739074D01*
%TO.N,/3V3_IN*%
X41910000Y83185000D02*
X41910000Y85735000D01*
X42189500Y73655000D02*
X40640000Y75204500D01*
X40640000Y81915000D02*
X41910000Y83185000D01*
X44183000Y73655000D02*
X42189500Y73655000D01*
X40640000Y75204500D02*
X40640000Y81915000D01*
%TO.N,/eFuse/3V3_IN_FILT*%
X29998426Y70389574D02*
X28511000Y71877000D01*
X29871426Y64389015D02*
X29998426Y64516015D01*
X34641500Y74671000D02*
X38197500Y71115000D01*
X40614500Y73532000D02*
X38197500Y71115000D01*
X25687326Y64389015D02*
X29871426Y64389015D01*
X30988000Y74671000D02*
X34641500Y74671000D01*
X29998426Y64516015D02*
X29998426Y70389574D01*
X28511000Y71877000D02*
X28511000Y72194000D01*
X40614500Y73655000D02*
X40614500Y73532000D01*
X28511000Y72194000D02*
X30988000Y74671000D01*
%TO.N,Net-(U6-VOUT)*%
X24268000Y67447000D02*
X24130000Y67585000D01*
X20955000Y53467000D02*
X20955000Y56642000D01*
X20828000Y67622000D02*
X20828000Y70408500D01*
X22365000Y67585000D02*
X22352000Y67572000D01*
X20193000Y71374000D02*
X20027750Y71208750D01*
X20878000Y67572000D02*
X20828000Y67622000D01*
X18415000Y53086000D02*
X20574000Y53086000D01*
X20574000Y53086000D02*
X20955000Y53467000D01*
X20701000Y71374000D02*
X20193000Y71374000D01*
X20574000Y757000D02*
X22352000Y757000D01*
X26736000Y67447000D02*
X24268000Y67447000D01*
X17399000Y52070000D02*
X18415000Y53086000D01*
X24130000Y67585000D02*
X22365000Y67585000D01*
X22352000Y67572000D02*
X20878000Y67572000D01*
X20828000Y70408500D02*
X20027750Y71208750D01*
X20027750Y71208750D02*
X18663500Y72573000D01*
%TO.N,Net-(J2-Shield)*%
X-3530600Y55515000D02*
X-1230600Y55515000D01*
X-3130600Y60915000D02*
X-3530600Y61315000D01*
X-3530600Y59415000D02*
X-3530600Y57415000D01*
X82000Y51620000D02*
X254000Y51448000D01*
X-3530600Y53880600D02*
X-3530600Y54915000D01*
X-3530600Y57415000D02*
X-3530600Y55515000D01*
X-1270000Y51620000D02*
X-3530600Y53880600D01*
X-1270000Y51620000D02*
X82000Y51620000D01*
X-3530600Y61315000D02*
X-3530600Y59415000D01*
X-830600Y60915000D02*
X-3130600Y60915000D01*
X-1230600Y55515000D02*
X-830600Y55915000D01*
X-3530600Y54915000D02*
X-3530600Y55515000D01*
X-3530600Y61915000D02*
X-3530600Y61315000D01*
%TO.N,Net-(U9-~{RESET})*%
X65228000Y38164000D02*
X65278000Y38214000D01*
X63754000Y38164000D02*
X65228000Y38164000D01*
X63754000Y37211000D02*
X62992000Y37211000D01*
X63754000Y38164000D02*
X62230000Y38164000D01*
X63754000Y38164000D02*
X63754000Y37211000D01*
X62972000Y37191000D02*
X62972000Y34129500D01*
X62992000Y37211000D02*
X62972000Y37191000D01*
%TO.N,/PAYLOAD_RXD*%
X53594000Y12319000D02*
X11938000Y12319000D01*
X3810000Y9513034D02*
X3619426Y9322460D01*
X52456000Y65781000D02*
X52197000Y66040000D01*
X10879989Y11853011D02*
X5508011Y11853011D01*
X3619426Y9322460D02*
X-2883074Y9322460D01*
X11430000Y11811000D02*
X10922000Y11811000D01*
X51689000Y66040000D02*
X51562000Y65913000D01*
X53913000Y65781000D02*
X52456000Y65781000D01*
X52197000Y66040000D02*
X51689000Y66040000D01*
X-2883074Y9322460D02*
X-2984574Y9220960D01*
X11938000Y12319000D02*
X11430000Y11811000D01*
X3810000Y10155000D02*
X3810000Y9513034D01*
X5508011Y11853011D02*
X3810000Y10155000D01*
X60472000Y25804500D02*
X60452000Y24257000D01*
X10922000Y11811000D02*
X10879989Y11853011D01*
%TO.N,Net-(U9-VDDCORE)*%
X36576000Y64135000D02*
X36576000Y65224000D01*
X49022000Y52705000D02*
X37211000Y52705000D01*
X61472000Y34129500D02*
X61472000Y36445000D01*
X61722000Y36703000D02*
X61468000Y36449000D01*
X61468000Y41021000D02*
X60706000Y41783000D01*
X36576000Y65224000D02*
X35765000Y66035000D01*
X49149000Y48260000D02*
X49022000Y48133000D01*
X52197000Y48260000D02*
X49149000Y48260000D01*
X60706000Y41783000D02*
X52197000Y41783000D01*
X61472000Y36445000D02*
X61468000Y36449000D01*
X37211000Y52705000D02*
X36322000Y53594000D01*
X61722000Y37211000D02*
X61722000Y36703000D01*
%TO.N,/RADIO_RXD*%
X68452520Y18541520D02*
X62103480Y18541520D01*
X27940000Y19685000D02*
X23490000Y15235000D01*
X67310000Y27559000D02*
X69342000Y27559000D01*
X64866000Y27717000D02*
X65884500Y27717000D01*
X49530000Y19685000D02*
X27940000Y19685000D01*
X23490000Y15235000D02*
X3810000Y15235000D01*
X64008000Y28575000D02*
X64866000Y27717000D01*
X68580000Y18669000D02*
X68452520Y18541520D01*
X61214000Y18415000D02*
X50800000Y18415000D01*
X62738000Y58293000D02*
X57658000Y58293000D01*
X57658000Y58293000D02*
X54986000Y55621000D01*
X3810000Y15235000D02*
X2875960Y14300960D01*
X62103480Y18541520D02*
X61848520Y18796480D01*
X61848520Y18796480D02*
X61595480Y18796480D01*
X62738000Y58293000D02*
X65786000Y58293000D01*
X50800000Y18415000D02*
X49530000Y19685000D01*
X2875960Y14300960D02*
X-2984574Y14300960D01*
X54986000Y55621000D02*
X53913000Y55621000D01*
X65884500Y27717000D02*
X67152000Y27717000D01*
X67152000Y27717000D02*
X67310000Y27559000D01*
X65786000Y58293000D02*
X66040000Y58039000D01*
X61595480Y18796480D02*
X61214000Y18415000D01*
%TO.N,Net-(U9-VDDANA)*%
X53111500Y29591000D02*
X53111500Y30581500D01*
X55118000Y31369000D02*
X55118000Y30861000D01*
X53111500Y30581500D02*
X53137000Y30607000D01*
X57559500Y30217000D02*
X55236000Y30217000D01*
X55118000Y32131000D02*
X55118000Y31369000D01*
X55236000Y30217000D02*
X55118000Y30335000D01*
X55118000Y30861000D02*
X55118000Y30607000D01*
X53848000Y33401000D02*
X55118000Y32131000D01*
X53137000Y30607000D02*
X55118000Y30607000D01*
X53111500Y30581500D02*
X53111500Y31356500D01*
X53037000Y33401000D02*
X53848000Y33401000D01*
X55118000Y30607000D02*
X55118000Y30335000D01*
%TO.N,/PAYLOAD_TXD*%
X4059480Y20049514D02*
X3619426Y19609460D01*
X59972000Y24539000D02*
X59690000Y24257000D01*
X58928000Y20193000D02*
X58800520Y20065520D01*
X60198000Y27305000D02*
X59972000Y27079000D01*
X-2756074Y19609460D02*
X-2984574Y19380960D01*
X59972000Y27079000D02*
X59972000Y25804500D01*
X53913000Y61971000D02*
X56012000Y61971000D01*
X59690000Y24257000D02*
X59690000Y24003000D01*
X56012000Y61971000D02*
X56578500Y61404500D01*
X58800520Y20065520D02*
X4059480Y20065520D01*
X4059480Y20065520D02*
X4059480Y20049514D01*
X3619426Y19609460D02*
X-2756074Y19609460D01*
X59972000Y24539000D02*
X59972000Y25804500D01*
%TO.N,Net-(D1-A)*%
X7240000Y7361000D02*
X6986000Y7615000D01*
X-2953614Y7615000D02*
X7240000Y7615000D01*
X-2984574Y7645960D02*
X-2953614Y7615000D01*
%TO.N,/RADIO_TXD*%
X5345966Y31369000D02*
X2984426Y29007460D01*
X64262000Y48387000D02*
X64516000Y48641000D01*
X67056000Y27051000D02*
X68580000Y27051000D01*
X33528000Y51689000D02*
X36037864Y51689000D01*
X64516000Y48641000D02*
X69596000Y48641000D01*
X26162000Y31369000D02*
X5345966Y31369000D01*
X36545864Y52197000D02*
X48260000Y52197000D01*
X215926Y24333960D02*
X-2984574Y24333960D01*
X53913000Y51811000D02*
X54488000Y51811000D01*
X56134000Y48387000D02*
X64262000Y48387000D01*
X65884500Y27217000D02*
X66890000Y27217000D01*
X55626000Y48895000D02*
X56134000Y48387000D01*
X55626000Y50673000D02*
X55626000Y48895000D01*
X54488000Y51811000D02*
X55626000Y50673000D01*
X48260000Y52197000D02*
X48646000Y51811000D01*
X36037864Y51689000D02*
X36545864Y52197000D01*
X66890000Y27217000D02*
X67056000Y27051000D01*
X2984426Y27102460D02*
X215926Y24333960D01*
X48646000Y51811000D02*
X53913000Y51811000D01*
%TO.N,Net-(D2-A)*%
X-2953614Y12695000D02*
X-2984574Y12725960D01*
X7240000Y12695000D02*
X-2953614Y12695000D01*
%TO.N,Net-(D3-A)*%
X7303000Y17775000D02*
X-2953614Y17775000D01*
X-2953614Y17775000D02*
X-2984574Y17805960D01*
%TO.N,Net-(D4-A)*%
X7240000Y22855000D02*
X-2888534Y22855000D01*
X-2888534Y22855000D02*
X-2984574Y22758960D01*
D66*
%TO.N,+5V*%
X5740000Y63729000D02*
X8992000Y63729000D01*
X5740000Y61947500D02*
X5740000Y63729000D01*
X4747500Y60955000D02*
X5740000Y61947500D01*
X508000Y65561500D02*
X845500Y65899000D01*
X845500Y65899000D02*
X5740000Y65899000D01*
X5740000Y63729000D02*
X5740000Y65899000D01*
D65*
%TO.N,/SDA_NON_CRIT*%
X76830000Y43175000D02*
X76454000Y42799000D01*
X69271000Y23058000D02*
X68580000Y23749000D01*
X72065000Y23058000D02*
X73152000Y21971000D01*
X47376000Y21077000D02*
X46482000Y21077000D01*
X72065000Y24310500D02*
X72065000Y23058000D01*
X36639000Y18029000D02*
X36639000Y18982000D01*
X45129000Y21077000D02*
X45002000Y21204000D01*
X72065000Y23058000D02*
X69271000Y23058000D01*
X46482000Y21077000D02*
X45129000Y21077000D01*
X36639000Y18982000D02*
X36576000Y19045000D01*
X36671000Y17997000D02*
X36639000Y18029000D01*
X80010000Y43175000D02*
X76830000Y43175000D01*
X73152000Y21971000D02*
X75692000Y21971000D01*
X47752000Y20701000D02*
X47376000Y21077000D01*
X58420000Y20701000D02*
X47752000Y20701000D01*
X58972000Y25804500D02*
X58972000Y24301000D01*
X36671000Y14632000D02*
X36671000Y17997000D01*
%TO.N,/SCL_NON_CRIT*%
X70358000Y19685000D02*
X66294000Y19685000D01*
X66294000Y19685000D02*
X66040000Y19939000D01*
X46990000Y22347000D02*
X45129000Y22347000D01*
X76454000Y30099000D02*
X73428500Y30099000D01*
X39687000Y18029000D02*
X39687000Y18982000D01*
X80010000Y40635000D02*
X77348000Y37973000D01*
X73406000Y31115000D02*
X73406000Y30076500D01*
X47630000Y22347000D02*
X48768000Y21209000D01*
X39211000Y14632000D02*
X39211000Y17553000D01*
X77348000Y37973000D02*
X76962000Y37973000D01*
X45129000Y22347000D02*
X45002000Y22474000D01*
X59472000Y27015000D02*
X59436000Y27051000D01*
X59944000Y19939000D02*
X57404000Y22479000D01*
X39211000Y17553000D02*
X39687000Y18029000D01*
X66040000Y19939000D02*
X59944000Y19939000D01*
X56134000Y21209000D02*
X57404000Y22479000D01*
X39687000Y18982000D02*
X39624000Y19045000D01*
X59472000Y25804500D02*
X59472000Y27015000D01*
X48768000Y21209000D02*
X56134000Y21209000D01*
X46990000Y22347000D02*
X47630000Y22347000D01*
%TO.N,/PLD_ON_A_Int*%
X79248523Y37464477D02*
X79379477Y37464477D01*
X23622000Y23749000D02*
X27300000Y23749000D01*
X54229480Y27940480D02*
X55006000Y28717000D01*
X67436520Y35559520D02*
X77343566Y35559520D01*
X13970000Y56891000D02*
X13970000Y56486337D01*
X57559500Y28717000D02*
X62880000Y28717000D01*
X77343566Y35559520D02*
X79248523Y37464477D01*
X50164520Y26162480D02*
X52196520Y26162480D01*
X62880000Y28717000D02*
X63754000Y29591000D01*
X14610000Y54859000D02*
X15880500Y54859000D01*
X65532000Y33909000D02*
X65786000Y33909000D01*
X49276000Y27051000D02*
X50164520Y26162480D01*
X79379477Y37464477D02*
X80010000Y38095000D01*
X13970000Y57399000D02*
X13970000Y56891000D01*
X14478000Y54991000D02*
X14610000Y54859000D01*
X65786000Y33909000D02*
X67436520Y35559520D01*
X13970000Y56486337D02*
X14478000Y55978337D01*
X27300000Y23749000D02*
X27432000Y23617000D01*
X14732000Y58161000D02*
X13970000Y57399000D01*
X14348460Y54597460D02*
X14610000Y54859000D01*
X13017426Y54597460D02*
X14348460Y54597460D01*
X55006000Y28717000D02*
X57559500Y28717000D01*
X14478000Y55978337D02*
X14478000Y54991000D01*
X16068000Y58161000D02*
X14732000Y58161000D01*
X27432000Y23617000D02*
X33020000Y23617000D01*
X52196520Y26162480D02*
X52324000Y26035000D01*
X52324000Y26035000D02*
X53848000Y26035000D01*
%TO.N,/STATES_A_Int*%
X44958000Y29083000D02*
X50292000Y29083000D01*
X24770500Y45715000D02*
X25522000Y45715000D01*
X75824000Y31369000D02*
X74676000Y31369000D01*
X56388000Y27051000D02*
X56554000Y27217000D01*
X24958000Y49017000D02*
X25410000Y49017000D01*
X27025864Y25649000D02*
X33020000Y25649000D01*
X50546000Y25273000D02*
X56388000Y25273000D01*
X50292000Y25527000D02*
X50546000Y25273000D01*
X25908000Y47177040D02*
X25623020Y47462020D01*
X25522000Y45715000D02*
X25908000Y46101000D01*
X25410000Y49017000D02*
X25623020Y48803980D01*
X36576000Y29083000D02*
X44958000Y29083000D01*
X57912000Y15367000D02*
X56896000Y16383000D01*
X56388000Y25273000D02*
X56388000Y27051000D01*
X68072000Y20955000D02*
X74422000Y20955000D01*
X28645966Y45715000D02*
X28956426Y46025460D01*
X26893864Y25781000D02*
X27025864Y25649000D01*
X25146000Y25781000D02*
X26893864Y25781000D01*
X24770500Y45715000D02*
X28645966Y45715000D01*
X25623020Y48803980D02*
X25623020Y47462020D01*
X67564000Y15367000D02*
X57912000Y15367000D01*
X25908000Y46101000D02*
X25908000Y47177040D01*
X80010000Y35555000D02*
X75824000Y31369000D01*
X74422000Y20955000D02*
X74676000Y21209000D01*
X57559500Y27217000D02*
X56554000Y27217000D01*
%TO.N,/SHUTDOWN_A*%
X60960000Y46863000D02*
X59436000Y46863000D01*
X60960000Y46863000D02*
X63754000Y46863000D01*
X59472000Y36485000D02*
X59472000Y36159000D01*
X59436000Y37211000D02*
X59472000Y37175000D01*
X66548000Y43053000D02*
X66802000Y43053000D01*
X66802000Y43053000D02*
X67818000Y42037000D01*
X59436000Y46863000D02*
X58420000Y46863000D01*
X59182000Y38164000D02*
X59182000Y37211000D01*
X69088000Y42037000D02*
X74422000Y42037000D01*
X66294000Y42799000D02*
X66548000Y43053000D01*
X59472000Y37175000D02*
X59472000Y36485000D01*
X59182000Y37211000D02*
X59436000Y37211000D01*
X59472000Y36159000D02*
X59472000Y34129500D01*
X78232000Y34671000D02*
X74422000Y34671000D01*
X67818000Y42037000D02*
X69088000Y42037000D01*
X64770000Y42799000D02*
X66294000Y42799000D01*
%TO.N,/GPIO_A*%
X76454000Y26543000D02*
X68834000Y26543000D01*
X68834000Y26543000D02*
X68580000Y26289000D01*
X58834000Y31717000D02*
X57559500Y31717000D01*
X77592000Y30475000D02*
X76708000Y29591000D01*
X64516000Y31623000D02*
X58928000Y31623000D01*
X80010000Y30475000D02*
X77592000Y30475000D01*
X58928000Y31623000D02*
X58834000Y31717000D01*
X76708000Y29591000D02*
X76708000Y29337000D01*
X64770000Y31369000D02*
X64516000Y31623000D01*
X68580000Y26289000D02*
X66294000Y26289000D01*
D67*
%TO.N,/Microcontroller/USB_D-*%
X5623426Y54733284D02*
X5623426Y52066284D01*
D65*
X11465426Y40691460D02*
X12862426Y42088460D01*
D67*
X5623426Y52066284D02*
X12862426Y44827284D01*
X3246000Y57110710D02*
X5623426Y54733284D01*
D65*
X10037426Y40632460D02*
X10096426Y40691460D01*
X10037426Y40620460D02*
X10037426Y40632460D01*
X2042000Y59065000D02*
X2286000Y59309000D01*
X10096426Y40691460D02*
X11465426Y40691460D01*
X65884500Y31217000D02*
X68765756Y31217000D01*
D66*
X2286000Y59309000D02*
X3246000Y58349000D01*
D65*
X-830600Y59065000D02*
X2042000Y59065000D01*
X68765756Y31217000D02*
X69332232Y30650524D01*
D67*
X12862426Y44827284D02*
X12862426Y42088460D01*
X3246000Y58349000D02*
X3246000Y57110710D01*
D65*
%TO.N,/Microcontroller/USB_D+*%
X65884500Y31717000D02*
X69225756Y31717000D01*
D67*
X11902426Y44429636D02*
X11902426Y42088460D01*
D65*
X2037000Y58415000D02*
X2286000Y58166000D01*
D67*
X2286000Y56713062D02*
X4663426Y54335636D01*
D65*
X11684426Y41870460D02*
X11902426Y42088460D01*
X69225756Y31717000D02*
X69332232Y31610524D01*
X-830600Y58415000D02*
X2037000Y58415000D01*
D67*
X2286000Y58166000D02*
X2286000Y56713062D01*
D65*
X10037426Y41870460D02*
X11684426Y41870460D01*
D67*
X4663426Y54335636D02*
X4663426Y51668636D01*
X4663426Y51668636D02*
X11902426Y44429636D01*
D65*
%TO.N,/Microcontroller/USB_HOST_EN*%
X16002000Y27813000D02*
X33274000Y27813000D01*
X49276000Y30353000D02*
X51054000Y32131000D01*
X904000Y57765000D02*
X1016000Y57653000D01*
X59690000Y32131000D02*
X61722000Y32131000D01*
X58166000Y33655000D02*
X59690000Y32131000D01*
X33274000Y30099000D02*
X33528000Y30353000D01*
X62472000Y34129500D02*
X62472000Y32905000D01*
X-830600Y57765000D02*
X904000Y57765000D01*
X54356000Y33655000D02*
X58166000Y33655000D01*
X33528000Y30353000D02*
X49276000Y30353000D01*
X33274000Y27813000D02*
X33274000Y30099000D01*
X61722000Y32131000D02*
X62484000Y32893000D01*
X51054000Y32131000D02*
X54356000Y32131000D01*
%TO.N,Net-(D5-A)*%
X-2953614Y27935000D02*
X-2984574Y27965960D01*
X7240000Y27935000D02*
X-2953614Y27935000D01*
%TO.N,/MISO*%
X73152000Y16891000D02*
X74808000Y15235000D01*
X67056000Y17399000D02*
X67564000Y16891000D01*
X62484000Y17399000D02*
X67056000Y17399000D01*
X67564000Y16891000D02*
X73152000Y16891000D01*
X62992000Y24257000D02*
X62992000Y25784500D01*
X62992000Y25784500D02*
X62972000Y25804500D01*
X74808000Y15235000D02*
X77470000Y15235000D01*
X13716000Y10663000D02*
X15494000Y10663000D01*
%TO.N,/SCK*%
X72136000Y16129000D02*
X67564000Y16129000D01*
X63246000Y21463000D02*
X62472000Y22237000D01*
X74798000Y12695000D02*
X74798000Y13467000D01*
X62472000Y22237000D02*
X62472000Y25804500D01*
X74798000Y13467000D02*
X72136000Y16129000D01*
X67056000Y16637000D02*
X63246000Y16637000D01*
X13716000Y7361000D02*
X15494000Y7361000D01*
X77470000Y12695000D02*
X74798000Y12695000D01*
X67564000Y16129000D02*
X67056000Y16637000D01*
%TO.N,/MOSI*%
X61976000Y24511000D02*
X61972000Y24515000D01*
X67056000Y18161000D02*
X61722000Y18161000D01*
X67818000Y17399000D02*
X67056000Y18161000D01*
X61976000Y20955000D02*
X61976000Y24511000D01*
X78740000Y17399000D02*
X67818000Y17399000D01*
X13716000Y13965000D02*
X15494000Y13965000D01*
X61972000Y25804500D02*
X61972000Y24515000D01*
%TO.N,/~{RESET}*%
X77470000Y20320000D02*
X77475000Y20315000D01*
X62230000Y44181000D02*
X62230000Y43053000D01*
X66802000Y46101000D02*
X68580000Y47879000D01*
X77724000Y20315000D02*
X80010000Y20315000D01*
X8983426Y38883460D02*
X9588426Y38278460D01*
X60261426Y44501460D02*
X61909540Y44501460D01*
X81788000Y50419000D02*
X81788000Y48895000D01*
X12192000Y60757460D02*
X12370460Y60579000D01*
X81788000Y48895000D02*
X81026000Y48133000D01*
X8983426Y42866460D02*
X8983426Y38883460D01*
X30050421Y60579000D02*
X36638615Y53990806D01*
X80010000Y50795000D02*
X81412000Y50795000D01*
X49212426Y46152460D02*
X60261426Y46152460D01*
X61909540Y44501460D02*
X62230000Y44181000D01*
X77724000Y20315000D02*
X77470000Y20320000D01*
X10037426Y43120460D02*
X9237426Y43120460D01*
X66533000Y44181000D02*
X66548000Y44196000D01*
X75438000Y10155000D02*
X75316000Y10155000D01*
X77470000Y47371000D02*
X77470000Y46101000D01*
X78232000Y48133000D02*
X77978000Y47879000D01*
X62230000Y44181000D02*
X66533000Y44181000D01*
X12370460Y60579000D02*
X30050421Y60579000D01*
X81026000Y48133000D02*
X78232000Y48133000D01*
X9588426Y38278460D02*
X12128426Y38278460D01*
X36638615Y53990806D02*
X36857772Y53990806D01*
X81412000Y50795000D02*
X81788000Y50419000D01*
X77978000Y47879000D02*
X77470000Y47371000D01*
X75316000Y10155000D02*
X75184000Y10287000D01*
X68580000Y47879000D02*
X77978000Y47879000D01*
X62230000Y41021000D02*
X62230000Y39814000D01*
X75438000Y10155000D02*
X77470000Y10155000D01*
X9237426Y43120460D02*
X8983426Y42866460D01*
%TO.N,/Microcontroller/RX_LED_SWDIO*%
X77978000Y49403000D02*
X78232000Y49657000D01*
X80010000Y55875000D02*
X78608000Y55875000D01*
X78232000Y55499000D02*
X78608000Y55875000D01*
X59972000Y34129500D02*
X59972000Y32921000D01*
X57150000Y36957000D02*
X57150000Y35941000D01*
X56642000Y37465000D02*
X57150000Y36957000D01*
X61468000Y49403000D02*
X77978000Y49403000D01*
X78232000Y49657000D02*
X78232000Y55499000D01*
X60706000Y45339000D02*
X57150000Y45339000D01*
X59972000Y32921000D02*
X59944000Y32893000D01*
%TO.N,/Microcontroller/SWCLK*%
X60472000Y35159000D02*
X60198000Y35433000D01*
X74422000Y52451000D02*
X71565000Y52451000D01*
X62230000Y50419000D02*
X66802000Y50419000D01*
X81788000Y54737000D02*
X81788000Y56261000D01*
X60472000Y34129500D02*
X60472000Y35159000D01*
X60198000Y35433000D02*
X60198000Y36703000D01*
X66802000Y50419000D02*
X67056000Y50165000D01*
X81656000Y54605000D02*
X81788000Y54737000D01*
X71565000Y52451000D02*
X71374000Y52642000D01*
X81788000Y56261000D02*
X81280000Y56769000D01*
X80010000Y54605000D02*
X81656000Y54605000D01*
X67056000Y50165000D02*
X74168000Y50165000D01*
X74930000Y56769000D02*
X81280000Y56769000D01*
%TO.N,Net-(J2-VBUS)*%
X1632500Y59715000D02*
X-830600Y59715000D01*
X2872500Y60955000D02*
X1632500Y59715000D01*
%TO.N,/Watchdog Timer/~{RESET}*%
X67411000Y44211000D02*
X68326000Y43296000D01*
X66152000Y45481000D02*
X67818000Y43815000D01*
X62230000Y45481000D02*
X66152000Y45481000D01*
%TO.N,/eFuse/~SHUTDOWN*%
X27432000Y66929000D02*
X27432000Y67183000D01*
X28214000Y66147000D02*
X27432000Y66929000D01*
X27432000Y67183000D02*
X27514520Y67265520D01*
X27514520Y67265520D02*
X27514520Y71223480D01*
X28636000Y66147000D02*
X28214000Y66147000D01*
X27514520Y71223480D02*
X26861000Y71877000D01*
%TO.N,/Microcontroller/TXLED*%
X33274000Y31115000D02*
X33528000Y31369000D01*
X18034000Y30353000D02*
X32512000Y30353000D01*
X48006000Y37211000D02*
X55880000Y37211000D01*
X12578000Y30353000D02*
X18034000Y30353000D01*
X10160000Y27935000D02*
X12578000Y30353000D01*
X63472000Y34129500D02*
X63472000Y36421000D01*
X63472000Y36421000D02*
X63500000Y36449000D01*
X32512000Y30353000D02*
X33274000Y31115000D01*
X33528000Y31369000D02*
X42164000Y31369000D01*
X10160000Y27935000D02*
X8890000Y27935000D01*
%TO.N,Net-(U1-A0)*%
X36004000Y25014000D02*
X35877000Y25141000D01*
X37802000Y25014000D02*
X36004000Y25014000D01*
%TO.N,Net-(U1-A1)*%
X36004000Y23744000D02*
X35877000Y23617000D01*
X37802000Y23744000D02*
X36004000Y23744000D01*
%TO.N,/SDA_CRIT*%
X67174000Y30217000D02*
X67564000Y30607000D01*
X65656000Y7996000D02*
X67506000Y7996000D01*
X67506000Y7996000D02*
X68009000Y7493000D01*
X65656000Y7003000D02*
X65656000Y7996000D01*
X65884500Y30217000D02*
X67174000Y30217000D01*
X68009000Y7493000D02*
X68771000Y7493000D01*
X67828000Y4831000D02*
X65656000Y7003000D01*
%TO.N,/SCL_CRIT*%
X64880000Y30717000D02*
X64516000Y30353000D01*
X63881000Y9652000D02*
X63881000Y10414000D01*
X66802000Y9017000D02*
X68771000Y9017000D01*
X66553000Y9266000D02*
X66802000Y9017000D01*
X64267000Y9266000D02*
X63881000Y9652000D01*
X65656000Y9266000D02*
X66553000Y9266000D01*
X65884500Y30717000D02*
X64880000Y30717000D01*
X65656000Y9266000D02*
X64267000Y9266000D01*
%TO.N,Net-(U1-A2)*%
X36444000Y22093000D02*
X35877000Y22093000D01*
X36825000Y22474000D02*
X36444000Y22093000D01*
X37802000Y22474000D02*
X36825000Y22474000D01*
D66*
%TO.N,/3V3_USB*%
X10198426Y68123460D02*
X12747966Y70673000D01*
X508000Y73435500D02*
X9356386Y73435500D01*
X9356386Y73435500D02*
X10198426Y72593460D01*
X12747966Y70673000D02*
X16388500Y70673000D01*
X3898426Y68123460D02*
X10198426Y68123460D01*
X10198426Y72593460D02*
X10198426Y68123460D01*
D65*
%TO.N,/Microcontroller/X1*%
X55372000Y42926000D02*
X55245000Y42799000D01*
X56056000Y32717000D02*
X55880000Y32893000D01*
X55372000Y44323000D02*
X55372000Y42926000D01*
X57559500Y32717000D02*
X56056000Y32717000D01*
%TO.N,/Microcontroller/X2*%
X41656000Y33401000D02*
X40894000Y32639000D01*
X57559500Y32217000D02*
X55712000Y32217000D01*
X55712000Y32217000D02*
X55626000Y32131000D01*
X44196000Y33909000D02*
X43688000Y33401000D01*
X46990000Y35433000D02*
X55118000Y35433000D01*
X45466000Y33909000D02*
X44196000Y33909000D01*
X43688000Y33401000D02*
X41656000Y33401000D01*
X40894000Y32639000D02*
X35306000Y32639000D01*
X45466000Y33909000D02*
X46990000Y35433000D01*
%TO.N,/Microcontroller/AREF*%
X46482000Y31623000D02*
X44450000Y31623000D01*
X56642000Y34671000D02*
X47498000Y34671000D01*
X57559500Y31217000D02*
X55982000Y31217000D01*
X46990000Y31115000D02*
X46482000Y31623000D01*
%TO.N,/GPIO13*%
X59690000Y19177000D02*
X59436000Y19431000D01*
X65532000Y19177000D02*
X59690000Y19177000D01*
X13716000Y-2545000D02*
X15494000Y-2545000D01*
X57559500Y29717000D02*
X55752000Y29717000D01*
X59436000Y19431000D02*
X55880000Y19431000D01*
X55752000Y29717000D02*
X55626000Y29591000D01*
%TO.N,/GPIO12*%
X37933511Y84288511D02*
X38100000Y84455000D01*
X54356000Y29337000D02*
X54356000Y29020000D01*
X58554000Y29217000D02*
X58674000Y29337000D01*
X54356000Y29020000D02*
X53149000Y27813000D01*
X40640000Y71755000D02*
X52324000Y71755000D01*
X30313511Y84288511D02*
X37933511Y84288511D01*
X29210000Y83185000D02*
X30313511Y84288511D01*
X57559500Y29217000D02*
X58554000Y29217000D01*
%TO.N,/PLD_ON_B_Int*%
X23688000Y55809000D02*
X23688000Y55279001D01*
X50546000Y26797000D02*
X49022000Y28321000D01*
X27046000Y24765000D02*
X27178000Y24633000D01*
X24108001Y54859000D02*
X24770500Y54859000D01*
X23688000Y55279001D02*
X24108001Y54859000D01*
X57559500Y28217000D02*
X55522000Y28217000D01*
X23114000Y57399000D02*
X23114000Y56891000D01*
X24770500Y54859000D02*
X26803966Y54859000D01*
X26860426Y54915460D02*
X28829426Y54915460D01*
X55522000Y28217000D02*
X54102000Y26797000D01*
X26701040Y54915460D02*
X26860426Y54915460D01*
X54102000Y26797000D02*
X50546000Y26797000D01*
X24958000Y58161000D02*
X23876000Y58161000D01*
X23114000Y56891000D02*
X23114000Y56383000D01*
X24384000Y24765000D02*
X27046000Y24765000D01*
X27178000Y24633000D02*
X33020000Y24633000D01*
X23114000Y56383000D02*
X23688000Y55809000D01*
X26803966Y54859000D02*
X26860426Y54915460D01*
X23876000Y58161000D02*
X23114000Y57399000D01*
%TO.N,/PLD_ON_C_Int*%
X55626000Y27159136D02*
X55626000Y27559000D01*
X16583011Y47566011D02*
X16797000Y47352022D01*
X16764000Y47747000D02*
X16583011Y47566011D01*
X15883540Y49201460D02*
X16068000Y49017000D01*
X27178000Y22601000D02*
X33020000Y22601000D01*
X16642000Y49017000D02*
X16764000Y48895000D01*
X16542999Y45715000D02*
X15880500Y45715000D01*
X55626000Y27559000D02*
X55784000Y27717000D01*
X23114000Y22733000D02*
X27046000Y22733000D01*
X16583011Y47566011D02*
X16583011Y47367511D01*
X55784000Y27717000D02*
X57559500Y27717000D01*
X54864000Y26397136D02*
X55626000Y27159136D01*
X27046000Y22733000D02*
X27178000Y22601000D01*
X53340000Y22987000D02*
X54864000Y24511000D01*
X54864000Y26035000D02*
X54864000Y26397136D01*
X16797000Y47352022D02*
X16797000Y45969001D01*
X16797000Y45969001D02*
X16542999Y45715000D01*
X16764000Y48895000D02*
X16764000Y47747000D01*
X16068000Y49017000D02*
X16642000Y49017000D01*
X49276000Y22987000D02*
X53340000Y22987000D01*
X13779426Y49201460D02*
X15883540Y49201460D01*
%TO.N,/EN_PAYLOAD_SERIAL*%
X62230000Y36957000D02*
X62357000Y37084000D01*
X54996000Y63241000D02*
X55372000Y62865000D01*
X62230000Y35687000D02*
X62230000Y36957000D01*
X53913000Y63241000D02*
X54996000Y63241000D01*
X62992000Y59817000D02*
X62738000Y60071000D01*
X62738000Y60071000D02*
X56388000Y60071000D01*
X63472000Y25804500D02*
X63472000Y27023000D01*
%TO.N,/STATES_B_Int*%
X17018000Y38033040D02*
X16733020Y38318020D01*
X63972000Y25804500D02*
X63972000Y24547000D01*
X26670000Y21585000D02*
X33020000Y21585000D01*
X16733020Y39463002D02*
X16733020Y38318020D01*
X16378000Y36571000D02*
X17018000Y37211000D01*
X15880500Y36571000D02*
X16378000Y36571000D01*
X22098000Y21717000D02*
X26538000Y21717000D01*
X16063960Y36754460D02*
X15880500Y36571000D01*
X26538000Y21717000D02*
X26670000Y21585000D01*
X19812426Y36754460D02*
X16063960Y36754460D01*
X16323022Y39873000D02*
X16733020Y39463002D01*
X17018000Y37211000D02*
X17018000Y38033040D01*
X55880000Y22225000D02*
X57658000Y24003000D01*
X16068000Y39873000D02*
X16323022Y39873000D01*
X63972000Y24547000D02*
X64008000Y24511000D01*
X49276000Y22225000D02*
X55880000Y22225000D01*
%TO.N,/STATES_C_Int*%
X24826960Y36627460D02*
X24770500Y36571000D01*
X25146000Y36571000D02*
X24770500Y36571000D01*
X59436000Y27813000D02*
X63754000Y27813000D01*
X26162000Y27051000D02*
X32634000Y27051000D01*
X28956426Y36627460D02*
X24826960Y36627460D01*
X25623020Y38257980D02*
X25908000Y37973000D01*
X64516000Y25848500D02*
X64472000Y25804500D01*
X63754000Y27813000D02*
X64516000Y27051000D01*
X64516000Y27051000D02*
X64516000Y25848500D01*
X25410000Y39873000D02*
X25623020Y39659980D01*
X25623020Y39659980D02*
X25623020Y38572020D01*
X32634000Y27051000D02*
X33528000Y27051000D01*
X57658000Y26035000D02*
X59436000Y27813000D01*
X25908000Y37973000D02*
X25908000Y37333000D01*
X24958000Y39873000D02*
X25410000Y39873000D01*
X57150000Y26035000D02*
X57658000Y26035000D01*
X25623020Y38572020D02*
X25623020Y38257980D01*
X25908000Y37333000D02*
X25146000Y36571000D01*
%TO.N,/EN_RADIO_SERIAL*%
X63754000Y51435000D02*
X62755520Y52433480D01*
X62755520Y52433480D02*
X56151520Y52433480D01*
X53913000Y53081000D02*
X54098860Y53081000D01*
X65884500Y28217000D02*
X67922000Y28217000D01*
X67922000Y28217000D02*
X68072000Y28067000D01*
X68072000Y51435000D02*
X63754000Y51435000D01*
X54220860Y52959000D02*
X55626000Y52959000D01*
X54098860Y53081000D02*
X54220860Y52959000D01*
X56151520Y52433480D02*
X55626000Y52959000D01*
%TO.N,/EN_EXT_I2C*%
X69383000Y28280000D02*
X71415000Y28280000D01*
X65884500Y28717000D02*
X68946000Y28717000D01*
X72065000Y30035500D02*
X72065000Y32119000D01*
X71841000Y28788000D02*
X71415000Y28788000D01*
X68946000Y28717000D02*
X69383000Y28280000D01*
X71415000Y28280000D02*
X71415000Y28534000D01*
X71415000Y28534000D02*
X71415000Y28788000D01*
X72065000Y32119000D02*
X72136000Y32190000D01*
X72065000Y29012000D02*
X71841000Y28788000D01*
X72065000Y30035500D02*
X72065000Y29012000D01*
X71415000Y24310500D02*
X71415000Y25593400D01*
%TO.N,/TXD2*%
X69683779Y29019552D02*
X69596000Y29083000D01*
X65786000Y22479000D02*
X69850000Y22479000D01*
X64262000Y22479000D02*
X64008000Y22225000D01*
X65786000Y22479000D02*
X64262000Y22479000D01*
X69462000Y29217000D02*
X69683779Y29019552D01*
X69462000Y29217000D02*
X65884500Y29217000D01*
X13716000Y4059000D02*
X15494000Y4059000D01*
%TO.N,/RXD2*%
X66040000Y21971000D02*
X65024000Y21971000D01*
X69499617Y29717519D02*
X70231481Y29717519D01*
X70231481Y29717519D02*
X70358000Y29591000D01*
X66040000Y21971000D02*
X70358000Y21971000D01*
X69499617Y29717519D02*
X65885019Y29717519D01*
X13716000Y757000D02*
X15494000Y757000D01*
X65024000Y21971000D02*
X64770000Y21717000D01*
X65885019Y29717519D02*
X65884500Y29717000D01*
%TO.N,/SHUTDOWN_C*%
X66838681Y36666319D02*
X66802000Y36703000D01*
X66802000Y35941000D02*
X66802000Y36703000D01*
X64516000Y42291000D02*
X64770000Y42037000D01*
X64990500Y34129500D02*
X66802000Y35941000D01*
X67364226Y36666319D02*
X66838681Y36666319D01*
X64472000Y34129500D02*
X64990500Y34129500D01*
X64770000Y42037000D02*
X66294000Y42037000D01*
X66802000Y36703000D02*
X66802000Y38164000D01*
X33370202Y60517337D02*
X33329096Y60476231D01*
X66294000Y42037000D02*
X66548000Y41783000D01*
X50546000Y42291000D02*
X64516000Y42291000D01*
X46316091Y60517337D02*
X33370202Y60517337D01*
%TO.N,/WDTICK*%
X68326000Y41021000D02*
X67164952Y41021000D01*
X63972000Y34129500D02*
X63972000Y35397000D01*
X64008000Y35433000D02*
X63972000Y35397000D01*
X67164952Y41021000D02*
X67142803Y40998851D01*
X65024000Y35433000D02*
X64008000Y35433000D01*
%TO.N,Net-(U3-SQW{slash}OUT)*%
X67061000Y10536000D02*
X67750000Y10536000D01*
X64262000Y3429000D02*
X69088000Y3429000D01*
X67750000Y10536000D02*
X67755000Y10541000D01*
X64262000Y3429000D02*
X62738000Y3429000D01*
X60452000Y2413000D02*
X56642000Y2413000D01*
X65656000Y10536000D02*
X67061000Y10536000D01*
X62748000Y3439000D02*
X62738000Y3429000D01*
X62748000Y4831000D02*
X62748000Y3439000D01*
X61468000Y3429000D02*
X60452000Y2413000D01*
X67818000Y10541000D02*
X68771000Y10541000D01*
X62738000Y3429000D02*
X61468000Y3429000D01*
X67755000Y10541000D02*
X67818000Y10541000D01*
%TO.N,/SHUTDOWN_B*%
X58972000Y35389000D02*
X58972000Y34129500D01*
X57658000Y36830000D02*
X57658000Y35443500D01*
X57658000Y38164000D02*
X57658000Y36830000D01*
X58917500Y35443500D02*
X58972000Y35389000D01*
X58039000Y36830000D02*
X57658000Y36830000D01*
X57658000Y35443500D02*
X58917500Y35443500D01*
X58547000Y36322000D02*
X58039000Y36830000D01*
%TO.N,Net-(U7-EN)*%
X19812000Y73909000D02*
X17724500Y73909000D01*
X17724500Y73909000D02*
X16388500Y72573000D01*
X23876000Y69845000D02*
X19812000Y73909000D01*
X26861000Y69845000D02*
X23876000Y69845000D01*
%TO.N,/STATES_B*%
X18049361Y39141639D02*
X17968000Y39223000D01*
X20000000Y35621000D02*
X20066000Y35687000D01*
X18155500Y35621000D02*
X20000000Y35621000D01*
X13716000Y34925000D02*
X17459500Y34925000D01*
X18866406Y39141639D02*
X18049361Y39141639D01*
X17459500Y34925000D02*
X18155500Y35621000D01*
%TO.N,Net-(U6-FLAGB)*%
X25400000Y72771000D02*
X25977000Y72771000D01*
X25977000Y72771000D02*
X26861000Y73655000D01*
X25146000Y66135000D02*
X26724000Y66135000D01*
%TO.N,/PAYLOAD_ON_A*%
X22860000Y79121000D02*
X22860000Y78867000D01*
X18796000Y57531000D02*
X17988000Y57531000D01*
X22860000Y81153000D02*
X22860000Y79121000D01*
X25233511Y82510511D02*
X25146000Y82423000D01*
X19558000Y53975000D02*
X18221500Y53975000D01*
X25233511Y84298511D02*
X25233511Y82510511D01*
X24481511Y81758511D02*
X23465511Y81758511D01*
X26670000Y85735000D02*
X25233511Y84298511D01*
X18221500Y53975000D02*
X18155500Y53909000D01*
X25146000Y82423000D02*
X24481511Y81758511D01*
X17988000Y57531000D02*
X17968000Y57511000D01*
X23465511Y81758511D02*
X22860000Y81153000D01*
%TO.N,Net-(U11-RE)*%
X53913000Y64511000D02*
X51879000Y64511000D01*
%TO.N,/PAYLOAD_ON_C*%
X20066000Y48387000D02*
X20066000Y46675500D01*
X20066000Y46675500D02*
X18155500Y44765000D01*
X34290000Y76327000D02*
X28702000Y76327000D01*
X28702000Y76327000D02*
X28448000Y76073000D01*
X18796000Y48387000D02*
X17988000Y48387000D01*
X17988000Y48387000D02*
X17968000Y48367000D01*
X22352000Y48387000D02*
X20066000Y48387000D01*
%TO.N,Net-(U12-RE)*%
X51879000Y54351000D02*
X53913000Y54351000D01*
%TO.N,/PAYLOAD_ON_B*%
X27940000Y77089000D02*
X27940000Y75565000D01*
X27940000Y83475601D02*
X27940000Y77089000D01*
X28194000Y53975000D02*
X27111500Y53975000D01*
X27111500Y53975000D02*
X27045500Y53909000D01*
X29210000Y84745601D02*
X27940000Y83475601D01*
X27686000Y57531000D02*
X26878000Y57531000D01*
X29210000Y85735000D02*
X29210000Y84745601D01*
X27940000Y75565000D02*
X29464000Y74041000D01*
X26878000Y57531000D02*
X26858000Y57511000D01*
%TO.N,/STATES_A*%
X13716000Y43561000D02*
X25841500Y43561000D01*
X28194000Y44831000D02*
X27111500Y44831000D01*
X26858000Y48367000D02*
X27666000Y48367000D01*
X27111500Y44831000D02*
X27045500Y44765000D01*
X25841500Y43561000D02*
X27045500Y44765000D01*
%TO.N,/STATES_C*%
X25566000Y85498034D02*
X25566000Y86192292D01*
X24447426Y84379460D02*
X25566000Y85498034D01*
X25146000Y42037000D02*
X26162000Y41021000D01*
X26436000Y39223000D02*
X26858000Y39223000D01*
X25566000Y86192292D02*
X26212708Y86839000D01*
X14732000Y42037000D02*
X25146000Y42037000D01*
X35726000Y86839000D02*
X36830000Y85735000D01*
X26162000Y41021000D02*
X26162000Y39497000D01*
X26162000Y39497000D02*
X26436000Y39223000D01*
X27111500Y35687000D02*
X27045500Y35621000D01*
X28194000Y35687000D02*
X27111500Y35687000D01*
X26212708Y86839000D02*
X35726000Y86839000D01*
X27666000Y39223000D02*
X27686000Y39243000D01*
X26858000Y39223000D02*
X27666000Y39223000D01*
%TO.N,Net-(C24-Pad1)*%
X64757000Y64511000D02*
X64770000Y64524000D01*
X62547000Y64511000D02*
X64757000Y64511000D01*
%TO.N,/PAYLOAD_RXD-*%
X45212000Y67945000D02*
X44450000Y67183000D01*
X62108000Y63241000D02*
X62484000Y62865000D01*
X49530000Y67945000D02*
X45212000Y67945000D01*
X55118000Y66421000D02*
X51054000Y66421000D01*
X58863000Y63241000D02*
X62108000Y63241000D01*
X58863000Y63241000D02*
X58298000Y63241000D01*
X35560000Y68199000D02*
X35560000Y73025000D01*
X64661000Y62865000D02*
X64770000Y62974000D01*
X51054000Y66421000D02*
X49530000Y67945000D01*
X36576000Y67183000D02*
X35560000Y68199000D01*
X44450000Y67183000D02*
X36576000Y67183000D01*
X58298000Y63241000D02*
X55118000Y66421000D01*
X62484000Y62865000D02*
X64661000Y62865000D01*
%TO.N,Net-(C25-Pad1)*%
X64757000Y54351000D02*
X64770000Y54364000D01*
X62547000Y54351000D02*
X64757000Y54351000D01*
%TO.N,/RADIO_RXD-*%
X30289426Y61277574D02*
X38100000Y53467000D01*
X58863000Y53081000D02*
X64503000Y53081000D01*
X38100000Y53467000D02*
X52111374Y53467000D01*
X30174540Y61392460D02*
X30289426Y61392460D01*
X52111374Y53467000D02*
X52365374Y53721000D01*
X64503000Y53081000D02*
X64770000Y52814000D01*
X56102000Y53721000D02*
X56742000Y53081000D01*
X30289426Y61392460D02*
X30289426Y61277574D01*
X56742000Y53081000D02*
X58863000Y53081000D01*
X52365374Y53721000D02*
X56102000Y53721000D01*
%TO.N,/PAYLOAD_RXD+*%
X54102000Y68961000D02*
X41656000Y68961000D01*
X40640000Y67945000D02*
X36830000Y67945000D01*
X54185521Y68369479D02*
X54102000Y68369479D01*
X54102000Y68369479D02*
X54102000Y68961000D01*
X58223000Y65151000D02*
X57404000Y65151000D01*
X57404000Y65151000D02*
X54185521Y68369479D01*
X58863000Y64511000D02*
X60897000Y64511000D01*
X58863000Y64511000D02*
X58223000Y65151000D01*
X36322000Y68453000D02*
X36322000Y72263000D01*
X36830000Y67945000D02*
X36322000Y68453000D01*
X41656000Y68961000D02*
X40640000Y67945000D01*
%TO.N,/PAYLOAD_TXD+*%
X46736000Y65405000D02*
X38354000Y65405000D01*
X38354000Y65405000D02*
X37592000Y66167000D01*
X58552000Y60701000D02*
X55372000Y63881000D01*
X55372000Y63881000D02*
X52578000Y63881000D01*
X34798000Y68453000D02*
X34798000Y68961000D01*
X52324000Y63627000D02*
X51308000Y63627000D01*
X52578000Y63881000D02*
X52324000Y63627000D01*
X48358520Y63782480D02*
X46736000Y65405000D01*
X34136520Y64288480D02*
X34136520Y67791520D01*
X51308000Y63627000D02*
X51152520Y63782480D01*
X34136520Y67791520D02*
X34798000Y68453000D01*
X35814000Y64135000D02*
X34290000Y64135000D01*
X34290000Y64135000D02*
X34136520Y64288480D01*
X58863000Y60701000D02*
X58552000Y60701000D01*
X51152520Y63782480D02*
X48358520Y63782480D01*
X34798000Y68961000D02*
X34798000Y71247000D01*
%TO.N,/PAYLOAD_TXD-*%
X44958000Y66421000D02*
X38608000Y66421000D01*
X38608000Y66421000D02*
X38354000Y66675000D01*
X17613511Y79551489D02*
X19508511Y79551489D01*
X55295520Y65227480D02*
X52501520Y65227480D01*
X16510000Y80655000D02*
X17613511Y79551489D01*
X52324000Y65405000D02*
X51308000Y65405000D01*
X20320000Y78740000D02*
X20320000Y77724000D01*
X51054000Y65151000D02*
X50800000Y65151000D01*
X52501520Y65227480D02*
X52324000Y65405000D01*
X48913040Y67037960D02*
X45574960Y67037960D01*
X19508511Y79551489D02*
X19812000Y79248000D01*
X58552000Y61971000D02*
X55295520Y65227480D01*
X19812000Y79248000D02*
X20320000Y78740000D01*
X45574960Y67037960D02*
X44958000Y66421000D01*
X51308000Y65405000D02*
X51054000Y65151000D01*
X58863000Y61971000D02*
X58552000Y61971000D01*
X50800000Y65151000D02*
X48913040Y67037960D01*
%TO.N,/RADIO_RXD+*%
X58863000Y54351000D02*
X57282000Y54351000D01*
X30213886Y62357000D02*
X30035426Y62535460D01*
X52324000Y55245000D02*
X37338000Y55245000D01*
X56642000Y54991000D02*
X52578000Y54991000D01*
X31750000Y60833000D02*
X30226000Y62357000D01*
X58863000Y54351000D02*
X60897000Y54351000D01*
X52578000Y54991000D02*
X52324000Y55245000D01*
X30226000Y62357000D02*
X30213886Y62357000D01*
X37338000Y55245000D02*
X31750000Y60833000D01*
X57282000Y54351000D02*
X56642000Y54991000D01*
%TO.N,/RADIO_TXD+*%
X58863000Y50541000D02*
X56520000Y50541000D01*
X54356000Y57785000D02*
X50038000Y57785000D01*
X31496000Y62611000D02*
X50038000Y62611000D01*
%TO.N,/EPS_RESET*%
X43180000Y61595000D02*
X35306000Y61595000D01*
X31051426Y16891000D02*
X29210000Y16891000D01*
X29210000Y16891000D02*
X27940000Y15621000D01*
X25014000Y13965000D02*
X20574000Y13965000D01*
X25146000Y14097000D02*
X25014000Y13965000D01*
X27940000Y15621000D02*
X27940000Y14097000D01*
X27940000Y14097000D02*
X25146000Y14097000D01*
%TO.N,/V_RTC*%
X44450000Y80655000D02*
X45553511Y79551489D01*
X45553511Y77430511D02*
X44450000Y76327000D01*
X20574000Y10663000D02*
X24384000Y10663000D01*
X45553511Y79551489D02*
X45553511Y77430511D01*
%TO.N,/EPS_5V_USB*%
X32512000Y34417000D02*
X36874912Y34417000D01*
X37436431Y33855481D02*
X43380481Y33855481D01*
X20574000Y7361000D02*
X23622000Y7361000D01*
X43942000Y34417000D02*
X45435184Y34417000D01*
X43380481Y33855481D02*
X43942000Y34417000D01*
X45435184Y34417000D02*
X47086185Y36068000D01*
X47086185Y36068000D02*
X48768000Y36068000D01*
X23876000Y20828000D02*
X32512000Y20828000D01*
X36874912Y34417000D02*
X37436431Y33855481D01*
%TO.N,/Radio_SDA*%
X52070000Y74305000D02*
X52070000Y75565000D01*
X52070000Y75565000D02*
X54610000Y78105000D01*
%TO.N,/Radio_SCLK*%
X57150000Y76845000D02*
X57150000Y78105000D01*
X54610000Y74305000D02*
X57150000Y76845000D01*
%TO.N,/Power_SDA*%
X59690000Y78105000D02*
X59690000Y74305000D01*
%TO.N,/Power_SCLK*%
X62230000Y78105000D02*
X62230000Y74305000D01*
%TO.N,/PLD_SDA*%
X64770000Y78105000D02*
X64770000Y74305000D01*
%TO.N,/PLD_SCLK*%
X67310000Y78105000D02*
X67310000Y74305000D01*
%TO.N,/SDA_EXT*%
X72715000Y25456000D02*
X73040000Y25781000D01*
X64770000Y73005000D02*
X64750000Y73005000D01*
X52090000Y73005000D02*
X52070000Y73005000D01*
X59690000Y70993000D02*
X55118000Y70993000D01*
X73660000Y25781000D02*
X74168000Y25781000D01*
X70612000Y48895000D02*
X73660000Y48895000D01*
X54102000Y70993000D02*
X52090000Y73005000D01*
X73040000Y25781000D02*
X73660000Y25781000D01*
X64750000Y73005000D02*
X62738000Y70993000D01*
X61722000Y70993000D02*
X59690000Y70993000D01*
X59690000Y70993000D02*
X59690000Y73005000D01*
X72715000Y24310500D02*
X72715000Y25456000D01*
%TO.N,/SCL_EXT*%
X72715000Y31440000D02*
X72715000Y30035500D01*
X62230000Y69723000D02*
X67310000Y69723000D01*
X72644000Y69723000D02*
X67310000Y69723000D01*
X54864000Y69723000D02*
X54610000Y69977000D01*
X62230000Y69723000D02*
X54864000Y69723000D01*
X73152000Y31877000D02*
X72715000Y31440000D01*
X62230000Y69723000D02*
X62230000Y73005000D01*
X67310000Y69723000D02*
X67310000Y73005000D01*
X54610000Y73005000D02*
X54610000Y69977000D01*
%TO.N,Net-(U3-VBAT)*%
X60706000Y9266000D02*
X63251000Y9266000D01*
X63251000Y9266000D02*
X63754000Y8763000D01*
%TO.N,Net-(U3-X2)*%
X59187000Y10536000D02*
X58171000Y10536000D01*
X58166000Y10541000D02*
X57800000Y10175000D01*
X58171000Y10536000D02*
X58166000Y10541000D01*
X62748000Y-2789000D02*
X62748000Y-1407000D01*
X62748000Y-1407000D02*
X62484000Y-1143000D01*
X59187000Y10038000D02*
X59182000Y10033000D01*
X59182000Y9525000D02*
X59182000Y10033000D01*
X60706000Y10536000D02*
X59187000Y10536000D01*
X57800000Y10175000D02*
X56642000Y10175000D01*
X59187000Y10536000D02*
X59187000Y10038000D01*
%TO.N,Net-(U3-X1)*%
X60706000Y11806000D02*
X59187000Y11806000D01*
X59187000Y11806000D02*
X59182000Y11811000D01*
X60208000Y-2789000D02*
X60214320Y-1136970D01*
X59080000Y12675000D02*
X59182000Y12573000D01*
X59182000Y11811000D02*
X59182000Y12523000D01*
X56642000Y12675000D02*
X59080000Y12675000D01*
%TO.N,/RADIO_TXD-*%
X51054000Y58547000D02*
X54864000Y58547000D01*
X50926520Y63246480D02*
X51054000Y63119000D01*
X50800000Y63246480D02*
X50926520Y63246480D01*
X58741000Y51689000D02*
X57120636Y51689000D01*
X46228000Y63373000D02*
X46354520Y63246480D01*
X46228000Y63373000D02*
X45212000Y63373000D01*
X45212000Y63373000D02*
X31496000Y63373000D01*
X46354520Y63246480D02*
X46893616Y63246480D01*
X46893616Y63246480D02*
X50800000Y63246480D01*
X58863000Y51811000D02*
X58741000Y51689000D01*
%TO.N,Net-(JP8-B)*%
X12382426Y68059460D02*
X14107426Y68059460D01*
D66*
X15341926Y65290960D02*
X15341926Y67869459D01*
X16319426Y64313460D02*
X15341926Y65290960D01*
X15341926Y67869459D02*
X14960925Y68250460D01*
D65*
X14107426Y68059460D02*
X14298426Y68250460D01*
D66*
X14960925Y68250460D02*
X14298426Y68250460D01*
%TO.N,Net-(JP8-A)*%
X16319426Y63013460D02*
X17289771Y63013460D01*
X17535326Y63259015D02*
X18465426Y63259015D01*
X18465426Y63259015D02*
X18566926Y63259015D01*
X17289771Y63013460D02*
X17535326Y63259015D01*
X18422426Y63013460D02*
X18465426Y63056460D01*
X18566926Y63259015D02*
X20129426Y61696515D01*
X20129426Y61493960D02*
X20027926Y61493960D01*
D65*
%TO.N,Net-(JP10-B)*%
X25687326Y62939015D02*
X27502326Y62939015D01*
X28636000Y69720000D02*
X28511000Y69845000D01*
X28511000Y73655000D02*
X27857000Y73001000D01*
D66*
X13652426Y63028460D02*
X13652426Y62535460D01*
D65*
X27857000Y71408404D02*
X28511000Y70754404D01*
D66*
X13652426Y62535460D02*
X14668426Y61519460D01*
D65*
X28760000Y73406000D02*
X28511000Y73655000D01*
X28511000Y70754404D02*
X28511000Y69845000D01*
X28022520Y67309999D02*
X28498999Y67309999D01*
X28498999Y67309999D02*
X28636000Y67447000D01*
X27502326Y62939015D02*
X27682326Y63119015D01*
X27857000Y73001000D02*
X27857000Y71408404D01*
X28636000Y67447000D02*
X28636000Y69720000D01*
D66*
%TO.N,Net-(JP10-A)*%
X16573426Y68250460D02*
X16573426Y67488460D01*
X13462000Y65329460D02*
X13462000Y64518886D01*
X13462000Y64518886D02*
X13652426Y64328460D01*
D65*
%TO.N,Net-(U25-EN)*%
X12382426Y66409460D02*
X14239426Y66409460D01*
X14239426Y66409460D02*
X14298426Y66350460D01*
D66*
%TO.N,/BATT_RAW*%
X20141926Y63056460D02*
X20129426Y63068960D01*
X22983326Y62992015D02*
X22716326Y63259015D01*
X64770000Y84506460D02*
X64770000Y83185000D01*
X48232966Y84416000D02*
X48196426Y84379460D01*
X64770000Y84506460D02*
X64767540Y84504000D01*
X64679540Y84416000D02*
X48232966Y84416000D01*
X23491326Y62992015D02*
X22983326Y62992015D01*
X20129426Y63271515D02*
X21767926Y63271515D01*
X22716326Y63259015D02*
X21780426Y63259015D01*
X64770000Y85735000D02*
X64770000Y84506460D01*
X64770000Y84506460D02*
X64679540Y84416000D01*
%TD*%
M02*
