%TF.GenerationSoftware,KiCad,Pcbnew,8.0.1*%
%TF.CreationDate,2024-05-29T09:56:29-04:00*%
%TF.ProjectId,Avionics_Board,4176696f-6e69-4637-935f-426f6172642e,rev?*%
%TF.SameCoordinates,PX40311b0PY93281e8*%
%TF.FileFunction,Drillmap*%
%TF.FilePolarity,Positive*%
%FSLAX45Y45*%
G04 Gerber Fmt 4.5, Leading zero omitted, Abs format (unit mm)*
G04 Created by KiCad (PCBNEW 8.0.1) date 2024-05-29 09:56:29*
%MOMM*%
%LPD*%
G01*
G04 APERTURE LIST*
%ADD10C,0.100000*%
%ADD11C,0.200000*%
G04 APERTURE END LIST*
D10*
X8509000Y344170D02*
X8509000Y2185670D01*
X-825500Y-44298D02*
X-825500Y-508000D01*
D11*
X-508000Y-388620D02*
X-508000Y-44298D01*
D10*
X8051800Y7754620D02*
G75*
G02*
X8369300Y7754620I158750J0D01*
G01*
D11*
X5130500Y8907780D02*
G75*
G02*
X5011120Y8788400I-119380J0D01*
G01*
X-317500Y3389630D02*
G75*
G02*
X-412750Y3272714I-119380J0D01*
G01*
X8389620Y-508000D02*
X5249880Y-508000D01*
X8051800Y8262620D02*
X8051800Y8961120D01*
D10*
X8826500Y5201920D02*
G75*
G02*
X8509000Y5201920I-158750J0D01*
G01*
X-825500Y9080500D02*
X-825500Y8961120D01*
D11*
X5011120Y8788400D02*
X3217880Y8788400D01*
D10*
X-508000Y2622702D02*
G75*
G02*
X-825500Y2622702I-158750J0D01*
G01*
X-508000Y463702D02*
G75*
G02*
X-825500Y463702I-158750J0D01*
G01*
D11*
X-317500Y5182870D02*
X-317500Y3389630D01*
X5130500Y8961120D02*
G75*
G02*
X5249880Y9080500I119380J0D01*
G01*
D10*
X-825500Y9080500D02*
X-1778000Y9080500D01*
D11*
X-412750Y5299786D02*
G75*
G02*
X-507998Y5416702I24130J116914D01*
G01*
D10*
X-1778000Y9080500D02*
X-1778000Y8961120D01*
D11*
X3217880Y8788400D02*
G75*
G02*
X3098500Y8907780I0J119380D01*
G01*
X-508000Y5416702D02*
X-508000Y6686702D01*
D10*
X8509000Y4725670D02*
G75*
G02*
X8826500Y4725670I158750J0D01*
G01*
X8369300Y8262620D02*
G75*
G02*
X8051800Y8262620I-158750J0D01*
G01*
X8509000Y5201920D02*
X8509000Y6662420D01*
X8826500Y2693670D02*
G75*
G02*
X8509000Y2693670I-158750J0D01*
G01*
X-825500Y463702D02*
X-825500Y2114702D01*
X-825500Y2622702D02*
X-825500Y6686702D01*
X-825500Y2114702D02*
G75*
G02*
X-508000Y2114702I158750J0D01*
G01*
D11*
X8509000Y-132080D02*
X8509000Y-388620D01*
D10*
X-508000Y7258202D02*
X-508000Y8242452D01*
X-508000Y463702D02*
X-508000Y2114702D01*
D11*
X-388620Y9080500D02*
X2979120Y9080500D01*
D10*
X-508000Y7258202D02*
G75*
G02*
X-825500Y7258202I-158750J0D01*
G01*
X8525216Y7099325D02*
G75*
G02*
X8369295Y7258050I1404J157325D01*
G01*
X8051800Y7754620D02*
X8051800Y6901180D01*
D11*
X-412750Y5299786D02*
G75*
G02*
X-317500Y5182870I-24130J-116916D01*
G01*
D10*
X-825500Y8782202D02*
X-825500Y8961120D01*
X8509000Y-132080D02*
G75*
G02*
X8826500Y-132080I158750J0D01*
G01*
X8826500Y344170D02*
G75*
G02*
X8509000Y344170I-158750J0D01*
G01*
X8369300Y7754620D02*
X8369300Y7258050D01*
D11*
X-388620Y-508000D02*
G75*
G02*
X-508000Y-388620I0J119380D01*
G01*
D10*
X-825500Y7258202D02*
X-825500Y8242452D01*
D11*
X2979120Y-508000D02*
X-388620Y-508000D01*
X3098500Y-335280D02*
G75*
G02*
X3217880Y-215900I119380J0D01*
G01*
D10*
X-1778000Y8961120D02*
X-1778000Y-508000D01*
D11*
X5249880Y-508000D02*
G75*
G02*
X5130500Y-388620I0J119380D01*
G01*
X2979120Y9080500D02*
G75*
G02*
X3098500Y8961120I0J-119380D01*
G01*
D10*
X8826500Y344170D02*
X8826500Y2185670D01*
D11*
X3098500Y8907780D02*
X3098500Y8961120D01*
D10*
X8826500Y-508000D02*
X9779000Y-508000D01*
X8826500Y-508000D02*
X8826500Y-132080D01*
X4851900Y4287500D02*
G75*
G02*
X3150100Y4287500I-850900J0D01*
G01*
X3150100Y4287500D02*
G75*
G02*
X4851900Y4287500I850900J0D01*
G01*
X8667750Y7099569D02*
X8525216Y7099325D01*
D11*
X8389620Y6781800D02*
X8171180Y6781800D01*
D10*
X-825500Y-44298D02*
G75*
G02*
X-508000Y-44298I158750J0D01*
G01*
D11*
X5249880Y9080500D02*
X7932420Y9080500D01*
D10*
X-508000Y8782202D02*
X-508000Y8961120D01*
D11*
X8509000Y-388620D02*
G75*
G02*
X8389620Y-508000I-119380J0D01*
G01*
D10*
X-825500Y-508000D02*
X-1778000Y-508000D01*
D11*
X5130500Y8961120D02*
X5130500Y8907780D01*
X-508000Y3155798D02*
G75*
G02*
X-412750Y3272716I119380J2D01*
G01*
X7932420Y9080500D02*
G75*
G02*
X8051800Y8961120I0J-119380D01*
G01*
D10*
X-508000Y8782202D02*
G75*
G02*
X-825500Y8782202I-158750J0D01*
G01*
D11*
X3217880Y-215900D02*
X5011120Y-215900D01*
X3098500Y-388620D02*
X3098500Y-335280D01*
X5130500Y-335280D02*
X5130500Y-388620D01*
D10*
X8826500Y5201920D02*
X8826500Y6940819D01*
X8509000Y2185670D02*
G75*
G02*
X8826500Y2185670I158750J0D01*
G01*
X9779000Y-508000D02*
X9779000Y9080500D01*
X8509000Y2693670D02*
X8509000Y4725670D01*
D11*
X3098500Y-388620D02*
G75*
G02*
X2979120Y-508000I-119380J0D01*
G01*
X-508000Y8961120D02*
G75*
G02*
X-388620Y9080500I119380J0D01*
G01*
X5011120Y-215900D02*
G75*
G02*
X5130500Y-335280I0J-119380D01*
G01*
X8389620Y6781800D02*
G75*
G02*
X8509000Y6662420I0J-119380D01*
G01*
D10*
X-508000Y2622702D02*
X-508000Y3155798D01*
X8369300Y9080500D02*
X9779000Y9080500D01*
X8369300Y8961120D02*
X8369300Y9080500D01*
X8826500Y2693670D02*
X8826500Y4725670D01*
X-825500Y8242452D02*
G75*
G02*
X-508000Y8242452I158750J0D01*
G01*
X-825500Y6686702D02*
G75*
G02*
X-508000Y6686702I158750J0D01*
G01*
X8369300Y8961120D02*
X8369300Y8262620D01*
D11*
X8171180Y6781800D02*
G75*
G02*
X8051800Y6901180I0J119380D01*
G01*
D10*
X8667750Y7099569D02*
G75*
G02*
X8826499Y6940819I0J-158749D01*
G01*
D11*
X-1522223Y-829484D02*
X-1522223Y-629484D01*
X-1522223Y-629484D02*
X-1474604Y-629484D01*
X-1474604Y-629484D02*
X-1446033Y-639008D01*
X-1446033Y-639008D02*
X-1426985Y-658055D01*
X-1426985Y-658055D02*
X-1417461Y-677103D01*
X-1417461Y-677103D02*
X-1407937Y-715198D01*
X-1407937Y-715198D02*
X-1407937Y-743769D01*
X-1407937Y-743769D02*
X-1417461Y-781865D01*
X-1417461Y-781865D02*
X-1426985Y-800912D01*
X-1426985Y-800912D02*
X-1446033Y-819960D01*
X-1446033Y-819960D02*
X-1474604Y-829484D01*
X-1474604Y-829484D02*
X-1522223Y-829484D01*
X-1322223Y-829484D02*
X-1322223Y-696150D01*
X-1322223Y-734246D02*
X-1312699Y-715198D01*
X-1312699Y-715198D02*
X-1303176Y-705674D01*
X-1303176Y-705674D02*
X-1284128Y-696150D01*
X-1284128Y-696150D02*
X-1265080Y-696150D01*
X-1198414Y-829484D02*
X-1198414Y-696150D01*
X-1198414Y-629484D02*
X-1207938Y-639008D01*
X-1207938Y-639008D02*
X-1198414Y-648531D01*
X-1198414Y-648531D02*
X-1188890Y-639008D01*
X-1188890Y-639008D02*
X-1198414Y-629484D01*
X-1198414Y-629484D02*
X-1198414Y-648531D01*
X-1074604Y-829484D02*
X-1093652Y-819960D01*
X-1093652Y-819960D02*
X-1103176Y-800912D01*
X-1103176Y-800912D02*
X-1103176Y-629484D01*
X-969842Y-829484D02*
X-988890Y-819960D01*
X-988890Y-819960D02*
X-998414Y-800912D01*
X-998414Y-800912D02*
X-998414Y-629484D01*
X-741271Y-829484D02*
X-741271Y-629484D01*
X-741271Y-629484D02*
X-674604Y-772341D01*
X-674604Y-772341D02*
X-607938Y-629484D01*
X-607938Y-629484D02*
X-607938Y-829484D01*
X-426985Y-829484D02*
X-426985Y-724722D01*
X-426985Y-724722D02*
X-436509Y-705674D01*
X-436509Y-705674D02*
X-455556Y-696150D01*
X-455556Y-696150D02*
X-493652Y-696150D01*
X-493652Y-696150D02*
X-512699Y-705674D01*
X-426985Y-819960D02*
X-446033Y-829484D01*
X-446033Y-829484D02*
X-493652Y-829484D01*
X-493652Y-829484D02*
X-512699Y-819960D01*
X-512699Y-819960D02*
X-522223Y-800912D01*
X-522223Y-800912D02*
X-522223Y-781865D01*
X-522223Y-781865D02*
X-512699Y-762817D01*
X-512699Y-762817D02*
X-493652Y-753293D01*
X-493652Y-753293D02*
X-446033Y-753293D01*
X-446033Y-753293D02*
X-426985Y-743769D01*
X-331747Y-696150D02*
X-331747Y-896150D01*
X-331747Y-705674D02*
X-312699Y-696150D01*
X-312699Y-696150D02*
X-274604Y-696150D01*
X-274604Y-696150D02*
X-255556Y-705674D01*
X-255556Y-705674D02*
X-246033Y-715198D01*
X-246033Y-715198D02*
X-236509Y-734246D01*
X-236509Y-734246D02*
X-236509Y-791388D01*
X-236509Y-791388D02*
X-246033Y-810436D01*
X-246033Y-810436D02*
X-255556Y-819960D01*
X-255556Y-819960D02*
X-274604Y-829484D01*
X-274604Y-829484D02*
X-312699Y-829484D01*
X-312699Y-829484D02*
X-331747Y-819960D01*
X-150795Y-810436D02*
X-141271Y-819960D01*
X-141271Y-819960D02*
X-150795Y-829484D01*
X-150795Y-829484D02*
X-160318Y-819960D01*
X-160318Y-819960D02*
X-150795Y-810436D01*
X-150795Y-810436D02*
X-150795Y-829484D01*
X-150795Y-705674D02*
X-141271Y-715198D01*
X-141271Y-715198D02*
X-150795Y-724722D01*
X-150795Y-724722D02*
X-160318Y-715198D01*
X-160318Y-715198D02*
X-150795Y-705674D01*
X-150795Y-705674D02*
X-150795Y-724722D01*
M02*
