%TF.GenerationSoftware,KiCad,Pcbnew,8.0.1*%
%TF.CreationDate,2024-05-29T09:56:21-04:00*%
%TF.ProjectId,Avionics_Board,4176696f-6e69-4637-935f-426f6172642e,rev?*%
%TF.SameCoordinates,PX40311b0PY93281e8*%
%TF.FileFunction,Soldermask,Top*%
%TF.FilePolarity,Negative*%
%FSLAX46Y46*%
G04 Gerber Fmt 4.6, Leading zero omitted, Abs format (unit mm)*
G04 Created by KiCad (PCBNEW 8.0.1) date 2024-05-29 09:56:21*
%MOMM*%
%LPD*%
G01*
G04 APERTURE LIST*
G04 Aperture macros list*
%AMRoundRect*
0 Rectangle with rounded corners*
0 $1 Rounding radius*
0 $2 $3 $4 $5 $6 $7 $8 $9 X,Y pos of 4 corners*
0 Add a 4 corners polygon primitive as box body*
4,1,4,$2,$3,$4,$5,$6,$7,$8,$9,$2,$3,0*
0 Add four circle primitives for the rounded corners*
1,1,$1+$1,$2,$3*
1,1,$1+$1,$4,$5*
1,1,$1+$1,$6,$7*
1,1,$1+$1,$8,$9*
0 Add four rect primitives between the rounded corners*
20,1,$1+$1,$2,$3,$4,$5,0*
20,1,$1+$1,$4,$5,$6,$7,0*
20,1,$1+$1,$6,$7,$8,$9,0*
20,1,$1+$1,$8,$9,$2,$3,0*%
%AMFreePoly0*
4,1,35,0.535921,0.785921,0.550800,0.750000,0.550800,-0.750000,0.535921,-0.785921,0.500000,-0.800800,0.000000,-0.800800,-0.012286,-0.795711,-0.071157,-0.795711,-0.085469,-0.793653,-0.222020,-0.753558,-0.235173,-0.747552,-0.354895,-0.670611,-0.365822,-0.661142,-0.459019,-0.553587,-0.466836,-0.541423,-0.525955,-0.411969,-0.530029,-0.398096,-0.550283,-0.257230,-0.550800,-0.250000,-0.550800,0.250000,
-0.550283,0.257230,-0.530029,0.398096,-0.525955,0.411969,-0.466836,0.541423,-0.459019,0.553587,-0.365822,0.661142,-0.354895,0.670611,-0.235173,0.747552,-0.222020,0.753558,-0.085469,0.793653,-0.071157,0.795711,-0.012286,0.795711,0.000000,0.800800,0.500000,0.800800,0.535921,0.785921,0.535921,0.785921,$1*%
%AMFreePoly1*
4,1,35,0.012286,0.795711,0.071157,0.795711,0.085469,0.793653,0.222020,0.753558,0.235173,0.747552,0.354895,0.670611,0.365822,0.661142,0.459019,0.553587,0.466836,0.541423,0.525955,0.411969,0.530029,0.398096,0.550283,0.257230,0.550800,0.250000,0.550800,-0.250000,0.550283,-0.257230,0.530029,-0.398096,0.525955,-0.411969,0.466836,-0.541423,0.459019,-0.553587,0.365822,-0.661142,
0.354895,-0.670611,0.235173,-0.747552,0.222020,-0.753558,0.085469,-0.793653,0.071157,-0.795711,0.012286,-0.795711,0.000000,-0.800800,-0.500000,-0.800800,-0.535921,-0.785921,-0.550800,-0.750000,-0.550800,0.750000,-0.535921,0.785921,-0.500000,0.800800,0.000000,0.800800,0.012286,0.795711,0.012286,0.795711,$1*%
%AMFreePoly2*
4,1,16,0.535921,0.785921,0.542268,0.778179,1.042268,0.028179,1.049813,-0.009963,1.042268,-0.028179,0.542268,-0.778179,0.509963,-0.799813,0.500000,-0.800800,-0.500000,-0.800800,-0.535921,-0.785921,-0.550800,-0.750000,-0.550800,0.750000,-0.535921,0.785921,-0.500000,0.800800,0.500000,0.800800,0.535921,0.785921,0.535921,0.785921,$1*%
%AMFreePoly3*
4,1,16,0.535921,0.785921,0.550800,0.750000,0.550800,-0.750000,0.535921,-0.785921,0.500000,-0.800800,-0.650000,-0.800800,-0.685921,-0.785921,-0.700800,-0.750000,-0.692268,-0.721821,-0.211054,0.000000,-0.692268,0.721821,-0.699813,0.759963,-0.678179,0.792268,-0.650000,0.800800,0.500000,0.800800,0.535921,0.785921,0.535921,0.785921,$1*%
G04 Aperture macros list end*
%ADD10C,0.141224*%
%ADD11FreePoly0,90.000000*%
%ADD12FreePoly1,90.000000*%
%ADD13C,6.501600*%
%ADD14RoundRect,0.225400X0.225400X0.300400X-0.225400X0.300400X-0.225400X-0.300400X0.225400X-0.300400X0*%
%ADD15RoundRect,0.250400X-0.275400X0.250400X-0.275400X-0.250400X0.275400X-0.250400X0.275400X0.250400X0*%
%ADD16RoundRect,0.175400X-0.537900X-0.175400X0.537900X-0.175400X0.537900X0.175400X-0.537900X0.175400X0*%
%ADD17RoundRect,0.050800X0.850000X-0.850000X0.850000X0.850000X-0.850000X0.850000X-0.850000X-0.850000X0*%
%ADD18O,1.801600X1.801600*%
%ADD19RoundRect,0.050800X-1.900000X-1.000000X1.900000X-1.000000X1.900000X1.000000X-1.900000X1.000000X0*%
%ADD20RoundRect,0.050800X-0.325000X-0.200000X0.325000X-0.200000X0.325000X0.200000X-0.325000X0.200000X0*%
%ADD21RoundRect,0.244150X-0.281650X0.244150X-0.281650X-0.244150X0.281650X-0.244150X0.281650X0.244150X0*%
%ADD22RoundRect,0.050800X0.900000X-0.500000X0.900000X0.500000X-0.900000X0.500000X-0.900000X-0.500000X0*%
%ADD23RoundRect,0.225400X0.300400X-0.225400X0.300400X0.225400X-0.300400X0.225400X-0.300400X-0.225400X0*%
%ADD24RoundRect,0.050800X1.000000X-1.000000X1.000000X1.000000X-1.000000X1.000000X-1.000000X-1.000000X0*%
%ADD25RoundRect,0.225400X-0.300400X0.225400X-0.300400X-0.225400X0.300400X-0.225400X0.300400X0.225400X0*%
%ADD26RoundRect,0.100400X-0.687900X-0.100400X0.687900X-0.100400X0.687900X0.100400X-0.687900X0.100400X0*%
%ADD27RoundRect,0.100400X-0.100400X-0.687900X0.100400X-0.687900X0.100400X0.687900X-0.100400X0.687900X0*%
%ADD28RoundRect,0.175400X-0.850400X-0.175400X0.850400X-0.175400X0.850400X0.175400X-0.850400X0.175400X0*%
%ADD29RoundRect,0.250400X0.275400X-0.250400X0.275400X0.250400X-0.275400X0.250400X-0.275400X-0.250400X0*%
%ADD30RoundRect,0.050800X-1.000000X-1.000000X1.000000X-1.000000X1.000000X1.000000X-1.000000X1.000000X0*%
%ADD31RoundRect,0.250400X0.250400X0.275400X-0.250400X0.275400X-0.250400X-0.275400X0.250400X-0.275400X0*%
%ADD32RoundRect,0.050800X-0.850000X-0.850000X0.850000X-0.850000X0.850000X0.850000X-0.850000X0.850000X0*%
%ADD33RoundRect,0.244150X0.244150X0.281650X-0.244150X0.281650X-0.244150X-0.281650X0.244150X-0.281650X0*%
%ADD34C,2.500000*%
%ADD35RoundRect,0.175400X-0.675400X-0.175400X0.675400X-0.175400X0.675400X0.175400X-0.675400X0.175400X0*%
%ADD36RoundRect,0.250400X-0.250400X-0.275400X0.250400X-0.275400X0.250400X0.275400X-0.250400X0.275400X0*%
%ADD37RoundRect,0.272087X0.353713X0.678713X-0.353713X0.678713X-0.353713X-0.678713X0.353713X-0.678713X0*%
%ADD38RoundRect,0.225400X-0.225400X-0.300400X0.225400X-0.300400X0.225400X0.300400X-0.225400X0.300400X0*%
%ADD39RoundRect,0.050800X-1.000000X-0.750000X1.000000X-0.750000X1.000000X0.750000X-1.000000X0.750000X0*%
%ADD40RoundRect,0.050800X-1.000000X-1.900000X1.000000X-1.900000X1.000000X1.900000X-1.000000X1.900000X0*%
%ADD41RoundRect,0.225400X-0.625400X0.225400X-0.625400X-0.225400X0.625400X-0.225400X0.625400X0.225400X0*%
%ADD42RoundRect,0.262096X-1.288704X0.838704X-1.288704X-0.838704X1.288704X-0.838704X1.288704X0.838704X0*%
%ADD43RoundRect,0.050800X-0.675000X0.200000X-0.675000X-0.200000X0.675000X-0.200000X0.675000X0.200000X0*%
%ADD44O,2.001600X1.301600*%
%ADD45RoundRect,0.050800X-0.950000X0.600000X-0.950000X-0.600000X0.950000X-0.600000X0.950000X0.600000X0*%
%ADD46C,1.551600*%
%ADD47RoundRect,0.050800X-0.950000X0.750000X-0.950000X-0.750000X0.950000X-0.750000X0.950000X0.750000X0*%
%ADD48RoundRect,0.269150X-0.269150X-0.481650X0.269150X-0.481650X0.269150X0.481650X-0.269150X0.481650X0*%
%ADD49RoundRect,0.125400X0.125400X-0.662900X0.125400X0.662900X-0.125400X0.662900X-0.125400X-0.662900X0*%
%ADD50RoundRect,0.272087X-0.353713X-0.678713X0.353713X-0.678713X0.353713X0.678713X-0.353713X0.678713X0*%
%ADD51FreePoly0,270.000000*%
%ADD52FreePoly1,270.000000*%
%ADD53RoundRect,0.050800X-1.200000X-0.370000X1.200000X-0.370000X1.200000X0.370000X-1.200000X0.370000X0*%
%ADD54RoundRect,0.262860X2.487940X-0.775440X2.487940X0.775440X-2.487940X0.775440X-2.487940X-0.775440X0*%
%ADD55RoundRect,0.175400X0.175400X-0.537900X0.175400X0.537900X-0.175400X0.537900X-0.175400X-0.537900X0*%
%ADD56RoundRect,0.050800X1.000000X1.000000X-1.000000X1.000000X-1.000000X-1.000000X1.000000X-1.000000X0*%
%ADD57RoundRect,0.050800X0.800000X-0.800000X0.800000X0.800000X-0.800000X0.800000X-0.800000X-0.800000X0*%
%ADD58O,1.701600X1.701600*%
%ADD59C,1.801600*%
%ADD60C,3.911600*%
%ADD61RoundRect,0.244150X-0.244150X-0.281650X0.244150X-0.281650X0.244150X0.281650X-0.244150X0.281650X0*%
%ADD62RoundRect,0.262860X0.775440X2.487940X-0.775440X2.487940X-0.775440X-2.487940X0.775440X-2.487940X0*%
%ADD63FreePoly2,270.000000*%
%ADD64FreePoly3,270.000000*%
G04 APERTURE END LIST*
D10*
G36*
X77515429Y62235399D02*
G01*
X77515429Y61854239D01*
X77373983Y61854239D01*
X77373983Y61473079D01*
X76949273Y61473079D01*
X76949273Y62365305D01*
X76954704Y62453370D01*
X76970996Y62535547D01*
X76998149Y62611834D01*
X77036164Y62682233D01*
X77085041Y62746743D01*
X77103747Y62766937D01*
X77164488Y62821079D01*
X77230856Y62864019D01*
X77302851Y62895757D01*
X77380474Y62916293D01*
X77463723Y62925628D01*
X77492723Y62926250D01*
X77571387Y62921143D01*
X77645925Y62905821D01*
X77716337Y62880285D01*
X77782623Y62844535D01*
X77844784Y62798570D01*
X77902819Y62742391D01*
X77924878Y62717059D01*
X77576102Y62465062D01*
X77532147Y62527506D01*
X77472251Y62545091D01*
X77401717Y62515647D01*
X77375518Y62442496D01*
X77373983Y62411089D01*
X77373983Y62235399D01*
X77515429Y62235399D01*
G37*
G36*
X78367827Y62902428D02*
G01*
X78367827Y61473079D01*
X77976617Y61473079D01*
X77976617Y62902428D01*
X78367827Y62902428D01*
G37*
G36*
X78985722Y62521268D02*
G01*
X78985722Y61473079D01*
X78594512Y61473079D01*
X78594512Y62521268D01*
X78985722Y62521268D01*
G37*
G36*
X78791048Y62997718D02*
G01*
X78865307Y62983480D01*
X78928771Y62940767D01*
X78972322Y62878605D01*
X78986839Y62806021D01*
X78973066Y62730459D01*
X78931749Y62669786D01*
X78864788Y62628254D01*
X78791048Y62616558D01*
X78717226Y62628254D01*
X78649974Y62669786D01*
X78607280Y62734746D01*
X78595257Y62806021D01*
X78611645Y62882796D01*
X78653324Y62940767D01*
X78716789Y62983480D01*
X78791048Y62997718D01*
G37*
G36*
X79769258Y61905234D02*
G01*
X79769258Y61544547D01*
X79696424Y61528262D01*
X79621550Y61520934D01*
X79606967Y61520724D01*
X79526856Y61527564D01*
X79452301Y61548083D01*
X79383304Y61582281D01*
X79319865Y61630159D01*
X79286108Y61663659D01*
X79234910Y61729402D01*
X79196287Y61801236D01*
X79170239Y61879162D01*
X79156766Y61963179D01*
X79154713Y62013924D01*
X79160261Y62095354D01*
X79176907Y62171864D01*
X79204649Y62243454D01*
X79243488Y62310123D01*
X79293425Y62371872D01*
X79312536Y62391361D01*
X79374399Y62443605D01*
X79441338Y62485040D01*
X79513355Y62515666D01*
X79590450Y62535483D01*
X79672622Y62544490D01*
X79701140Y62545091D01*
X79776662Y62540256D01*
X79850147Y62525752D01*
X79921597Y62501579D01*
X79935643Y62495585D01*
X80006953Y62457547D01*
X80066826Y62411504D01*
X80111334Y62362700D01*
X80152959Y62296334D01*
X80184361Y62218070D01*
X80203140Y62141516D01*
X80214407Y62056221D01*
X80218058Y61978464D01*
X80218163Y61962185D01*
X80218163Y61617131D01*
X80214291Y61533366D01*
X80202677Y61454689D01*
X80183321Y61381102D01*
X80149873Y61299515D01*
X80105275Y61225255D01*
X80059594Y61168971D01*
X79996768Y61110402D01*
X79927215Y61063951D01*
X79850937Y61029617D01*
X79767932Y61007401D01*
X79693623Y60998145D01*
X79646795Y60996630D01*
X79571213Y61003470D01*
X79493953Y61020220D01*
X79451005Y61032364D01*
X79451005Y61384117D01*
X79523032Y61362476D01*
X79600944Y61353997D01*
X79605851Y61353967D01*
X79683997Y61364963D01*
X79750154Y61401401D01*
X79769258Y61420596D01*
X79808698Y61489613D01*
X79824925Y61566350D01*
X79826953Y61610803D01*
X79826953Y62004991D01*
X79816441Y62081822D01*
X79769724Y62145150D01*
X79694068Y62163931D01*
X79620044Y62143164D01*
X79595056Y62123731D01*
X79555979Y62059597D01*
X79552622Y62031046D01*
X79575235Y61958323D01*
X79592823Y61938734D01*
X79660802Y61904799D01*
X79692951Y61901884D01*
X79769258Y61905234D01*
G37*
G36*
X80833452Y62902428D02*
G01*
X80833452Y62469529D01*
X80901779Y62512549D01*
X80976317Y62539114D01*
X81032221Y62545091D01*
X81112252Y62536375D01*
X81182331Y62510229D01*
X81248525Y62460735D01*
X81271562Y62434912D01*
X81314387Y62367021D01*
X81340687Y62296391D01*
X81355913Y62216084D01*
X81360152Y62137875D01*
X81360152Y61473079D01*
X80968570Y61473079D01*
X80968570Y62026952D01*
X80964095Y62101399D01*
X80954426Y62136014D01*
X80899336Y62163931D01*
X80841237Y62111832D01*
X80833452Y62042958D01*
X80833452Y61473079D01*
X80442243Y61473079D01*
X80442243Y62902428D01*
X80833452Y62902428D01*
G37*
G36*
X81931147Y62902428D02*
G01*
X81931147Y62497446D01*
X82107210Y62497446D01*
X82107210Y62092464D01*
X81931147Y62092464D01*
X81935765Y62015416D01*
X81956948Y61939980D01*
X81970231Y61919379D01*
X82035229Y61881154D01*
X82114282Y61872106D01*
X82114282Y61458935D01*
X82069243Y61473079D01*
X81987644Y61478968D01*
X81908953Y61496634D01*
X81833170Y61526078D01*
X81818363Y61533380D01*
X81749392Y61575481D01*
X81689508Y61625942D01*
X81638713Y61684764D01*
X81629644Y61697532D01*
X81590234Y61768999D01*
X81564988Y61840388D01*
X81548362Y61920042D01*
X81540973Y61994894D01*
X81539565Y62048169D01*
X81539565Y62902428D01*
X81931147Y62902428D01*
G37*
D11*
%TO.C,JP2*%
X52070000Y73005000D03*
D12*
X52070000Y74305000D03*
%TD*%
D13*
%TO.C,H5*%
X80010000Y-5000D03*
%TD*%
D14*
%TO.C,R14*%
X28511000Y69845000D03*
X26861000Y69845000D03*
%TD*%
D15*
%TO.C,C18*%
X60960000Y23254000D03*
X60960000Y21704000D03*
%TD*%
D16*
%TO.C,U24*%
X24770500Y37521000D03*
X24770500Y36571000D03*
X24770500Y35621000D03*
X27045500Y35621000D03*
X27045500Y37521000D03*
%TD*%
D17*
%TO.C,H1*%
X8890000Y78105000D03*
D18*
X8890000Y80645000D03*
X11430000Y78105000D03*
X11430000Y80655000D03*
X13970000Y78105000D03*
X13970000Y80655000D03*
X16510000Y78105000D03*
X16510000Y80655000D03*
X19050000Y78105000D03*
X19050000Y80655000D03*
X21590000Y78105000D03*
X21590000Y80655000D03*
X24130000Y78105000D03*
X24130000Y80655000D03*
X26670000Y78105000D03*
X26670000Y80655000D03*
X29210000Y78105000D03*
X29210000Y80655000D03*
X31750000Y78105000D03*
X31750000Y80655000D03*
X34290000Y78105000D03*
X34290000Y80655000D03*
X36830000Y78105000D03*
X36830000Y80655000D03*
X39370000Y78105000D03*
X39370000Y80655000D03*
X41910000Y78105000D03*
X41910000Y80655000D03*
X44450000Y78105000D03*
X44450000Y80655000D03*
X46990000Y78105000D03*
X46990000Y80655000D03*
X49530000Y78105000D03*
X49530000Y80655000D03*
X52070000Y78105000D03*
X52070000Y80655000D03*
X54610000Y78105000D03*
X54610000Y80655000D03*
X57150000Y78105000D03*
X57150000Y80655000D03*
X59690000Y78105000D03*
X59690000Y80655000D03*
X62230000Y78105000D03*
X62230000Y80655000D03*
X64770000Y78105000D03*
X64770000Y80655000D03*
X67310000Y78105000D03*
X67310000Y80655000D03*
X69850000Y78105000D03*
X69850000Y80655000D03*
X72390000Y78105000D03*
X72390000Y80655000D03*
%TD*%
D19*
%TO.C,TP17*%
X73533000Y-2032001D03*
%TD*%
D20*
%TO.C,U13*%
X16068000Y40523000D03*
X16068000Y39873000D03*
X16068000Y39223000D03*
X17968000Y39223000D03*
X17968000Y40523000D03*
%TD*%
D14*
%TO.C,R7*%
X35877000Y22093000D03*
X34227000Y22093000D03*
%TD*%
D21*
%TO.C,D1*%
X-2984574Y9220960D03*
X-2984574Y7645960D03*
%TD*%
D14*
%TO.C,R11*%
X70421000Y9017000D03*
X68771000Y9017000D03*
%TD*%
D22*
%TO.C,Y1*%
X56642000Y12675000D03*
X56642000Y10175000D03*
%TD*%
D23*
%TO.C,R23*%
X62230000Y38164000D03*
X62230000Y39814000D03*
%TD*%
D24*
%TO.C,TP6*%
X13716000Y-2545000D03*
%TD*%
D25*
%TO.C,R35*%
X29337000Y45909999D03*
X29337000Y44259999D03*
%TD*%
D16*
%TO.C,U7*%
X16388500Y72573000D03*
X16388500Y71623000D03*
X16388500Y70673000D03*
X18663500Y70673000D03*
X18663500Y72573000D03*
%TD*%
D15*
%TO.C,C32*%
X21840326Y63259015D03*
X21840326Y61709015D03*
%TD*%
D20*
%TO.C,U21*%
X24958000Y49667000D03*
X24958000Y49017000D03*
X24958000Y48367000D03*
X26858000Y48367000D03*
X26858000Y49667000D03*
%TD*%
D26*
%TO.C,U9*%
X57559500Y32717000D03*
X57559500Y32217000D03*
X57559500Y31717000D03*
X57559500Y31217000D03*
X57559500Y30717000D03*
X57559500Y30217000D03*
X57559500Y29717000D03*
X57559500Y29217000D03*
X57559500Y28717000D03*
X57559500Y28217000D03*
X57559500Y27717000D03*
X57559500Y27217000D03*
D27*
X58972000Y25804500D03*
X59472000Y25804500D03*
X59972000Y25804500D03*
X60472000Y25804500D03*
X60972000Y25804500D03*
X61472000Y25804500D03*
X61972000Y25804500D03*
X62472000Y25804500D03*
X62972000Y25804500D03*
X63472000Y25804500D03*
X63972000Y25804500D03*
X64472000Y25804500D03*
D26*
X65884500Y27217000D03*
X65884500Y27717000D03*
X65884500Y28217000D03*
X65884500Y28717000D03*
X65884500Y29217000D03*
X65884500Y29717000D03*
X65884500Y30217000D03*
X65884500Y30717000D03*
X65884500Y31217000D03*
X65884500Y31717000D03*
X65884500Y32217000D03*
X65884500Y32717000D03*
D27*
X64472000Y34129500D03*
X63972000Y34129500D03*
X63472000Y34129500D03*
X62972000Y34129500D03*
X62472000Y34129500D03*
X61972000Y34129500D03*
X61472000Y34129500D03*
X60972000Y34129500D03*
X60472000Y34129500D03*
X59972000Y34129500D03*
X59472000Y34129500D03*
X58972000Y34129500D03*
%TD*%
D24*
%TO.C,TP12*%
X16510000Y17907000D03*
%TD*%
D14*
%TO.C,R18*%
X8890000Y12695000D03*
X7240000Y12695000D03*
%TD*%
D28*
%TO.C,U3*%
X60706000Y11806000D03*
X60706000Y10536000D03*
X60706000Y9266000D03*
X60706000Y7996000D03*
X65656000Y7996000D03*
X65656000Y9266000D03*
X65656000Y10536000D03*
X65656000Y11806000D03*
%TD*%
D19*
%TO.C,TP16*%
X16764000Y24510999D03*
%TD*%
D21*
%TO.C,L3*%
X20129426Y63271515D03*
X20129426Y61696515D03*
%TD*%
D20*
%TO.C,U19*%
X24958000Y58811000D03*
X24958000Y58161000D03*
X24958000Y57511000D03*
X26858000Y57511000D03*
X26858000Y58811000D03*
%TD*%
D14*
%TO.C,R15*%
X28511000Y73655000D03*
X26861000Y73655000D03*
%TD*%
D24*
%TO.C,TP14*%
X35306000Y32639000D03*
%TD*%
D13*
%TO.C,H3*%
X3810000Y85725000D03*
%TD*%
D29*
%TO.C,C21*%
X70612000Y32240000D03*
X70612000Y33790000D03*
%TD*%
D30*
%TO.C,TP5*%
X13716000Y757000D03*
%TD*%
D31*
%TO.C,C31*%
X29985000Y40635000D03*
X28435000Y40635000D03*
%TD*%
D32*
%TO.C,J1*%
X80010000Y45715000D03*
D18*
X80010000Y43175000D03*
X80010000Y40635000D03*
X80010000Y38095000D03*
X80010000Y35555000D03*
X80010000Y33015000D03*
X80010000Y30475000D03*
X80010000Y27935000D03*
%TD*%
D14*
%TO.C,R4*%
X53149000Y27813000D03*
X51499000Y27813000D03*
%TD*%
D24*
%TO.C,TP15*%
X44450000Y31623000D03*
%TD*%
D33*
%TO.C,L1*%
X42189500Y73655000D03*
X40614500Y73655000D03*
%TD*%
D24*
%TO.C,TP8*%
X20574000Y10663000D03*
%TD*%
D34*
%TO.C,FID3*%
X73723426Y3607460D03*
%TD*%
D14*
%TO.C,R5*%
X35877000Y25141000D03*
X34227000Y25141000D03*
%TD*%
D15*
%TO.C,C25*%
X64770000Y54364000D03*
X64770000Y52814000D03*
%TD*%
D14*
%TO.C,R27*%
X51879000Y64511000D03*
X50229000Y64511000D03*
%TD*%
D13*
%TO.C,H6*%
X0Y0D03*
%TD*%
D35*
%TO.C,U1*%
X37802000Y25014000D03*
X37802000Y23744000D03*
X37802000Y22474000D03*
X37802000Y21204000D03*
X45002000Y21204000D03*
X45002000Y22474000D03*
X45002000Y23744000D03*
X45002000Y25014000D03*
%TD*%
D23*
%TO.C,R2*%
X57658000Y38164000D03*
X57658000Y39814000D03*
%TD*%
D19*
%TO.C,TP18*%
X73787000Y38353999D03*
%TD*%
D28*
%TO.C,U12*%
X53913000Y56891000D03*
X53913000Y55621000D03*
X53913000Y54351000D03*
X53913000Y53081000D03*
X53913000Y51811000D03*
X53913000Y50541000D03*
X53913000Y49271000D03*
X58863000Y49271000D03*
X58863000Y50541000D03*
X58863000Y51811000D03*
X58863000Y53081000D03*
X58863000Y54351000D03*
X58863000Y55621000D03*
X58863000Y56891000D03*
%TD*%
D30*
%TO.C,TP2*%
X13716000Y10663000D03*
%TD*%
%TO.C,TP3*%
X13716000Y7361000D03*
%TD*%
D15*
%TO.C,C7*%
X24130000Y67585000D03*
X24130000Y66035000D03*
%TD*%
D21*
%TO.C,D4*%
X-2984574Y24333960D03*
X-2984574Y22758960D03*
%TD*%
D36*
%TO.C,C1*%
X43675000Y26797000D03*
X45225000Y26797000D03*
%TD*%
D15*
%TO.C,C33*%
X18465426Y63259015D03*
X18465426Y61709015D03*
%TD*%
D37*
%TO.C,C14*%
X35765000Y66035000D03*
X32815000Y66035000D03*
%TD*%
D38*
%TO.C,R34*%
X28956426Y36627460D03*
X30606426Y36627460D03*
%TD*%
D15*
%TO.C,C8*%
X22352000Y67572000D03*
X22352000Y66022000D03*
%TD*%
D19*
%TO.C,TP19*%
X72009000Y61086999D03*
%TD*%
D39*
%TO.C,U8*%
X3898426Y70423460D03*
X3898426Y68123460D03*
D40*
X10198426Y68123460D03*
D39*
X3898426Y65823460D03*
%TD*%
D14*
%TO.C,R17*%
X8890000Y7615000D03*
X7240000Y7615000D03*
%TD*%
D25*
%TO.C,R19*%
X-1270000Y51620000D03*
X-1270000Y49970000D03*
%TD*%
D41*
%TO.C,J6*%
X10037426Y43120460D03*
X10037426Y41870460D03*
X10037426Y40620460D03*
X10037426Y39370460D03*
D42*
X7137426Y45670460D03*
X7137426Y36820460D03*
%TD*%
D38*
%TO.C,R22*%
X7240000Y27935000D03*
X8890000Y27935000D03*
%TD*%
D14*
%TO.C,R13*%
X28511000Y71877000D03*
X26861000Y71877000D03*
%TD*%
D16*
%TO.C,U18*%
X15880500Y46665000D03*
X15880500Y45715000D03*
X15880500Y44765000D03*
X18155500Y44765000D03*
X18155500Y46665000D03*
%TD*%
D28*
%TO.C,U11*%
X53913000Y67051000D03*
X53913000Y65781000D03*
X53913000Y64511000D03*
X53913000Y63241000D03*
X53913000Y61971000D03*
X53913000Y60701000D03*
X53913000Y59431000D03*
X58863000Y59431000D03*
X58863000Y60701000D03*
X58863000Y61971000D03*
X58863000Y63241000D03*
X58863000Y64511000D03*
X58863000Y65781000D03*
X58863000Y67051000D03*
%TD*%
D11*
%TO.C,JP8*%
X16319426Y63013460D03*
D12*
X16319426Y64313460D03*
%TD*%
D43*
%TO.C,J2*%
X-830600Y59715000D03*
X-830600Y59065000D03*
X-830600Y58415000D03*
X-830600Y57765000D03*
X-830600Y57115000D03*
D44*
X-3530600Y61915000D03*
D45*
X-3530600Y61315000D03*
D46*
X-830600Y60915000D03*
D47*
X-3530600Y59415000D03*
X-3530600Y57415000D03*
D46*
X-830600Y55915000D03*
D45*
X-3530600Y55515000D03*
D44*
X-3530600Y54915000D03*
%TD*%
D15*
%TO.C,C10*%
X254000Y51575000D03*
X254000Y50025000D03*
%TD*%
D25*
%TO.C,R37*%
X12382426Y68059460D03*
X12382426Y66409460D03*
%TD*%
D15*
%TO.C,C9*%
X18796000Y67572000D03*
X18796000Y66022000D03*
%TD*%
D36*
%TO.C,C23*%
X60947000Y56891000D03*
X62497000Y56891000D03*
%TD*%
D24*
%TO.C,TP13*%
X55372000Y44323000D03*
%TD*%
D21*
%TO.C,D2*%
X-2984574Y14300960D03*
X-2984574Y12725960D03*
%TD*%
D31*
%TO.C,C30*%
X29985000Y49779000D03*
X28435000Y49779000D03*
%TD*%
D48*
%TO.C,F1*%
X2872500Y60955000D03*
X4747500Y60955000D03*
%TD*%
D34*
%TO.C,FID1*%
X8445426Y1321460D03*
%TD*%
D36*
%TO.C,C22*%
X60947000Y67051000D03*
X62497000Y67051000D03*
%TD*%
D30*
%TO.C,TP1*%
X13716000Y13965000D03*
%TD*%
D14*
%TO.C,R9*%
X39687000Y18029000D03*
X38037000Y18029000D03*
%TD*%
D20*
%TO.C,U15*%
X16068000Y58811000D03*
X16068000Y58161000D03*
X16068000Y57511000D03*
X17968000Y57511000D03*
X17968000Y58811000D03*
%TD*%
D29*
%TO.C,C19*%
X68072000Y32880000D03*
X68072000Y34430000D03*
%TD*%
D25*
%TO.C,R16*%
X20828000Y67622000D03*
X20828000Y65972000D03*
%TD*%
D49*
%TO.C,U10*%
X71415000Y24310500D03*
X72065000Y24310500D03*
X72715000Y24310500D03*
X73365000Y24310500D03*
X73365000Y30035500D03*
X72715000Y30035500D03*
X72065000Y30035500D03*
X71415000Y30035500D03*
%TD*%
D50*
%TO.C,C16*%
X50087000Y33401000D03*
X53037000Y33401000D03*
%TD*%
D23*
%TO.C,R1*%
X59182000Y38164000D03*
X59182000Y39814000D03*
%TD*%
D51*
%TO.C,JP10*%
X13652426Y64328460D03*
D52*
X13652426Y63028460D03*
%TD*%
D25*
%TO.C,R26*%
X72136000Y33840000D03*
X72136000Y32190000D03*
%TD*%
D31*
%TO.C,C26*%
X21095000Y40635000D03*
X19545000Y40635000D03*
%TD*%
D38*
%TO.C,R36*%
X28829426Y54915460D03*
X30479426Y54915460D03*
%TD*%
D36*
%TO.C,C5*%
X44183000Y73655000D03*
X45733000Y73655000D03*
%TD*%
D31*
%TO.C,C15*%
X53099000Y31369000D03*
X51549000Y31369000D03*
%TD*%
D53*
%TO.C,J5*%
X76110000Y55875000D03*
X80010000Y55875000D03*
X76110000Y54605000D03*
X80010000Y54605000D03*
X76110000Y53335000D03*
X80010000Y53335000D03*
X76110000Y52065000D03*
X80010000Y52065000D03*
X76110000Y50795000D03*
X80010000Y50795000D03*
%TD*%
D16*
%TO.C,U20*%
X24770500Y55809000D03*
X24770500Y54859000D03*
X24770500Y53909000D03*
X27045500Y53909000D03*
X27045500Y55809000D03*
%TD*%
D24*
%TO.C,TP7*%
X20574000Y13965000D03*
%TD*%
%TO.C,TP9*%
X20574000Y7361000D03*
%TD*%
D14*
%TO.C,R10*%
X70421000Y7493000D03*
X68771000Y7493000D03*
%TD*%
%TO.C,R6*%
X35877000Y23617000D03*
X34227000Y23617000D03*
%TD*%
D20*
%TO.C,U17*%
X16068000Y49667000D03*
X16068000Y49017000D03*
X16068000Y48367000D03*
X17968000Y48367000D03*
X17968000Y49667000D03*
%TD*%
D50*
%TO.C,C20*%
X52119000Y39243000D03*
X55069000Y39243000D03*
%TD*%
D11*
%TO.C,JP5*%
X62230000Y73005000D03*
D12*
X62230000Y74305000D03*
%TD*%
D54*
%TO.C,C12*%
X-698574Y73359960D03*
X-698574Y78634960D03*
%TD*%
D21*
%TO.C,D3*%
X-2984574Y19380960D03*
X-2984574Y17805960D03*
%TD*%
D15*
%TO.C,C4*%
X70358000Y46876000D03*
X70358000Y45326000D03*
%TD*%
D55*
%TO.C,U5*%
X68326000Y41021000D03*
X69276000Y41021000D03*
X70226000Y41021000D03*
X70226000Y43296000D03*
X69276000Y43296000D03*
X68326000Y43296000D03*
%TD*%
D14*
%TO.C,R21*%
X8890000Y22855000D03*
X7240000Y22855000D03*
%TD*%
D32*
%TO.C,J3*%
X80010000Y22855000D03*
D18*
X80010000Y20315000D03*
%TD*%
D11*
%TO.C,JP7*%
X67310000Y73005000D03*
D12*
X67310000Y74305000D03*
%TD*%
D23*
%TO.C,R31*%
X13779426Y49201460D03*
X13779426Y50851460D03*
%TD*%
D15*
%TO.C,C24*%
X64770000Y64524000D03*
X64770000Y62974000D03*
%TD*%
D31*
%TO.C,C28*%
X21095000Y49779000D03*
X19545000Y49779000D03*
%TD*%
D54*
%TO.C,C11*%
X-698574Y65358960D03*
X-698574Y70633960D03*
%TD*%
D16*
%TO.C,U25*%
X14298426Y68250460D03*
X14298426Y67300460D03*
X14298426Y66350460D03*
X16573426Y66350460D03*
X16573426Y68250460D03*
%TD*%
D11*
%TO.C,JP3*%
X54610000Y73005000D03*
D12*
X54610000Y74305000D03*
%TD*%
D14*
%TO.C,R8*%
X36639000Y18029000D03*
X34989000Y18029000D03*
%TD*%
D16*
%TO.C,U22*%
X24770500Y46665000D03*
X24770500Y45715000D03*
X24770500Y44765000D03*
X27045500Y44765000D03*
X27045500Y46665000D03*
%TD*%
D31*
%TO.C,C2*%
X70371000Y12065000D03*
X68821000Y12065000D03*
%TD*%
D38*
%TO.C,R33*%
X19812426Y36754460D03*
X21462426Y36754460D03*
%TD*%
D25*
%TO.C,R25*%
X71374000Y54292000D03*
X71374000Y52642000D03*
%TD*%
D56*
%TO.C,TP10*%
X56642000Y2413000D03*
%TD*%
D13*
%TO.C,H4*%
X77470000Y85725000D03*
%TD*%
D16*
%TO.C,U14*%
X15880500Y37521000D03*
X15880500Y36571000D03*
X15880500Y35621000D03*
X18155500Y35621000D03*
X18155500Y37521000D03*
%TD*%
%TO.C,U16*%
X15880500Y55809000D03*
X15880500Y54859000D03*
X15880500Y53909000D03*
X18155500Y53909000D03*
X18155500Y55809000D03*
%TD*%
D11*
%TO.C,JP6*%
X64770000Y73005000D03*
D12*
X64770000Y74305000D03*
%TD*%
D25*
%TO.C,R24*%
X63754000Y39814000D03*
X63754000Y38164000D03*
%TD*%
D31*
%TO.C,C27*%
X21095000Y58923000D03*
X19545000Y58923000D03*
%TD*%
D14*
%TO.C,R29*%
X62547000Y64511000D03*
X60897000Y64511000D03*
%TD*%
D23*
%TO.C,R3*%
X66802000Y38164000D03*
X66802000Y39814000D03*
%TD*%
D34*
%TO.C,FID2*%
X75501426Y72949460D03*
%TD*%
D25*
%TO.C,R32*%
X13398426Y54597460D03*
X13398426Y52947460D03*
%TD*%
D24*
%TO.C,TP11*%
X20574000Y757000D03*
%TD*%
D14*
%TO.C,R20*%
X8953000Y17775000D03*
X7303000Y17775000D03*
%TD*%
D20*
%TO.C,U23*%
X24958000Y40523000D03*
X24958000Y39873000D03*
X24958000Y39223000D03*
X26858000Y39223000D03*
X26858000Y40523000D03*
%TD*%
D14*
%TO.C,R28*%
X51879000Y54351000D03*
X50229000Y54351000D03*
%TD*%
D57*
%TO.C,U4*%
X60208000Y-2789000D03*
D58*
X62748000Y-2789000D03*
X65288000Y-2789000D03*
X67828000Y-2789000D03*
X67828000Y4831000D03*
X65288000Y4831000D03*
X62748000Y4831000D03*
X60208000Y4831000D03*
%TD*%
D20*
%TO.C,U6*%
X26736000Y67447000D03*
X26736000Y66797000D03*
X26736000Y66147000D03*
X28636000Y66147000D03*
X28636000Y67447000D03*
%TD*%
D59*
%TO.C,U2*%
X46831000Y14632000D03*
X44291000Y14632000D03*
X41751000Y14632000D03*
X39211000Y14632000D03*
X36671000Y14632000D03*
X34131000Y14632000D03*
X34131000Y1932000D03*
X36671000Y1932000D03*
X39211000Y1932000D03*
X41751000Y1932000D03*
X44291000Y1932000D03*
X46831000Y1932000D03*
D60*
X30321000Y14632000D03*
X30321000Y1932000D03*
X50641000Y14632000D03*
X50641000Y1932000D03*
%TD*%
D31*
%TO.C,C29*%
X29985000Y58923000D03*
X28435000Y58923000D03*
%TD*%
D29*
%TO.C,C13*%
X65278000Y38214000D03*
X65278000Y39764000D03*
%TD*%
D32*
%TO.C,J4*%
X77470000Y15235000D03*
D18*
X80010000Y15235000D03*
X77470000Y12695000D03*
X80010000Y12695000D03*
X77470000Y10155000D03*
X80010000Y10155000D03*
%TD*%
D14*
%TO.C,R30*%
X62547000Y54351000D03*
X60897000Y54351000D03*
%TD*%
D51*
%TO.C,JP1*%
X62230000Y45481000D03*
D52*
X62230000Y44181000D03*
%TD*%
D21*
%TO.C,D5*%
X-2984574Y29540960D03*
X-2984574Y27965960D03*
%TD*%
D29*
%TO.C,C17*%
X60706000Y38214000D03*
X60706000Y39764000D03*
%TD*%
D61*
%TO.C,L2*%
X51536500Y29591000D03*
X53111500Y29591000D03*
%TD*%
D62*
%TO.C,C6*%
X38197500Y71115000D03*
X32922500Y71115000D03*
%TD*%
D11*
%TO.C,JP4*%
X59690000Y73005000D03*
D12*
X59690000Y74305000D03*
%TD*%
D63*
%TO.C,JP9*%
X25687326Y64389015D03*
D64*
X25687326Y62939015D03*
%TD*%
D17*
%TO.C,H2*%
X8890000Y83185000D03*
D18*
X8890000Y85725000D03*
X11430000Y83185000D03*
X11430000Y85735000D03*
X13970000Y83185000D03*
X13970000Y85735000D03*
X16510000Y83185000D03*
X16510000Y85735000D03*
X19050000Y83185000D03*
X19050000Y85735000D03*
X21590000Y83185000D03*
X21590000Y85735000D03*
X24130000Y83185000D03*
X24130000Y85735000D03*
X26670000Y83185000D03*
X26670000Y85735000D03*
X29210000Y83185000D03*
X29210000Y85735000D03*
X31750000Y83185000D03*
X31750000Y85735000D03*
X34290000Y83185000D03*
X34290000Y85735000D03*
X36830000Y83185000D03*
X36830000Y85735000D03*
X39370000Y83185000D03*
X39370000Y85735000D03*
X41910000Y83185000D03*
X41910000Y85735000D03*
X44450000Y83185000D03*
X44450000Y85735000D03*
X46990000Y83185000D03*
X46990000Y85735000D03*
X49530000Y83185000D03*
X49530000Y85735000D03*
X52070000Y83185000D03*
X52070000Y85735000D03*
X54610000Y83185000D03*
X54610000Y85735000D03*
X57150000Y83185000D03*
X57150000Y85735000D03*
X59690000Y83185000D03*
X59690000Y85735000D03*
X62230000Y83185000D03*
X62230000Y85735000D03*
X64770000Y83185000D03*
X64770000Y85735000D03*
X67310000Y83185000D03*
X67310000Y85735000D03*
X69850000Y83185000D03*
X69850000Y85735000D03*
X72390000Y83185000D03*
X72390000Y85735000D03*
%TD*%
D37*
%TO.C,C3*%
X71833000Y14097000D03*
X68883000Y14097000D03*
%TD*%
D30*
%TO.C,TP4*%
X13716000Y4059000D03*
%TD*%
D14*
%TO.C,R12*%
X70421000Y10541000D03*
X68771000Y10541000D03*
%TD*%
M02*
