%TF.GenerationSoftware,KiCad,Pcbnew,8.0.1*%
%TF.CreationDate,2024-05-29T09:56:21-04:00*%
%TF.ProjectId,Avionics_Board,4176696f-6e69-4637-935f-426f6172642e,rev?*%
%TF.SameCoordinates,PX40311b0PY93281e8*%
%TF.FileFunction,Profile,NP*%
%FSLAX46Y46*%
G04 Gerber Fmt 4.6, Leading zero omitted, Abs format (unit mm)*
G04 Created by KiCad (PCBNEW 8.0.1) date 2024-05-29 09:56:21*
%MOMM*%
%LPD*%
G01*
G04 APERTURE LIST*
%TA.AperFunction,Profile*%
%ADD10C,0.100000*%
%TD*%
%TA.AperFunction,Profile*%
%ADD11C,0.200000*%
%TD*%
G04 APERTURE END LIST*
D10*
X85090000Y3441700D02*
X85090000Y21856700D01*
X-8255000Y-442982D02*
X-8255000Y-5080000D01*
D11*
X-5080000Y-3886200D02*
X-5080000Y-442982D01*
D10*
X80518000Y77546200D02*
G75*
G02*
X83693000Y77546200I1587500J0D01*
G01*
D11*
X51305000Y89077800D02*
G75*
G02*
X50111200Y87884000I-1193800J0D01*
G01*
X-3175000Y33896300D02*
G75*
G02*
X-4127500Y32727141I-1193800J0D01*
G01*
X83896200Y-5080000D02*
X52498800Y-5080000D01*
X80518000Y82626200D02*
X80518000Y89611200D01*
D10*
X88265000Y52019200D02*
G75*
G02*
X85090000Y52019200I-1587500J0D01*
G01*
X-8255000Y90805000D02*
X-8255000Y89611200D01*
D11*
X50111200Y87884000D02*
X32178800Y87884000D01*
D10*
X-5080000Y26227018D02*
G75*
G02*
X-8255000Y26227018I-1587500J0D01*
G01*
X-5080000Y4637018D02*
G75*
G02*
X-8255000Y4637018I-1587500J0D01*
G01*
D11*
X-3175000Y51828700D02*
X-3175000Y33896300D01*
X51305000Y89611200D02*
G75*
G02*
X52498800Y90805000I1193800J0D01*
G01*
D10*
X-8255000Y90805000D02*
X-17780000Y90805000D01*
D11*
X-4127500Y52997859D02*
G75*
G02*
X-5079982Y54167018I241300J1169141D01*
G01*
D10*
X-17780000Y90805000D02*
X-17780000Y89611200D01*
D11*
X32178800Y87884000D02*
G75*
G02*
X30985000Y89077800I0J1193800D01*
G01*
X-5080000Y54167018D02*
X-5080000Y66867018D01*
D10*
X85090000Y47256700D02*
G75*
G02*
X88265000Y47256700I1587500J0D01*
G01*
X83693000Y82626200D02*
G75*
G02*
X80518000Y82626200I-1587500J0D01*
G01*
X85090000Y52019200D02*
X85090000Y66624200D01*
X88265000Y26936700D02*
G75*
G02*
X85090000Y26936700I-1587500J0D01*
G01*
X-8255000Y4637018D02*
X-8255000Y21147018D01*
X-8255000Y26227018D02*
X-8255000Y66867018D01*
X-8255000Y21147018D02*
G75*
G02*
X-5080000Y21147018I1587500J0D01*
G01*
D11*
X85090000Y-1320800D02*
X85090000Y-3886200D01*
D10*
X-5080000Y72582018D02*
X-5080000Y82424518D01*
X-5080000Y4637018D02*
X-5080000Y21147018D01*
D11*
X-3886200Y90805000D02*
X29791200Y90805000D01*
D10*
X-5080000Y72582018D02*
G75*
G02*
X-8255000Y72582018I-1587500J0D01*
G01*
X85252156Y70993254D02*
G75*
G02*
X83692953Y72580500I14044J1573246D01*
G01*
X80518000Y77546200D02*
X80518000Y69011800D01*
D11*
X-4127500Y52997859D02*
G75*
G02*
X-3175000Y51828700I-241300J-1169159D01*
G01*
D10*
X-8255000Y87822018D02*
X-8255000Y89611200D01*
X85090000Y-1320800D02*
G75*
G02*
X88265000Y-1320800I1587500J0D01*
G01*
X88265000Y3441700D02*
G75*
G02*
X85090000Y3441700I-1587500J0D01*
G01*
X83693000Y77546200D02*
X83693000Y72580500D01*
D11*
X-3886200Y-5080000D02*
G75*
G02*
X-5080000Y-3886200I0J1193800D01*
G01*
D10*
X-8255000Y72582018D02*
X-8255000Y82424518D01*
D11*
X29791200Y-5080000D02*
X-3886200Y-5080000D01*
X30985000Y-3352800D02*
G75*
G02*
X32178800Y-2159000I1193800J0D01*
G01*
D10*
X-17780000Y89611200D02*
X-17780000Y-5080000D01*
D11*
X52498800Y-5080000D02*
G75*
G02*
X51305000Y-3886200I0J1193800D01*
G01*
X29791200Y90805000D02*
G75*
G02*
X30985000Y89611200I0J-1193800D01*
G01*
D10*
X88265000Y3441700D02*
X88265000Y21856700D01*
D11*
X30985000Y89077800D02*
X30985000Y89611200D01*
D10*
X88265000Y-5080000D02*
X97790000Y-5080000D01*
X88265000Y-5080000D02*
X88265000Y-1320800D01*
X48519000Y42875000D02*
G75*
G02*
X31501000Y42875000I-8509000J0D01*
G01*
X31501000Y42875000D02*
G75*
G02*
X48519000Y42875000I8509000J0D01*
G01*
X86677500Y70995691D02*
X85252156Y70993253D01*
D11*
X83896200Y67818000D02*
X81711800Y67818000D01*
D10*
X-8255000Y-442982D02*
G75*
G02*
X-5080000Y-442982I1587500J0D01*
G01*
D11*
X52498800Y90805000D02*
X79324200Y90805000D01*
D10*
X-5080000Y87822018D02*
X-5080000Y89611200D01*
D11*
X85090000Y-3886200D02*
G75*
G02*
X83896200Y-5080000I-1193800J0D01*
G01*
D10*
X-8255000Y-5080000D02*
X-17780000Y-5080000D01*
D11*
X51305000Y89611200D02*
X51305000Y89077800D01*
X-5080000Y31557982D02*
G75*
G02*
X-4127504Y32727158I1193800J18D01*
G01*
X79324200Y90805000D02*
G75*
G02*
X80518000Y89611200I0J-1193800D01*
G01*
D10*
X-5080000Y87822018D02*
G75*
G02*
X-8255000Y87822018I-1587500J0D01*
G01*
D11*
X32178800Y-2159000D02*
X50111200Y-2159000D01*
X30985000Y-3886200D02*
X30985000Y-3352800D01*
X51305000Y-3352800D02*
X51305000Y-3886200D01*
D10*
X88265000Y52019200D02*
X88265000Y69408191D01*
X85090000Y21856700D02*
G75*
G02*
X88265000Y21856700I1587500J0D01*
G01*
X97790000Y-5080000D02*
X97790000Y90805000D01*
X85090000Y26936700D02*
X85090000Y47256700D01*
D11*
X30985000Y-3886200D02*
G75*
G02*
X29791200Y-5080000I-1193800J0D01*
G01*
X-5080000Y89611200D02*
G75*
G02*
X-3886200Y90805000I1193800J0D01*
G01*
X50111200Y-2159000D02*
G75*
G02*
X51305000Y-3352800I0J-1193800D01*
G01*
X83896200Y67818000D02*
G75*
G02*
X85090000Y66624200I0J-1193800D01*
G01*
D10*
X-5080000Y26227018D02*
X-5080000Y31557982D01*
X83693000Y90805000D02*
X97790000Y90805000D01*
X83693000Y89611200D02*
X83693000Y90805000D01*
X88265000Y26936700D02*
X88265000Y47256700D01*
X-8255000Y82424518D02*
G75*
G02*
X-5080000Y82424518I1587500J0D01*
G01*
X-8255000Y66867018D02*
G75*
G02*
X-5080000Y66867018I1587500J0D01*
G01*
X83693000Y89611200D02*
X83693000Y82626200D01*
D11*
X81711800Y67818000D02*
G75*
G02*
X80518000Y69011800I0J1193800D01*
G01*
D10*
X86677500Y70995691D02*
G75*
G02*
X88264991Y69408191I0J-1587491D01*
G01*
M02*
